<?xml version="1.0" encoding="UTF-8" standalone="no"?>
<!DOCTYPE svg PUBLIC "-//W3C//DTD SVG 1.1//EN"
 "http://www.w3.org/Graphics/SVG/1.1/DTD/svg11.dtd">
<!-- Generated by graphviz version 2.47.0 (20210316.0004)
 -->
<!-- Title: dependencies Pages: 1 -->
<svg width="504pt" height="284pt"
 viewBox="0.00 0.00 504.00 284.00" xmlns="http://www.w3.org/2000/svg" xmlns:xlink="http://www.w3.org/1999/xlink">
<g id="graph0" class="graph" transform="scale(1 1) rotate(0) translate(4 280)">
<title>dependencies</title>
<polygon fill="white" stroke="transparent" points="-4,4 -4,-280 500,-280 500,4 -4,4"/>
<text text-anchor="start" x="227.01" y="-42.4" font-family="Times-12" font-weight="bold" font-size="14.00">Legend</text>
<polygon fill="#ffffb3" stroke="transparent" points="14,-10 14,-30 34,-30 34,-10 14,-10"/>
<text text-anchor="start" x="37.63" y="-15.4" font-family="Times-12" font-size="14.00"> &#160;Declarations</text>
<polygon fill="#8dd3c7" stroke="transparent" points="127,-10 127,-30 147,-30 147,-10 127,-10"/>
<text text-anchor="start" x="150.73" y="-15.4" font-family="Times-12" font-size="14.00"> &#160;Module</text>
<polygon fill="#80b1d3" stroke="transparent" points="213,-10 213,-30 233,-30 233,-10 213,-10"/>
<text text-anchor="start" x="236.78" y="-15.4" font-family="Times-12" font-size="14.00"> &#160;Bootstrap</text>
<polygon fill="#fdb462" stroke="transparent" points="310,-10 310,-30 330,-30 330,-10 310,-10"/>
<text text-anchor="start" x="333.67" y="-15.4" font-family="Times-12" font-size="14.00"> &#160;Providers</text>
<polygon fill="#fb8072" stroke="transparent" points="406,-10 406,-30 426,-30 426,-10 406,-10"/>
<text text-anchor="start" x="429.73" y="-15.4" font-family="Times-12" font-size="14.00"> &#160;Exports</text>
<g id="clust1" class="cluster">
<title>cluster_TransportModule</title>
<polygon fill="none" stroke="black" stroke-dasharray="1,5" points="91,-70 91,-268 405,-268 405,-70 91,-70"/>
</g>
<g id="clust6" class="cluster">
<title>cluster_TransportModule_providers</title>
<polygon fill="none" stroke="black" points="225,-78 225,-130 397,-130 397,-78 225,-78"/>
</g>
<g id="clust4" class="cluster">
<title>cluster_TransportModule_exports</title>
<polygon fill="none" stroke="black" points="172,-208 172,-260 304,-260 304,-208 172,-208"/>
</g>
<g id="clust3" class="cluster">
<title>cluster_TransportModule_imports</title>
<polygon fill="none" stroke="black" points="99,-78 99,-130 217,-130 217,-78 99,-78"/>
</g>
<!-- StudentModule -->
<g id="node1" class="node">
<title>StudentModule</title>
<polygon fill="#8dd3c7" stroke="black" points="209.33,-122 206.33,-126 185.33,-126 182.33,-122 106.67,-122 106.67,-86 209.33,-86 209.33,-122"/>
<text text-anchor="middle" x="158" y="-99.8" font-family="Times,serif" font-size="14.00">StudentModule</text>
</g>
<!-- TransportModule -->
<g id="node2" class="node">
<title>TransportModule</title>
<polygon fill="#8dd3c7" stroke="black" points="294.97,-187 291.97,-191 270.97,-191 267.97,-187 181.03,-187 181.03,-151 294.97,-151 294.97,-187"/>
<text text-anchor="middle" x="238" y="-164.8" font-family="Times,serif" font-size="14.00">TransportModule</text>
</g>
<!-- StudentModule&#45;&gt;TransportModule -->
<g id="edge1" class="edge">
<title>StudentModule&#45;&gt;TransportModule</title>
<path fill="none" stroke="black" d="M195.09,-122.11C195.09,-122.11 195.09,-140.99 195.09,-140.99"/>
<polygon fill="black" stroke="black" points="191.59,-140.99 195.09,-150.99 198.59,-140.99 191.59,-140.99"/>
</g>
<!-- TransportService  -->
<g id="node3" class="node">
<title>TransportService </title>
<polygon fill="#fb8072" stroke="black" points="295.9,-252 180.1,-252 180.1,-216 295.9,-216 295.9,-252"/>
<text text-anchor="middle" x="238" y="-229.8" font-family="Times,serif" font-size="14.00">TransportService </text>
</g>
<!-- TransportModule&#45;&gt;TransportService  -->
<g id="edge2" class="edge">
<title>TransportModule&#45;&gt;TransportService </title>
<path fill="none" stroke="black" stroke-dasharray="5,2" d="M238,-187.11C238,-187.11 238,-205.99 238,-205.99"/>
<polygon fill="black" stroke="black" points="234.5,-205.99 238,-215.99 241.5,-205.99 234.5,-205.99"/>
</g>
<!-- TransportService -->
<g id="node4" class="node">
<title>TransportService</title>
<ellipse fill="#fdb462" stroke="black" cx="311" cy="-104" rx="77.56" ry="18"/>
<text text-anchor="middle" x="311" y="-99.8" font-family="Times,serif" font-size="14.00">TransportService</text>
</g>
<!-- TransportService&#45;&gt;TransportModule -->
<g id="edge3" class="edge">
<title>TransportService&#45;&gt;TransportModule</title>
<path fill="none" stroke="black" d="M264.23,-118.43C264.23,-118.43 264.23,-140.89 264.23,-140.89"/>
<polygon fill="black" stroke="black" points="260.73,-140.89 264.23,-150.89 267.73,-140.89 260.73,-140.89"/>
</g>
</g>
</svg>
