<?xml version="1.0" encoding="UTF-8" standalone="no"?>
<!DOCTYPE svg PUBLIC "-//W3C//DTD SVG 1.1//EN"
 "http://www.w3.org/Graphics/SVG/1.1/DTD/svg11.dtd">
<!-- Generated by graphviz version 2.47.0 (20210316.0004)
 -->
<!-- Title: dependencies Pages: 1 -->
<svg width="682pt" height="284pt"
 viewBox="0.00 0.00 682.00 284.00" xmlns="http://www.w3.org/2000/svg" xmlns:xlink="http://www.w3.org/1999/xlink">
<g id="graph0" class="graph" transform="scale(1 1) rotate(0) translate(4 280)">
<title>dependencies</title>
<polygon fill="white" stroke="transparent" points="-4,4 -4,-280 678,-280 678,4 -4,4"/>
<text text-anchor="start" x="316.01" y="-42.4" font-family="Times-12" font-weight="bold" font-size="14.00">Legend</text>
<polygon fill="#ffffb3" stroke="transparent" points="103,-10 103,-30 123,-30 123,-10 103,-10"/>
<text text-anchor="start" x="126.63" y="-15.4" font-family="Times-12" font-size="14.00"> &#160;Declarations</text>
<polygon fill="#8dd3c7" stroke="transparent" points="216,-10 216,-30 236,-30 236,-10 216,-10"/>
<text text-anchor="start" x="239.73" y="-15.4" font-family="Times-12" font-size="14.00"> &#160;Module</text>
<polygon fill="#80b1d3" stroke="transparent" points="302,-10 302,-30 322,-30 322,-10 302,-10"/>
<text text-anchor="start" x="325.78" y="-15.4" font-family="Times-12" font-size="14.00"> &#160;Bootstrap</text>
<polygon fill="#fdb462" stroke="transparent" points="399,-10 399,-30 419,-30 419,-10 399,-10"/>
<text text-anchor="start" x="422.67" y="-15.4" font-family="Times-12" font-size="14.00"> &#160;Providers</text>
<polygon fill="#fb8072" stroke="transparent" points="495,-10 495,-30 515,-30 515,-10 495,-10"/>
<text text-anchor="start" x="518.73" y="-15.4" font-family="Times-12" font-size="14.00"> &#160;Exports</text>
<g id="clust1" class="cluster">
<title>cluster_ParentModule</title>
<polygon fill="none" stroke="black" stroke-dasharray="1,5" points="8,-70 8,-268 666,-268 666,-70 8,-70"/>
</g>
<g id="clust6" class="cluster">
<title>cluster_ParentModule_providers</title>
<polygon fill="none" stroke="black" points="282,-78 282,-130 658,-130 658,-78 282,-78"/>
</g>
<g id="clust3" class="cluster">
<title>cluster_ParentModule_imports</title>
<polygon fill="none" stroke="black" points="16,-78 16,-130 274,-130 274,-78 16,-78"/>
</g>
<g id="clust4" class="cluster">
<title>cluster_ParentModule_exports</title>
<polygon fill="none" stroke="black" points="147,-208 147,-260 435,-260 435,-208 147,-208"/>
</g>
<!-- MessagingModule -->
<g id="node1" class="node">
<title>MessagingModule</title>
<polygon fill="#8dd3c7" stroke="black" points="266.2,-122 263.2,-126 242.2,-126 239.2,-122 145.8,-122 145.8,-86 266.2,-86 266.2,-122"/>
<text text-anchor="middle" x="206" y="-99.8" font-family="Times,serif" font-size="14.00">MessagingModule</text>
</g>
<!-- ParentModule -->
<g id="node3" class="node">
<title>ParentModule</title>
<polygon fill="#8dd3c7" stroke="black" points="339.81,-187 336.81,-191 315.81,-191 312.81,-187 244.19,-187 244.19,-151 339.81,-151 339.81,-187"/>
<text text-anchor="middle" x="292" y="-164.8" font-family="Times,serif" font-size="14.00">ParentModule</text>
</g>
<!-- MessagingModule&#45;&gt;ParentModule -->
<g id="edge1" class="edge">
<title>MessagingModule&#45;&gt;ParentModule</title>
<path fill="none" stroke="black" d="M255.22,-122.11C255.22,-122.11 255.22,-140.99 255.22,-140.99"/>
<polygon fill="black" stroke="black" points="251.72,-140.99 255.22,-150.99 258.72,-140.99 251.72,-140.99"/>
</g>
<!-- TeacherModule -->
<g id="node2" class="node">
<title>TeacherModule</title>
<polygon fill="#8dd3c7" stroke="black" points="128.12,-122 125.12,-126 104.12,-126 101.12,-122 23.88,-122 23.88,-86 128.12,-86 128.12,-122"/>
<text text-anchor="middle" x="76" y="-99.8" font-family="Times,serif" font-size="14.00">TeacherModule</text>
</g>
<!-- TeacherModule&#45;&gt;ParentModule -->
<g id="edge2" class="edge">
<title>TeacherModule&#45;&gt;ParentModule</title>
<path fill="none" stroke="black" d="M76,-122.11C76,-141.34 76,-169 76,-169 76,-169 234.33,-169 234.33,-169"/>
<polygon fill="black" stroke="black" points="234.33,-172.5 244.33,-169 234.33,-165.5 234.33,-172.5"/>
</g>
<!-- ParentChatService  -->
<g id="node4" class="node">
<title>ParentChatService </title>
<polygon fill="#fb8072" stroke="black" points="426.68,-252 303.32,-252 303.32,-216 426.68,-216 426.68,-252"/>
<text text-anchor="middle" x="365" y="-229.8" font-family="Times,serif" font-size="14.00">ParentChatService </text>
</g>
<!-- ParentModule&#45;&gt;ParentChatService  -->
<g id="edge3" class="edge">
<title>ParentModule&#45;&gt;ParentChatService </title>
<path fill="none" stroke="black" stroke-dasharray="5,2" d="M321.41,-187.11C321.41,-187.11 321.41,-205.99 321.41,-205.99"/>
<polygon fill="black" stroke="black" points="317.91,-205.99 321.41,-215.99 324.91,-205.99 317.91,-205.99"/>
</g>
<!-- ParentPortalService  -->
<g id="node5" class="node">
<title>ParentPortalService </title>
<polygon fill="#fb8072" stroke="black" points="285.18,-252 154.82,-252 154.82,-216 285.18,-216 285.18,-252"/>
<text text-anchor="middle" x="220" y="-229.8" font-family="Times,serif" font-size="14.00">ParentPortalService </text>
</g>
<!-- ParentModule&#45;&gt;ParentPortalService  -->
<g id="edge4" class="edge">
<title>ParentModule&#45;&gt;ParentPortalService </title>
<path fill="none" stroke="black" stroke-dasharray="5,2" d="M264.84,-187.11C264.84,-187.11 264.84,-205.99 264.84,-205.99"/>
<polygon fill="black" stroke="black" points="261.34,-205.99 264.84,-215.99 268.34,-205.99 261.34,-205.99"/>
</g>
<!-- ParentChatService -->
<g id="node6" class="node">
<title>ParentChatService</title>
<ellipse fill="#fdb462" stroke="black" cx="567" cy="-104" rx="82.8" ry="18"/>
<text text-anchor="middle" x="567" y="-99.8" font-family="Times,serif" font-size="14.00">ParentChatService</text>
</g>
<!-- ParentChatService&#45;&gt;ParentModule -->
<g id="edge5" class="edge">
<title>ParentChatService&#45;&gt;ParentModule</title>
<path fill="none" stroke="black" d="M567,-122.11C567,-141.34 567,-169 567,-169 567,-169 349.9,-169 349.9,-169"/>
<polygon fill="black" stroke="black" points="349.9,-165.5 339.9,-169 349.9,-172.5 349.9,-165.5"/>
</g>
<!-- ParentPortalService -->
<g id="node7" class="node">
<title>ParentPortalService</title>
<ellipse fill="#fdb462" stroke="black" cx="378" cy="-104" rx="87.95" ry="18"/>
<text text-anchor="middle" x="378" y="-99.8" font-family="Times,serif" font-size="14.00">ParentPortalService</text>
</g>
<!-- ParentPortalService&#45;&gt;ParentModule -->
<g id="edge6" class="edge">
<title>ParentPortalService&#45;&gt;ParentModule</title>
<path fill="none" stroke="black" d="M314.97,-116.53C314.97,-116.53 314.97,-140.85 314.97,-140.85"/>
<polygon fill="black" stroke="black" points="311.47,-140.85 314.97,-150.85 318.47,-140.85 311.47,-140.85"/>
</g>
</g>
</svg>
