<?xml version="1.0" encoding="UTF-8" standalone="no"?>
<!DOCTYPE svg PUBLIC "-//W3C//DTD SVG 1.1//EN"
 "http://www.w3.org/Graphics/SVG/1.1/DTD/svg11.dtd">
<!-- Generated by graphviz version 2.47.0 (20210316.0004)
 -->
<!-- Title: dependencies Pages: 1 -->
<svg width="504pt" height="211pt"
 viewBox="0.00 0.00 504.00 211.00" xmlns="http://www.w3.org/2000/svg" xmlns:xlink="http://www.w3.org/1999/xlink">
<g id="graph0" class="graph" transform="scale(1 1) rotate(0) translate(4 207)">
<title>dependencies</title>
<polygon fill="white" stroke="transparent" points="-4,4 -4,-207 500,-207 500,4 -4,4"/>
<text text-anchor="start" x="227.01" y="-42.4" font-family="Times-12" font-weight="bold" font-size="14.00">Legend</text>
<polygon fill="#ffffb3" stroke="transparent" points="14,-10 14,-30 34,-30 34,-10 14,-10"/>
<text text-anchor="start" x="37.63" y="-15.4" font-family="Times-12" font-size="14.00"> &#160;Declarations</text>
<polygon fill="#8dd3c7" stroke="transparent" points="127,-10 127,-30 147,-30 147,-10 127,-10"/>
<text text-anchor="start" x="150.73" y="-15.4" font-family="Times-12" font-size="14.00"> &#160;Module</text>
<polygon fill="#80b1d3" stroke="transparent" points="213,-10 213,-30 233,-30 233,-10 213,-10"/>
<text text-anchor="start" x="236.78" y="-15.4" font-family="Times-12" font-size="14.00"> &#160;Bootstrap</text>
<polygon fill="#fdb462" stroke="transparent" points="310,-10 310,-30 330,-30 330,-10 310,-10"/>
<text text-anchor="start" x="333.67" y="-15.4" font-family="Times-12" font-size="14.00"> &#160;Providers</text>
<polygon fill="#fb8072" stroke="transparent" points="406,-10 406,-30 426,-30 426,-10 406,-10"/>
<text text-anchor="start" x="429.73" y="-15.4" font-family="Times-12" font-size="14.00"> &#160;Exports</text>
<g id="clust1" class="cluster">
<title>cluster_MarksheetModule</title>
<polygon fill="none" stroke="black" stroke-dasharray="1,5" points="22,-70 22,-195 474,-195 474,-70 22,-70"/>
</g>
<g id="clust3" class="cluster">
<title>cluster_MarksheetModule_imports</title>
<polygon fill="none" stroke="black" points="324,-78 324,-130 466,-130 466,-78 324,-78"/>
</g>
<g id="clust6" class="cluster">
<title>cluster_MarksheetModule_providers</title>
<polygon fill="none" stroke="black" points="30,-78 30,-130 316,-130 316,-78 30,-78"/>
</g>
<!-- AssessmentModule -->
<g id="node1" class="node">
<title>AssessmentModule</title>
<polygon fill="#8dd3c7" stroke="black" points="457.65,-122 454.65,-126 433.65,-126 430.65,-122 332.35,-122 332.35,-86 457.65,-86 457.65,-122"/>
<text text-anchor="middle" x="395" y="-99.8" font-family="Times,serif" font-size="14.00">AssessmentModule</text>
</g>
<!-- MarksheetModule -->
<g id="node2" class="node">
<title>MarksheetModule</title>
<polygon fill="#8dd3c7" stroke="black" points="302.13,-187 299.13,-191 278.13,-191 275.13,-187 183.87,-187 183.87,-151 302.13,-151 302.13,-187"/>
<text text-anchor="middle" x="243" y="-164.8" font-family="Times,serif" font-size="14.00">MarksheetModule</text>
</g>
<!-- AssessmentModule&#45;&gt;MarksheetModule -->
<g id="edge1" class="edge">
<title>AssessmentModule&#45;&gt;MarksheetModule</title>
<path fill="none" stroke="black" d="M395,-122.11C395,-141.34 395,-169 395,-169 395,-169 312.2,-169 312.2,-169"/>
<polygon fill="black" stroke="black" points="312.2,-165.5 302.2,-169 312.2,-172.5 312.2,-165.5"/>
</g>
<!-- MarkProvider -->
<g id="node3" class="node">
<title>MarkProvider</title>
<ellipse fill="#fdb462" stroke="black" cx="243" cy="-104" rx="65.41" ry="18"/>
<text text-anchor="middle" x="243" y="-99.8" font-family="Times,serif" font-size="14.00">MarkProvider</text>
</g>
<!-- MarkProvider&#45;&gt;MarksheetModule -->
<g id="edge2" class="edge">
<title>MarkProvider&#45;&gt;MarksheetModule</title>
<path fill="none" stroke="black" d="M243,-122.11C243,-122.11 243,-140.99 243,-140.99"/>
<polygon fill="black" stroke="black" points="239.5,-140.99 243,-150.99 246.5,-140.99 239.5,-140.99"/>
</g>
<!-- MarkService -->
<g id="node4" class="node">
<title>MarkService</title>
<ellipse fill="#fdb462" stroke="black" cx="99" cy="-104" rx="60.81" ry="18"/>
<text text-anchor="middle" x="99" y="-99.8" font-family="Times,serif" font-size="14.00">MarkService</text>
</g>
<!-- MarkService&#45;&gt;MarksheetModule -->
<g id="edge3" class="edge">
<title>MarkService&#45;&gt;MarksheetModule</title>
<path fill="none" stroke="black" d="M99,-122.11C99,-141.34 99,-169 99,-169 99,-169 173.6,-169 173.6,-169"/>
<polygon fill="black" stroke="black" points="173.6,-172.5 183.6,-169 173.6,-165.5 173.6,-172.5"/>
</g>
</g>
</svg>
