<?xml version="1.0" encoding="UTF-8" standalone="no"?>
<!DOCTYPE svg PUBLIC "-//W3C//DTD SVG 1.1//EN"
 "http://www.w3.org/Graphics/SVG/1.1/DTD/svg11.dtd">
<!-- Generated by graphviz version 2.47.0 (20210316.0004)
 -->
<!-- Title: dependencies Pages: 1 -->
<svg width="504pt" height="284pt"
 viewBox="0.00 0.00 504.00 284.00" xmlns="http://www.w3.org/2000/svg" xmlns:xlink="http://www.w3.org/1999/xlink">
<g id="graph0" class="graph" transform="scale(1 1) rotate(0) translate(4 280)">
<title>dependencies</title>
<polygon fill="white" stroke="transparent" points="-4,4 -4,-280 500,-280 500,4 -4,4"/>
<text text-anchor="start" x="227.01" y="-42.4" font-family="Times-12" font-weight="bold" font-size="14.00">Legend</text>
<polygon fill="#ffffb3" stroke="transparent" points="14,-10 14,-30 34,-30 34,-10 14,-10"/>
<text text-anchor="start" x="37.63" y="-15.4" font-family="Times-12" font-size="14.00"> &#160;Declarations</text>
<polygon fill="#8dd3c7" stroke="transparent" points="127,-10 127,-30 147,-30 147,-10 127,-10"/>
<text text-anchor="start" x="150.73" y="-15.4" font-family="Times-12" font-size="14.00"> &#160;Module</text>
<polygon fill="#80b1d3" stroke="transparent" points="213,-10 213,-30 233,-30 233,-10 213,-10"/>
<text text-anchor="start" x="236.78" y="-15.4" font-family="Times-12" font-size="14.00"> &#160;Bootstrap</text>
<polygon fill="#fdb462" stroke="transparent" points="310,-10 310,-30 330,-30 330,-10 310,-10"/>
<text text-anchor="start" x="333.67" y="-15.4" font-family="Times-12" font-size="14.00"> &#160;Providers</text>
<polygon fill="#fb8072" stroke="transparent" points="406,-10 406,-30 426,-30 426,-10 406,-10"/>
<text text-anchor="start" x="429.73" y="-15.4" font-family="Times-12" font-size="14.00"> &#160;Exports</text>
<g id="clust1" class="cluster">
<title>cluster_CommonModule</title>
<polygon fill="none" stroke="black" stroke-dasharray="1,5" points="106,-70 106,-268 390,-268 390,-70 106,-70"/>
</g>
<g id="clust6" class="cluster">
<title>cluster_CommonModule_providers</title>
<polygon fill="none" stroke="black" points="230,-78 230,-130 382,-130 382,-78 230,-78"/>
</g>
<g id="clust3" class="cluster">
<title>cluster_CommonModule_imports</title>
<polygon fill="none" stroke="black" points="114,-78 114,-130 222,-130 222,-78 114,-78"/>
</g>
<g id="clust4" class="cluster">
<title>cluster_CommonModule_exports</title>
<polygon fill="none" stroke="black" points="180,-208 180,-260 298,-260 298,-208 180,-208"/>
</g>
<!-- RedisModule -->
<g id="node1" class="node">
<title>RedisModule</title>
<polygon fill="#8dd3c7" stroke="black" points="213.94,-122 210.94,-126 189.94,-126 186.94,-122 122.06,-122 122.06,-86 213.94,-86 213.94,-122"/>
<text text-anchor="middle" x="168" y="-99.8" font-family="Times,serif" font-size="14.00">RedisModule</text>
</g>
<!-- CommonModule -->
<g id="node2" class="node">
<title>CommonModule</title>
<polygon fill="#8dd3c7" stroke="black" points="294.67,-187 291.67,-191 270.67,-191 267.67,-187 183.33,-187 183.33,-151 294.67,-151 294.67,-187"/>
<text text-anchor="middle" x="239" y="-164.8" font-family="Times,serif" font-size="14.00">CommonModule</text>
</g>
<!-- RedisModule&#45;&gt;CommonModule -->
<g id="edge1" class="edge">
<title>RedisModule&#45;&gt;CommonModule</title>
<path fill="none" stroke="black" d="M198.44,-122.11C198.44,-122.11 198.44,-140.99 198.44,-140.99"/>
<polygon fill="black" stroke="black" points="194.94,-140.99 198.44,-150.99 201.94,-140.99 194.94,-140.99"/>
</g>
<!-- CacheProvider  -->
<g id="node3" class="node">
<title>CacheProvider </title>
<polygon fill="#fb8072" stroke="black" points="290.19,-252 187.81,-252 187.81,-216 290.19,-216 290.19,-252"/>
<text text-anchor="middle" x="239" y="-229.8" font-family="Times,serif" font-size="14.00">CacheProvider </text>
</g>
<!-- CommonModule&#45;&gt;CacheProvider  -->
<g id="edge2" class="edge">
<title>CommonModule&#45;&gt;CacheProvider </title>
<path fill="none" stroke="black" stroke-dasharray="5,2" d="M239,-187.11C239,-187.11 239,-205.99 239,-205.99"/>
<polygon fill="black" stroke="black" points="235.5,-205.99 239,-215.99 242.5,-205.99 235.5,-205.99"/>
</g>
<!-- CacheProvider -->
<g id="node4" class="node">
<title>CacheProvider</title>
<ellipse fill="#fdb462" stroke="black" cx="306" cy="-104" rx="68.34" ry="18"/>
<text text-anchor="middle" x="306" y="-99.8" font-family="Times,serif" font-size="14.00">CacheProvider</text>
</g>
<!-- CacheProvider&#45;&gt;CommonModule -->
<g id="edge3" class="edge">
<title>CacheProvider&#45;&gt;CommonModule</title>
<path fill="none" stroke="black" d="M266.21,-118.75C266.21,-118.75 266.21,-140.59 266.21,-140.59"/>
<polygon fill="black" stroke="black" points="262.71,-140.59 266.21,-150.59 269.71,-140.59 262.71,-140.59"/>
</g>
</g>
</svg>
