<?xml version="1.0" encoding="UTF-8" standalone="no"?>
<!DOCTYPE svg PUBLIC "-//W3C//DTD SVG 1.1//EN"
 "http://www.w3.org/Graphics/SVG/1.1/DTD/svg11.dtd">
<!-- Generated by graphviz version 2.47.0 (20210316.0004)
 -->
<!-- Title: dependencies Pages: 1 -->
<svg width="844pt" height="284pt"
 viewBox="0.00 0.00 844.00 284.00" xmlns="http://www.w3.org/2000/svg" xmlns:xlink="http://www.w3.org/1999/xlink">
<g id="graph0" class="graph" transform="scale(1 1) rotate(0) translate(4 280)">
<title>dependencies</title>
<polygon fill="white" stroke="transparent" points="-4,4 -4,-280 840,-280 840,4 -4,4"/>
<text text-anchor="start" x="397.01" y="-42.4" font-family="Times-12" font-weight="bold" font-size="14.00">Legend</text>
<polygon fill="#ffffb3" stroke="transparent" points="184,-10 184,-30 204,-30 204,-10 184,-10"/>
<text text-anchor="start" x="207.63" y="-15.4" font-family="Times-12" font-size="14.00"> &#160;Declarations</text>
<polygon fill="#8dd3c7" stroke="transparent" points="297,-10 297,-30 317,-30 317,-10 297,-10"/>
<text text-anchor="start" x="320.73" y="-15.4" font-family="Times-12" font-size="14.00"> &#160;Module</text>
<polygon fill="#80b1d3" stroke="transparent" points="383,-10 383,-30 403,-30 403,-10 383,-10"/>
<text text-anchor="start" x="406.78" y="-15.4" font-family="Times-12" font-size="14.00"> &#160;Bootstrap</text>
<polygon fill="#fdb462" stroke="transparent" points="480,-10 480,-30 500,-30 500,-10 480,-10"/>
<text text-anchor="start" x="503.67" y="-15.4" font-family="Times-12" font-size="14.00"> &#160;Providers</text>
<polygon fill="#fb8072" stroke="transparent" points="576,-10 576,-30 596,-30 596,-10 576,-10"/>
<text text-anchor="start" x="599.73" y="-15.4" font-family="Times-12" font-size="14.00"> &#160;Exports</text>
<g id="clust1" class="cluster">
<title>cluster_UserModule</title>
<polygon fill="none" stroke="black" stroke-dasharray="1,5" points="8,-70 8,-268 828,-268 828,-70 8,-70"/>
</g>
<g id="clust6" class="cluster">
<title>cluster_UserModule_providers</title>
<polygon fill="none" stroke="black" points="480,-78 480,-130 820,-130 820,-78 480,-78"/>
</g>
<g id="clust4" class="cluster">
<title>cluster_UserModule_exports</title>
<polygon fill="none" stroke="black" points="357,-208 357,-260 467,-260 467,-208 357,-208"/>
</g>
<g id="clust3" class="cluster">
<title>cluster_UserModule_imports</title>
<polygon fill="none" stroke="black" points="16,-78 16,-130 472,-130 472,-78 16,-78"/>
</g>
<!-- SchoolsModule -->
<g id="node1" class="node">
<title>SchoolsModule</title>
<polygon fill="#8dd3c7" stroke="black" points="463.88,-122 460.88,-126 439.88,-126 436.88,-122 360.12,-122 360.12,-86 463.88,-86 463.88,-122"/>
<text text-anchor="middle" x="412" y="-99.8" font-family="Times,serif" font-size="14.00">SchoolsModule</text>
</g>
<!-- UserModule -->
<g id="node4" class="node">
<title>UserModule</title>
<polygon fill="#8dd3c7" stroke="black" points="454.98,-187 451.98,-191 430.98,-191 427.98,-187 369.02,-187 369.02,-151 454.98,-151 454.98,-187"/>
<text text-anchor="middle" x="412" y="-164.8" font-family="Times,serif" font-size="14.00">UserModule</text>
</g>
<!-- SchoolsModule&#45;&gt;UserModule -->
<g id="edge1" class="edge">
<title>SchoolsModule&#45;&gt;UserModule</title>
<path fill="none" stroke="black" d="M412,-122.11C412,-122.11 412,-140.99 412,-140.99"/>
<polygon fill="black" stroke="black" points="408.5,-140.99 412,-150.99 415.5,-140.99 408.5,-140.99"/>
</g>
<!-- TenantsModule -->
<g id="node2" class="node">
<title>TenantsModule</title>
<polygon fill="#8dd3c7" stroke="black" points="341.87,-122 338.87,-126 317.87,-126 314.87,-122 238.13,-122 238.13,-86 341.87,-86 341.87,-122"/>
<text text-anchor="middle" x="290" y="-99.8" font-family="Times,serif" font-size="14.00">TenantsModule</text>
</g>
<!-- TenantsModule&#45;&gt;UserModule -->
<g id="edge2" class="edge">
<title>TenantsModule&#45;&gt;UserModule</title>
<path fill="none" stroke="black" d="M290,-122.02C290,-139.37 290,-163 290,-163 290,-163 358.99,-163 358.99,-163"/>
<polygon fill="black" stroke="black" points="358.99,-166.5 368.99,-163 358.99,-159.5 358.99,-166.5"/>
</g>
<!-- UserTenantMembershipModule -->
<g id="node3" class="node">
<title>UserTenantMembershipModule</title>
<polygon fill="#8dd3c7" stroke="black" points="219.61,-122 216.61,-126 195.61,-126 192.61,-122 24.39,-122 24.39,-86 219.61,-86 219.61,-122"/>
<text text-anchor="middle" x="122" y="-99.8" font-family="Times,serif" font-size="14.00">UserTenantMembershipModule</text>
</g>
<!-- UserTenantMembershipModule&#45;&gt;UserModule -->
<g id="edge3" class="edge">
<title>UserTenantMembershipModule&#45;&gt;UserModule</title>
<path fill="none" stroke="black" d="M122,-122.28C122,-143.32 122,-175 122,-175 122,-175 358.9,-175 358.9,-175"/>
<polygon fill="black" stroke="black" points="358.9,-178.5 368.9,-175 358.9,-171.5 358.9,-178.5"/>
</g>
<!-- UsersService  -->
<g id="node5" class="node">
<title>UsersService </title>
<polygon fill="#fb8072" stroke="black" points="458.85,-252 365.15,-252 365.15,-216 458.85,-216 458.85,-252"/>
<text text-anchor="middle" x="412" y="-229.8" font-family="Times,serif" font-size="14.00">UsersService </text>
</g>
<!-- UserModule&#45;&gt;UsersService  -->
<g id="edge4" class="edge">
<title>UserModule&#45;&gt;UsersService </title>
<path fill="none" stroke="black" stroke-dasharray="5,2" d="M412,-187.11C412,-187.11 412,-205.99 412,-205.99"/>
<polygon fill="black" stroke="black" points="408.5,-205.99 412,-215.99 415.5,-205.99 408.5,-205.99"/>
</g>
<!-- UsersCreateProvider -->
<g id="node6" class="node">
<title>UsersCreateProvider</title>
<ellipse fill="#fdb462" stroke="black" cx="721" cy="-104" rx="91.45" ry="18"/>
<text text-anchor="middle" x="721" y="-99.8" font-family="Times,serif" font-size="14.00">UsersCreateProvider</text>
</g>
<!-- UsersCreateProvider&#45;&gt;UserModule -->
<g id="edge5" class="edge">
<title>UsersCreateProvider&#45;&gt;UserModule</title>
<path fill="none" stroke="black" d="M721,-122.28C721,-143.32 721,-175 721,-175 721,-175 465.29,-175 465.29,-175"/>
<polygon fill="black" stroke="black" points="465.29,-171.5 455.29,-175 465.29,-178.5 465.29,-171.5"/>
</g>
<!-- UsersService -->
<g id="node7" class="node">
<title>UsersService</title>
<ellipse fill="#fdb462" stroke="black" cx="550" cy="-104" rx="61.95" ry="18"/>
<text text-anchor="middle" x="550" y="-99.8" font-family="Times,serif" font-size="14.00">UsersService</text>
</g>
<!-- UsersService&#45;&gt;UserModule -->
<g id="edge6" class="edge">
<title>UsersService&#45;&gt;UserModule</title>
<path fill="none" stroke="black" d="M550,-122.02C550,-139.37 550,-163 550,-163 550,-163 465.29,-163 465.29,-163"/>
<polygon fill="black" stroke="black" points="465.29,-159.5 455.29,-163 465.29,-166.5 465.29,-159.5"/>
</g>
</g>
</svg>
