<?xml version="1.0" encoding="UTF-8" standalone="no"?>
<!DOCTYPE svg PUBLIC "-//W3C//DTD SVG 1.1//EN"
 "http://www.w3.org/Graphics/SVG/1.1/DTD/svg11.dtd">
<!-- Generated by graphviz version 2.47.0 (20210316.0004)
 -->
<!-- Title: dependencies Pages: 1 -->
<svg width="2263pt" height="284pt"
 viewBox="0.00 0.00 2263.00 284.00" xmlns="http://www.w3.org/2000/svg" xmlns:xlink="http://www.w3.org/1999/xlink">
<g id="graph0" class="graph" transform="scale(1 1) rotate(0) translate(4 280)">
<title>dependencies</title>
<polygon fill="white" stroke="transparent" points="-4,4 -4,-280 2259,-280 2259,4 -4,4"/>
<text text-anchor="start" x="1106.51" y="-42.4" font-family="Times-12" font-weight="bold" font-size="14.00">Legend</text>
<polygon fill="#ffffb3" stroke="transparent" points="893.5,-10 893.5,-30 913.5,-30 913.5,-10 893.5,-10"/>
<text text-anchor="start" x="917.13" y="-15.4" font-family="Times-12" font-size="14.00"> &#160;Declarations</text>
<polygon fill="#8dd3c7" stroke="transparent" points="1006.5,-10 1006.5,-30 1026.5,-30 1026.5,-10 1006.5,-10"/>
<text text-anchor="start" x="1030.23" y="-15.4" font-family="Times-12" font-size="14.00"> &#160;Module</text>
<polygon fill="#80b1d3" stroke="transparent" points="1092.5,-10 1092.5,-30 1112.5,-30 1112.5,-10 1092.5,-10"/>
<text text-anchor="start" x="1116.28" y="-15.4" font-family="Times-12" font-size="14.00"> &#160;Bootstrap</text>
<polygon fill="#fdb462" stroke="transparent" points="1189.5,-10 1189.5,-30 1209.5,-30 1209.5,-10 1189.5,-10"/>
<text text-anchor="start" x="1213.17" y="-15.4" font-family="Times-12" font-size="14.00"> &#160;Providers</text>
<polygon fill="#fb8072" stroke="transparent" points="1285.5,-10 1285.5,-30 1305.5,-30 1305.5,-10 1285.5,-10"/>
<text text-anchor="start" x="1309.23" y="-15.4" font-family="Times-12" font-size="14.00"> &#160;Exports</text>
<g id="clust1" class="cluster">
<title>cluster_AuthModule</title>
<polygon fill="none" stroke="black" stroke-dasharray="1,5" points="8,-70 8,-268 2247,-268 2247,-70 8,-70"/>
</g>
<g id="clust3" class="cluster">
<title>cluster_AuthModule_imports</title>
<polygon fill="none" stroke="black" points="1795,-78 1795,-130 2239,-130 2239,-78 1795,-78"/>
</g>
<g id="clust4" class="cluster">
<title>cluster_AuthModule_exports</title>
<polygon fill="none" stroke="black" points="614,-208 614,-260 1634,-260 1634,-208 614,-208"/>
</g>
<g id="clust6" class="cluster">
<title>cluster_AuthModule_providers</title>
<polygon fill="none" stroke="black" points="16,-78 16,-130 1787,-130 1787,-78 16,-78"/>
</g>
<!-- EmailModule -->
<g id="node1" class="node">
<title>EmailModule</title>
<polygon fill="#8dd3c7" stroke="black" points="2231.49,-122 2228.49,-126 2207.49,-126 2204.49,-122 2138.51,-122 2138.51,-86 2231.49,-86 2231.49,-122"/>
<text text-anchor="middle" x="2185" y="-99.8" font-family="Times,serif" font-size="14.00">EmailModule</text>
</g>
<!-- AuthModule -->
<g id="node4" class="node">
<title>AuthModule</title>
<polygon fill="#8dd3c7" stroke="black" points="1180.55,-187 1177.55,-191 1156.55,-191 1153.55,-187 1093.45,-187 1093.45,-151 1180.55,-151 1180.55,-187"/>
<text text-anchor="middle" x="1137" y="-164.8" font-family="Times,serif" font-size="14.00">AuthModule</text>
</g>
<!-- EmailModule&#45;&gt;AuthModule -->
<g id="edge1" class="edge">
<title>EmailModule&#45;&gt;AuthModule</title>
<path fill="none" stroke="black" d="M2185,-122.13C2185,-142.57 2185,-173 2185,-173 2185,-173 1190.7,-173 1190.7,-173"/>
<polygon fill="black" stroke="black" points="1190.7,-169.5 1180.7,-173 1190.7,-176.5 1190.7,-169.5"/>
</g>
<!-- TenantsModule -->
<g id="node2" class="node">
<title>TenantsModule</title>
<polygon fill="#8dd3c7" stroke="black" points="2120.87,-122 2117.87,-126 2096.87,-126 2093.87,-122 2017.13,-122 2017.13,-86 2120.87,-86 2120.87,-122"/>
<text text-anchor="middle" x="2069" y="-99.8" font-family="Times,serif" font-size="14.00">TenantsModule</text>
</g>
<!-- TenantsModule&#45;&gt;AuthModule -->
<g id="edge2" class="edge">
<title>TenantsModule&#45;&gt;AuthModule</title>
<path fill="none" stroke="black" d="M2069,-122.11C2069,-141.34 2069,-169 2069,-169 2069,-169 1190.7,-169 1190.7,-169"/>
<polygon fill="black" stroke="black" points="1190.7,-165.5 1180.7,-169 1190.7,-172.5 1190.7,-165.5"/>
</g>
<!-- UserTenantMembershipModule -->
<g id="node3" class="node">
<title>UserTenantMembershipModule</title>
<polygon fill="#8dd3c7" stroke="black" points="1998.61,-122 1995.61,-126 1974.61,-126 1971.61,-122 1803.39,-122 1803.39,-86 1998.61,-86 1998.61,-122"/>
<text text-anchor="middle" x="1901" y="-99.8" font-family="Times,serif" font-size="14.00">UserTenantMembershipModule</text>
</g>
<!-- UserTenantMembershipModule&#45;&gt;AuthModule -->
<g id="edge3" class="edge">
<title>UserTenantMembershipModule&#45;&gt;AuthModule</title>
<path fill="none" stroke="black" d="M1901,-122.27C1901,-140.56 1901,-166 1901,-166 1901,-166 1190.82,-166 1190.82,-166"/>
<polygon fill="black" stroke="black" points="1190.82,-162.5 1180.82,-166 1190.82,-169.5 1190.82,-162.5"/>
</g>
<!-- AccessTokenGuard  -->
<g id="node5" class="node">
<title>AccessTokenGuard </title>
<polygon fill="#fb8072" stroke="black" points="1625.89,-252 1496.11,-252 1496.11,-216 1625.89,-216 1625.89,-252"/>
<text text-anchor="middle" x="1561" y="-229.8" font-family="Times,serif" font-size="14.00">AccessTokenGuard </text>
</g>
<!-- AuthModule&#45;&gt;AccessTokenGuard  -->
<g id="edge4" class="edge">
<title>AuthModule&#45;&gt;AccessTokenGuard </title>
<path fill="none" stroke="black" stroke-dasharray="5,2" d="M1180.72,-177C1293.3,-177 1584.44,-177 1584.44,-177 1584.44,-177 1584.44,-205.96 1584.44,-205.96"/>
<polygon fill="black" stroke="black" points="1580.94,-205.96 1584.44,-215.96 1587.94,-205.96 1580.94,-205.96"/>
</g>
<!-- AuthService  -->
<g id="node6" class="node">
<title>AuthService </title>
<polygon fill="#fb8072" stroke="black" points="1477.98,-252 1388.02,-252 1388.02,-216 1477.98,-216 1477.98,-252"/>
<text text-anchor="middle" x="1433" y="-229.8" font-family="Times,serif" font-size="14.00">AuthService </text>
</g>
<!-- AuthModule&#45;&gt;AuthService  -->
<g id="edge5" class="edge">
<title>AuthModule&#45;&gt;AuthService </title>
<path fill="none" stroke="black" stroke-dasharray="5,2" d="M1180.68,-180C1263.01,-180 1433,-180 1433,-180 1433,-180 1433,-205.72 1433,-205.72"/>
<polygon fill="black" stroke="black" points="1429.5,-205.72 1433,-215.72 1436.5,-205.72 1429.5,-205.72"/>
</g>
<!-- AuthenticationGuard  -->
<g id="node7" class="node">
<title>AuthenticationGuard </title>
<polygon fill="#fb8072" stroke="black" points="1369.69,-252 1232.31,-252 1232.31,-216 1369.69,-216 1369.69,-252"/>
<text text-anchor="middle" x="1301" y="-229.8" font-family="Times,serif" font-size="14.00">AuthenticationGuard </text>
</g>
<!-- AuthModule&#45;&gt;AuthenticationGuard  -->
<g id="edge6" class="edge">
<title>AuthModule&#45;&gt;AuthenticationGuard </title>
<path fill="none" stroke="black" stroke-dasharray="5,2" d="M1180.76,-184C1208.08,-184 1238.1,-184 1238.1,-184 1238.1,-184 1238.1,-205.95 1238.1,-205.95"/>
<polygon fill="black" stroke="black" points="1234.6,-205.95 1238.1,-215.95 1241.6,-205.95 1234.6,-205.95"/>
</g>
<!-- GenerateTokenProvider  -->
<g id="node8" class="node">
<title>GenerateTokenProvider </title>
<polygon fill="#fb8072" stroke="black" points="1213.99,-252 1060.01,-252 1060.01,-216 1213.99,-216 1213.99,-252"/>
<text text-anchor="middle" x="1137" y="-229.8" font-family="Times,serif" font-size="14.00">GenerateTokenProvider </text>
</g>
<!-- AuthModule&#45;&gt;GenerateTokenProvider  -->
<g id="edge7" class="edge">
<title>AuthModule&#45;&gt;GenerateTokenProvider </title>
<path fill="none" stroke="black" stroke-dasharray="5,2" d="M1137,-187.11C1137,-187.11 1137,-205.99 1137,-205.99"/>
<polygon fill="black" stroke="black" points="1133.5,-205.99 1137,-215.99 1140.5,-205.99 1133.5,-205.99"/>
</g>
<!-- HashingProvider  -->
<g id="node9" class="node">
<title>HashingProvider </title>
<polygon fill="#fb8072" stroke="black" points="1042.37,-252 927.63,-252 927.63,-216 1042.37,-216 1042.37,-252"/>
<text text-anchor="middle" x="985" y="-229.8" font-family="Times,serif" font-size="14.00">HashingProvider </text>
</g>
<!-- AuthModule&#45;&gt;HashingProvider  -->
<g id="edge8" class="edge">
<title>AuthModule&#45;&gt;HashingProvider </title>
<path fill="none" stroke="black" stroke-dasharray="5,2" d="M1093.32,-184C1066.04,-184 1036.07,-184 1036.07,-184 1036.07,-184 1036.07,-205.95 1036.07,-205.95"/>
<polygon fill="black" stroke="black" points="1032.57,-205.95 1036.07,-215.95 1039.57,-205.95 1032.57,-205.95"/>
</g>
<!-- TenantValidationProvider  -->
<g id="node10" class="node">
<title>TenantValidationProvider </title>
<polygon fill="#fb8072" stroke="black" points="909.68,-252 744.32,-252 744.32,-216 909.68,-216 909.68,-252"/>
<text text-anchor="middle" x="827" y="-229.8" font-family="Times,serif" font-size="14.00">TenantValidationProvider </text>
</g>
<!-- AuthModule&#45;&gt;TenantValidationProvider  -->
<g id="edge9" class="edge">
<title>AuthModule&#45;&gt;TenantValidationProvider </title>
<path fill="none" stroke="black" stroke-dasharray="5,2" d="M1093.25,-180C1014.51,-180 857.02,-180 857.02,-180 857.02,-180 857.02,-205.72 857.02,-205.72"/>
<polygon fill="black" stroke="black" points="853.52,-205.72 857.02,-215.72 860.52,-205.72 853.52,-205.72"/>
</g>
<!-- TokenProvider  -->
<g id="node11" class="node">
<title>TokenProvider </title>
<polygon fill="#fb8072" stroke="black" points="725.98,-252 622.02,-252 622.02,-216 725.98,-216 725.98,-252"/>
<text text-anchor="middle" x="674" y="-229.8" font-family="Times,serif" font-size="14.00">TokenProvider </text>
</g>
<!-- AuthModule&#45;&gt;TokenProvider  -->
<g id="edge10" class="edge">
<title>AuthModule&#45;&gt;TokenProvider </title>
<path fill="none" stroke="black" stroke-dasharray="5,2" d="M1093.44,-177C978.18,-177 674,-177 674,-177 674,-177 674,-205.96 674,-205.96"/>
<polygon fill="black" stroke="black" points="670.5,-205.96 674,-215.96 677.5,-205.96 670.5,-205.96"/>
</g>
<!-- AuthService -->
<g id="node12" class="node">
<title>AuthService</title>
<ellipse fill="#fdb462" stroke="black" cx="1720" cy="-104" rx="59.11" ry="18"/>
<text text-anchor="middle" x="1720" y="-99.8" font-family="Times,serif" font-size="14.00">AuthService</text>
</g>
<!-- AuthService&#45;&gt;AuthModule -->
<g id="edge11" class="edge">
<title>AuthService&#45;&gt;AuthModule</title>
<path fill="none" stroke="black" d="M1720,-122.03C1720,-139.06 1720,-162 1720,-162 1720,-162 1190.82,-162 1190.82,-162"/>
<polygon fill="black" stroke="black" points="1190.82,-158.5 1180.82,-162 1190.82,-165.5 1190.82,-158.5"/>
</g>
<!-- BcryptProvider -->
<g id="node13" class="node">
<title>BcryptProvider</title>
<ellipse fill="#fdb462" stroke="black" cx="1572" cy="-104" rx="70.65" ry="18"/>
<text text-anchor="middle" x="1572" y="-99.8" font-family="Times,serif" font-size="14.00">BcryptProvider</text>
</g>
<!-- BcryptProvider&#45;&gt;AuthModule -->
<g id="edge12" class="edge">
<title>BcryptProvider&#45;&gt;AuthModule</title>
<path fill="none" stroke="black" d="M1542.93,-120.5C1542.93,-136.7 1542.93,-159 1542.93,-159 1542.93,-159 1190.83,-159 1190.83,-159"/>
<polygon fill="black" stroke="black" points="1190.83,-155.5 1180.83,-159 1190.83,-162.5 1190.83,-155.5"/>
</g>
<!-- ChangePasswordProvider -->
<g id="node14" class="node">
<title>ChangePasswordProvider</title>
<ellipse fill="#fdb462" stroke="black" cx="1373" cy="-104" rx="110.6" ry="18"/>
<text text-anchor="middle" x="1373" y="-99.8" font-family="Times,serif" font-size="14.00">ChangePasswordProvider</text>
</g>
<!-- ChangePasswordProvider&#45;&gt;AuthModule -->
<g id="edge13" class="edge">
<title>ChangePasswordProvider&#45;&gt;AuthModule</title>
<path fill="none" stroke="black" d="M1316.02,-119.58C1316.02,-134.58 1316.02,-155 1316.02,-155 1316.02,-155 1190.79,-155 1190.79,-155"/>
<polygon fill="black" stroke="black" points="1190.79,-151.5 1180.79,-155 1190.79,-158.5 1190.79,-151.5"/>
</g>
<!-- ForgotPasswordProvider -->
<g id="node15" class="node">
<title>ForgotPasswordProvider</title>
<ellipse fill="#fdb462" stroke="black" cx="1137" cy="-104" rx="107.1" ry="18"/>
<text text-anchor="middle" x="1137" y="-99.8" font-family="Times,serif" font-size="14.00">ForgotPasswordProvider</text>
</g>
<!-- ForgotPasswordProvider&#45;&gt;AuthModule -->
<g id="edge14" class="edge">
<title>ForgotPasswordProvider&#45;&gt;AuthModule</title>
<path fill="none" stroke="black" d="M1137,-122.11C1137,-122.11 1137,-140.99 1137,-140.99"/>
<polygon fill="black" stroke="black" points="1133.5,-140.99 1137,-150.99 1140.5,-140.99 1133.5,-140.99"/>
</g>
<!-- GenerateTokenProvider -->
<g id="node16" class="node">
<title>GenerateTokenProvider</title>
<ellipse fill="#fdb462" stroke="black" cx="908" cy="-104" rx="103.61" ry="18"/>
<text text-anchor="middle" x="908" y="-99.8" font-family="Times,serif" font-size="14.00">GenerateTokenProvider</text>
</g>
<!-- GenerateTokenProvider&#45;&gt;AuthModule -->
<g id="edge15" class="edge">
<title>GenerateTokenProvider&#45;&gt;AuthModule</title>
<path fill="none" stroke="black" d="M969.81,-118.48C969.81,-133.56 969.81,-155 969.81,-155 969.81,-155 1083.07,-155 1083.07,-155"/>
<polygon fill="black" stroke="black" points="1083.07,-158.5 1093.07,-155 1083.07,-151.5 1083.07,-158.5"/>
</g>
<!-- RefreshTokensProvider -->
<g id="node17" class="node">
<title>RefreshTokensProvider</title>
<ellipse fill="#fdb462" stroke="black" cx="683" cy="-104" rx="102.99" ry="18"/>
<text text-anchor="middle" x="683" y="-99.8" font-family="Times,serif" font-size="14.00">RefreshTokensProvider</text>
</g>
<!-- RefreshTokensProvider&#45;&gt;AuthModule -->
<g id="edge16" class="edge">
<title>RefreshTokensProvider&#45;&gt;AuthModule</title>
<path fill="none" stroke="black" d="M764.95,-114.87C764.95,-130.89 764.95,-159 764.95,-159 764.95,-159 1083.23,-159 1083.23,-159"/>
<polygon fill="black" stroke="black" points="1083.23,-162.5 1093.23,-159 1083.23,-155.5 1083.23,-162.5"/>
</g>
<!-- SignInProvider -->
<g id="node18" class="node">
<title>SignInProvider</title>
<ellipse fill="#fdb462" stroke="black" cx="492" cy="-104" rx="70.08" ry="18"/>
<text text-anchor="middle" x="492" y="-99.8" font-family="Times,serif" font-size="14.00">SignInProvider</text>
</g>
<!-- SignInProvider&#45;&gt;AuthModule -->
<g id="edge17" class="edge">
<title>SignInProvider&#45;&gt;AuthModule</title>
<path fill="none" stroke="black" d="M468.65,-121.27C468.65,-139.62 468.65,-166 468.65,-166 468.65,-166 1083.41,-166 1083.41,-166"/>
<polygon fill="black" stroke="black" points="1083.41,-169.5 1093.41,-166 1083.41,-162.5 1083.41,-169.5"/>
</g>
<!-- SignInProvider&#45;&gt;AuthModule -->
<g id="edge18" class="edge">
<title>SignInProvider&#45;&gt;AuthModule</title>
<path fill="none" stroke="black" d="M515.35,-121.09C515.35,-138.2 515.35,-162 515.35,-162 515.35,-162 1083.29,-162 1083.29,-162"/>
<polygon fill="black" stroke="black" points="1083.29,-165.5 1093.29,-162 1083.29,-158.5 1083.29,-165.5"/>
</g>
<!-- TenantValidationProvider -->
<g id="node19" class="node">
<title>TenantValidationProvider</title>
<ellipse fill="#fdb462" stroke="black" cx="292" cy="-104" rx="111.74" ry="18"/>
<text text-anchor="middle" x="292" y="-99.8" font-family="Times,serif" font-size="14.00">TenantValidationProvider</text>
</g>
<!-- TenantValidationProvider&#45;&gt;AuthModule -->
<g id="edge19" class="edge">
<title>TenantValidationProvider&#45;&gt;AuthModule</title>
<path fill="none" stroke="black" d="M292,-122.11C292,-141.34 292,-169 292,-169 292,-169 1083.35,-169 1083.35,-169"/>
<polygon fill="black" stroke="black" points="1083.35,-172.5 1093.35,-169 1083.35,-165.5 1083.35,-172.5"/>
</g>
<!-- TokenProvider -->
<g id="node20" class="node">
<title>TokenProvider</title>
<ellipse fill="#fdb462" stroke="black" cx="93" cy="-104" rx="68.92" ry="18"/>
<text text-anchor="middle" x="93" y="-99.8" font-family="Times,serif" font-size="14.00">TokenProvider</text>
</g>
<!-- TokenProvider&#45;&gt;AuthModule -->
<g id="edge20" class="edge">
<title>TokenProvider&#45;&gt;AuthModule</title>
<path fill="none" stroke="black" d="M93,-122.13C93,-142.57 93,-173 93,-173 93,-173 1083.14,-173 1083.14,-173"/>
<polygon fill="black" stroke="black" points="1083.14,-176.5 1093.14,-173 1083.14,-169.5 1083.14,-176.5"/>
</g>
</g>
</svg>
