<?xml version="1.0" encoding="UTF-8" standalone="no"?>
<!DOCTYPE svg PUBLIC "-//W3C//DTD SVG 1.1//EN"
 "http://www.w3.org/Graphics/SVG/1.1/DTD/svg11.dtd">
<!-- Generated by graphviz version 2.47.0 (20210316.0004)
 -->
<!-- Title: dependencies Pages: 1 -->
<svg width="968pt" height="211pt"
 viewBox="0.00 0.00 968.00 211.00" xmlns="http://www.w3.org/2000/svg" xmlns:xlink="http://www.w3.org/1999/xlink">
<g id="graph0" class="graph" transform="scale(1 1) rotate(0) translate(4 207)">
<title>dependencies</title>
<polygon fill="white" stroke="transparent" points="-4,4 -4,-207 964,-207 964,4 -4,4"/>
<text text-anchor="start" x="459.01" y="-42.4" font-family="Times-12" font-weight="bold" font-size="14.00">Legend</text>
<polygon fill="#ffffb3" stroke="transparent" points="246,-10 246,-30 266,-30 266,-10 246,-10"/>
<text text-anchor="start" x="269.63" y="-15.4" font-family="Times-12" font-size="14.00"> &#160;Declarations</text>
<polygon fill="#8dd3c7" stroke="transparent" points="359,-10 359,-30 379,-30 379,-10 359,-10"/>
<text text-anchor="start" x="382.73" y="-15.4" font-family="Times-12" font-size="14.00"> &#160;Module</text>
<polygon fill="#80b1d3" stroke="transparent" points="445,-10 445,-30 465,-30 465,-10 445,-10"/>
<text text-anchor="start" x="468.78" y="-15.4" font-family="Times-12" font-size="14.00"> &#160;Bootstrap</text>
<polygon fill="#fdb462" stroke="transparent" points="542,-10 542,-30 562,-30 562,-10 542,-10"/>
<text text-anchor="start" x="565.67" y="-15.4" font-family="Times-12" font-size="14.00"> &#160;Providers</text>
<polygon fill="#fb8072" stroke="transparent" points="638,-10 638,-30 658,-30 658,-10 638,-10"/>
<text text-anchor="start" x="661.73" y="-15.4" font-family="Times-12" font-size="14.00"> &#160;Exports</text>
<g id="clust1" class="cluster">
<title>cluster_StaffModule</title>
<polygon fill="none" stroke="black" stroke-dasharray="1,5" points="8,-70 8,-195 952,-195 952,-70 8,-70"/>
</g>
<g id="clust6" class="cluster">
<title>cluster_StaffModule_providers</title>
<polygon fill="none" stroke="black" points="810,-78 810,-130 944,-130 944,-78 810,-78"/>
</g>
<g id="clust3" class="cluster">
<title>cluster_StaffModule_imports</title>
<polygon fill="none" stroke="black" points="16,-78 16,-130 802,-130 802,-78 16,-78"/>
</g>
<!-- AuthModule -->
<g id="node1" class="node">
<title>AuthModule</title>
<polygon fill="#8dd3c7" stroke="black" points="793.55,-122 790.55,-126 769.55,-126 766.55,-122 706.45,-122 706.45,-86 793.55,-86 793.55,-122"/>
<text text-anchor="middle" x="750" y="-99.8" font-family="Times,serif" font-size="14.00">AuthModule</text>
</g>
<!-- StaffModule -->
<g id="node7" class="node">
<title>StaffModule</title>
<polygon fill="#8dd3c7" stroke="black" points="564.26,-187 561.26,-191 540.26,-191 537.26,-187 477.74,-187 477.74,-151 564.26,-151 564.26,-187"/>
<text text-anchor="middle" x="521" y="-164.8" font-family="Times,serif" font-size="14.00">StaffModule</text>
</g>
<!-- AuthModule&#45;&gt;StaffModule -->
<g id="edge1" class="edge">
<title>AuthModule&#45;&gt;StaffModule</title>
<path fill="none" stroke="black" d="M750,-122.11C750,-141.34 750,-169 750,-169 750,-169 574.34,-169 574.34,-169"/>
<polygon fill="black" stroke="black" points="574.34,-165.5 564.34,-169 574.34,-172.5 574.34,-165.5"/>
</g>
<!-- EmailModule -->
<g id="node2" class="node">
<title>EmailModule</title>
<polygon fill="#8dd3c7" stroke="black" points="688.49,-122 685.49,-126 664.49,-126 661.49,-122 595.51,-122 595.51,-86 688.49,-86 688.49,-122"/>
<text text-anchor="middle" x="642" y="-99.8" font-family="Times,serif" font-size="14.00">EmailModule</text>
</g>
<!-- EmailModule&#45;&gt;StaffModule -->
<g id="edge2" class="edge">
<title>EmailModule&#45;&gt;StaffModule</title>
<path fill="none" stroke="black" d="M642,-122.03C642,-138.4 642,-160 642,-160 642,-160 574.34,-160 574.34,-160"/>
<polygon fill="black" stroke="black" points="574.34,-156.5 564.34,-160 574.34,-163.5 574.34,-156.5"/>
</g>
<!-- InvitationModule -->
<g id="node3" class="node">
<title>InvitationModule</title>
<polygon fill="#8dd3c7" stroke="black" points="577.99,-122 574.99,-126 553.99,-126 550.99,-122 464.01,-122 464.01,-86 577.99,-86 577.99,-122"/>
<text text-anchor="middle" x="521" y="-99.8" font-family="Times,serif" font-size="14.00">InvitationModule</text>
</g>
<!-- InvitationModule&#45;&gt;StaffModule -->
<g id="edge3" class="edge">
<title>InvitationModule&#45;&gt;StaffModule</title>
<path fill="none" stroke="black" d="M521,-122.11C521,-122.11 521,-140.99 521,-140.99"/>
<polygon fill="black" stroke="black" points="517.5,-140.99 521,-150.99 524.5,-140.99 517.5,-140.99"/>
</g>
<!-- TenantsModule -->
<g id="node4" class="node">
<title>TenantsModule</title>
<polygon fill="#8dd3c7" stroke="black" points="445.87,-122 442.87,-126 421.87,-126 418.87,-122 342.13,-122 342.13,-86 445.87,-86 445.87,-122"/>
<text text-anchor="middle" x="394" y="-99.8" font-family="Times,serif" font-size="14.00">TenantsModule</text>
</g>
<!-- TenantsModule&#45;&gt;StaffModule -->
<g id="edge4" class="edge">
<title>TenantsModule&#45;&gt;StaffModule</title>
<path fill="none" stroke="black" d="M394,-122.03C394,-138.4 394,-160 394,-160 394,-160 467.65,-160 467.65,-160"/>
<polygon fill="black" stroke="black" points="467.65,-163.5 477.65,-160 467.65,-156.5 467.65,-163.5"/>
</g>
<!-- UserModule -->
<g id="node5" class="node">
<title>UserModule</title>
<polygon fill="#8dd3c7" stroke="black" points="323.98,-122 320.98,-126 299.98,-126 296.98,-122 238.02,-122 238.02,-86 323.98,-86 323.98,-122"/>
<text text-anchor="middle" x="281" y="-99.8" font-family="Times,serif" font-size="14.00">UserModule</text>
</g>
<!-- UserModule&#45;&gt;StaffModule -->
<g id="edge5" class="edge">
<title>UserModule&#45;&gt;StaffModule</title>
<path fill="none" stroke="black" d="M281,-122.11C281,-141.34 281,-169 281,-169 281,-169 467.54,-169 467.54,-169"/>
<polygon fill="black" stroke="black" points="467.54,-172.5 477.54,-169 467.54,-165.5 467.54,-172.5"/>
</g>
<!-- UserTenantMembershipModule -->
<g id="node6" class="node">
<title>UserTenantMembershipModule</title>
<polygon fill="#8dd3c7" stroke="black" points="219.61,-122 216.61,-126 195.61,-126 192.61,-122 24.39,-122 24.39,-86 219.61,-86 219.61,-122"/>
<text text-anchor="middle" x="122" y="-99.8" font-family="Times,serif" font-size="14.00">UserTenantMembershipModule</text>
</g>
<!-- UserTenantMembershipModule&#45;&gt;StaffModule -->
<g id="edge6" class="edge">
<title>UserTenantMembershipModule&#45;&gt;StaffModule</title>
<path fill="none" stroke="black" d="M122,-122.29C122,-144.21 122,-178 122,-178 122,-178 467.54,-178 467.54,-178"/>
<polygon fill="black" stroke="black" points="467.54,-181.5 477.54,-178 467.54,-174.5 467.54,-181.5"/>
</g>
<!-- StaffService -->
<g id="node8" class="node">
<title>StaffService</title>
<ellipse fill="#fdb462" stroke="black" cx="877" cy="-104" rx="58.52" ry="18"/>
<text text-anchor="middle" x="877" y="-99.8" font-family="Times,serif" font-size="14.00">StaffService</text>
</g>
<!-- StaffService&#45;&gt;StaffModule -->
<g id="edge7" class="edge">
<title>StaffService&#45;&gt;StaffModule</title>
<path fill="none" stroke="black" d="M877,-122.29C877,-144.21 877,-178 877,-178 877,-178 574.3,-178 574.3,-178"/>
<polygon fill="black" stroke="black" points="574.3,-174.5 564.3,-178 574.3,-181.5 574.3,-174.5"/>
</g>
</g>
</svg>
