<?xml version="1.0" encoding="UTF-8" standalone="no"?>
<!DOCTYPE svg PUBLIC "-//W3C//DTD SVG 1.1//EN"
 "http://www.w3.org/Graphics/SVG/1.1/DTD/svg11.dtd">
<!-- Generated by graphviz version 2.47.0 (20210316.0004)
 -->
<!-- Title: dependencies Pages: 1 -->
<svg width="1533pt" height="211pt"
 viewBox="0.00 0.00 1533.00 211.00" xmlns="http://www.w3.org/2000/svg" xmlns:xlink="http://www.w3.org/1999/xlink">
<g id="graph0" class="graph" transform="scale(1 1) rotate(0) translate(4 207)">
<title>dependencies</title>
<polygon fill="white" stroke="transparent" points="-4,4 -4,-207 1529,-207 1529,4 -4,4"/>
<text text-anchor="start" x="741.51" y="-42.4" font-family="Times-12" font-weight="bold" font-size="14.00">Legend</text>
<polygon fill="#ffffb3" stroke="transparent" points="528.5,-10 528.5,-30 548.5,-30 548.5,-10 528.5,-10"/>
<text text-anchor="start" x="552.13" y="-15.4" font-family="Times-12" font-size="14.00"> &#160;Declarations</text>
<polygon fill="#8dd3c7" stroke="transparent" points="641.5,-10 641.5,-30 661.5,-30 661.5,-10 641.5,-10"/>
<text text-anchor="start" x="665.23" y="-15.4" font-family="Times-12" font-size="14.00"> &#160;Module</text>
<polygon fill="#80b1d3" stroke="transparent" points="727.5,-10 727.5,-30 747.5,-30 747.5,-10 727.5,-10"/>
<text text-anchor="start" x="751.28" y="-15.4" font-family="Times-12" font-size="14.00"> &#160;Bootstrap</text>
<polygon fill="#fdb462" stroke="transparent" points="824.5,-10 824.5,-30 844.5,-30 844.5,-10 824.5,-10"/>
<text text-anchor="start" x="848.17" y="-15.4" font-family="Times-12" font-size="14.00"> &#160;Providers</text>
<polygon fill="#fb8072" stroke="transparent" points="920.5,-10 920.5,-30 940.5,-30 940.5,-10 920.5,-10"/>
<text text-anchor="start" x="944.23" y="-15.4" font-family="Times-12" font-size="14.00"> &#160;Exports</text>
<g id="clust1" class="cluster">
<title>cluster_StudentModule</title>
<polygon fill="none" stroke="black" stroke-dasharray="1,5" points="8,-70 8,-195 1517,-195 1517,-70 8,-70"/>
</g>
<g id="clust3" class="cluster">
<title>cluster_StudentModule_imports</title>
<polygon fill="none" stroke="black" points="892,-78 892,-130 1509,-130 1509,-78 892,-78"/>
</g>
<g id="clust6" class="cluster">
<title>cluster_StudentModule_providers</title>
<polygon fill="none" stroke="black" points="16,-78 16,-130 884,-130 884,-78 16,-78"/>
</g>
<!-- AuthModule -->
<g id="node1" class="node">
<title>AuthModule</title>
<polygon fill="#8dd3c7" stroke="black" points="1500.55,-122 1497.55,-126 1476.55,-126 1473.55,-122 1413.45,-122 1413.45,-86 1500.55,-86 1500.55,-122"/>
<text text-anchor="middle" x="1457" y="-99.8" font-family="Times,serif" font-size="14.00">AuthModule</text>
</g>
<!-- StudentModule -->
<g id="node5" class="node">
<title>StudentModule</title>
<polygon fill="#8dd3c7" stroke="black" points="939.33,-187 936.33,-191 915.33,-191 912.33,-187 836.67,-187 836.67,-151 939.33,-151 939.33,-187"/>
<text text-anchor="middle" x="888" y="-164.8" font-family="Times,serif" font-size="14.00">StudentModule</text>
</g>
<!-- AuthModule&#45;&gt;StudentModule -->
<g id="edge1" class="edge">
<title>AuthModule&#45;&gt;StudentModule</title>
<path fill="none" stroke="black" d="M1457,-122.29C1457,-144.21 1457,-178 1457,-178 1457,-178 949.25,-178 949.25,-178"/>
<polygon fill="black" stroke="black" points="949.25,-174.5 939.25,-178 949.25,-181.5 949.25,-174.5"/>
</g>
<!-- SchoolConfigModule -->
<g id="node2" class="node">
<title>SchoolConfigModule</title>
<polygon fill="#8dd3c7" stroke="black" points="1395.83,-122 1392.83,-126 1371.83,-126 1368.83,-122 1258.17,-122 1258.17,-86 1395.83,-86 1395.83,-122"/>
<text text-anchor="middle" x="1327" y="-99.8" font-family="Times,serif" font-size="14.00">SchoolConfigModule</text>
</g>
<!-- SchoolConfigModule&#45;&gt;StudentModule -->
<g id="edge2" class="edge">
<title>SchoolConfigModule&#45;&gt;StudentModule</title>
<path fill="none" stroke="black" d="M1327,-122.11C1327,-141.34 1327,-169 1327,-169 1327,-169 949.22,-169 949.22,-169"/>
<polygon fill="black" stroke="black" points="949.22,-165.5 939.22,-169 949.22,-172.5 949.22,-165.5"/>
</g>
<!-- SchoolTypeModule -->
<g id="node3" class="node">
<title>SchoolTypeModule</title>
<polygon fill="#8dd3c7" stroke="black" points="1240.7,-122 1237.7,-126 1216.7,-126 1213.7,-122 1113.3,-122 1113.3,-86 1240.7,-86 1240.7,-122"/>
<text text-anchor="middle" x="1177" y="-99.8" font-family="Times,serif" font-size="14.00">SchoolTypeModule</text>
</g>
<!-- SchoolTypeModule&#45;&gt;StudentModule -->
<g id="edge3" class="edge">
<title>SchoolTypeModule&#45;&gt;StudentModule</title>
<path fill="none" stroke="black" d="M1177,-122.03C1177,-138.4 1177,-160 1177,-160 1177,-160 949.33,-160 949.33,-160"/>
<polygon fill="black" stroke="black" points="949.33,-156.5 939.33,-160 949.33,-163.5 949.33,-156.5"/>
</g>
<!-- UserTenantMembershipModule -->
<g id="node4" class="node">
<title>UserTenantMembershipModule</title>
<polygon fill="#8dd3c7" stroke="black" points="1095.61,-122 1092.61,-126 1071.61,-126 1068.61,-122 900.39,-122 900.39,-86 1095.61,-86 1095.61,-122"/>
<text text-anchor="middle" x="998" y="-99.8" font-family="Times,serif" font-size="14.00">UserTenantMembershipModule</text>
</g>
<!-- UserTenantMembershipModule&#45;&gt;StudentModule -->
<g id="edge4" class="edge">
<title>UserTenantMembershipModule&#45;&gt;StudentModule</title>
<path fill="none" stroke="black" d="M919.68,-122.11C919.68,-122.11 919.68,-140.99 919.68,-140.99"/>
<polygon fill="black" stroke="black" points="916.18,-140.99 919.68,-150.99 923.18,-140.99 916.18,-140.99"/>
</g>
<!-- StudentQueryProvider -->
<g id="node6" class="node">
<title>StudentQueryProvider</title>
<ellipse fill="#fdb462" stroke="black" cx="778" cy="-104" rx="97.86" ry="18"/>
<text text-anchor="middle" x="778" y="-99.8" font-family="Times,serif" font-size="14.00">StudentQueryProvider</text>
</g>
<!-- StudentQueryProvider&#45;&gt;StudentModule -->
<g id="edge5" class="edge">
<title>StudentQueryProvider&#45;&gt;StudentModule</title>
<path fill="none" stroke="black" d="M856.38,-115.03C856.38,-115.03 856.38,-140.78 856.38,-140.78"/>
<polygon fill="black" stroke="black" points="852.88,-140.78 856.38,-150.78 859.88,-140.78 852.88,-140.78"/>
</g>
<!-- StudentSummaryService -->
<g id="node7" class="node">
<title>StudentSummaryService</title>
<ellipse fill="#fdb462" stroke="black" cx="555" cy="-104" rx="107.1" ry="18"/>
<text text-anchor="middle" x="555" y="-99.8" font-family="Times,serif" font-size="14.00">StudentSummaryService</text>
</g>
<!-- StudentSummaryService&#45;&gt;StudentModule -->
<g id="edge6" class="edge">
<title>StudentSummaryService&#45;&gt;StudentModule</title>
<path fill="none" stroke="black" d="M555,-122.03C555,-138.4 555,-160 555,-160 555,-160 826.7,-160 826.7,-160"/>
<polygon fill="black" stroke="black" points="826.7,-163.5 836.7,-160 826.7,-156.5 826.7,-163.5"/>
</g>
<!-- StudentsService -->
<g id="node8" class="node">
<title>StudentsService</title>
<ellipse fill="#fdb462" stroke="black" cx="357" cy="-104" rx="73.01" ry="18"/>
<text text-anchor="middle" x="357" y="-99.8" font-family="Times,serif" font-size="14.00">StudentsService</text>
</g>
<!-- StudentsService&#45;&gt;StudentModule -->
<g id="edge7" class="edge">
<title>StudentsService&#45;&gt;StudentModule</title>
<path fill="none" stroke="black" d="M357,-122.11C357,-141.34 357,-169 357,-169 357,-169 826.6,-169 826.6,-169"/>
<polygon fill="black" stroke="black" points="826.6,-172.5 836.6,-169 826.6,-165.5 826.6,-172.5"/>
</g>
<!-- UsersCreateStudentProvider -->
<g id="node9" class="node">
<title>UsersCreateStudentProvider</title>
<ellipse fill="#fdb462" stroke="black" cx="145" cy="-104" rx="120.96" ry="18"/>
<text text-anchor="middle" x="145" y="-99.8" font-family="Times,serif" font-size="14.00">UsersCreateStudentProvider</text>
</g>
<!-- UsersCreateStudentProvider&#45;&gt;StudentModule -->
<g id="edge8" class="edge">
<title>UsersCreateStudentProvider&#45;&gt;StudentModule</title>
<path fill="none" stroke="black" d="M145,-122.29C145,-144.21 145,-178 145,-178 145,-178 826.64,-178 826.64,-178"/>
<polygon fill="black" stroke="black" points="826.64,-181.5 836.64,-178 826.64,-174.5 826.64,-181.5"/>
</g>
</g>
</svg>
