<?xml version="1.0" encoding="UTF-8" standalone="no"?>
<!DOCTYPE svg PUBLIC "-//W3C//DTD SVG 1.1//EN"
 "http://www.w3.org/Graphics/SVG/1.1/DTD/svg11.dtd">
<!-- Generated by graphviz version 2.47.0 (20210316.0004)
 -->
<!-- Title: dependencies Pages: 1 -->
<svg width="504pt" height="211pt"
 viewBox="0.00 0.00 504.00 211.00" xmlns="http://www.w3.org/2000/svg" xmlns:xlink="http://www.w3.org/1999/xlink">
<g id="graph0" class="graph" transform="scale(1 1) rotate(0) translate(4 207)">
<title>dependencies</title>
<polygon fill="white" stroke="transparent" points="-4,4 -4,-207 500,-207 500,4 -4,4"/>
<text text-anchor="start" x="227.01" y="-42.4" font-family="Times-12" font-weight="bold" font-size="14.00">Legend</text>
<polygon fill="#ffffb3" stroke="transparent" points="14,-10 14,-30 34,-30 34,-10 14,-10"/>
<text text-anchor="start" x="37.63" y="-15.4" font-family="Times-12" font-size="14.00"> &#160;Declarations</text>
<polygon fill="#8dd3c7" stroke="transparent" points="127,-10 127,-30 147,-30 147,-10 127,-10"/>
<text text-anchor="start" x="150.73" y="-15.4" font-family="Times-12" font-size="14.00"> &#160;Module</text>
<polygon fill="#80b1d3" stroke="transparent" points="213,-10 213,-30 233,-30 233,-10 213,-10"/>
<text text-anchor="start" x="236.78" y="-15.4" font-family="Times-12" font-size="14.00"> &#160;Bootstrap</text>
<polygon fill="#fdb462" stroke="transparent" points="310,-10 310,-30 330,-30 330,-10 310,-10"/>
<text text-anchor="start" x="333.67" y="-15.4" font-family="Times-12" font-size="14.00"> &#160;Providers</text>
<polygon fill="#fb8072" stroke="transparent" points="406,-10 406,-30 426,-30 426,-10 406,-10"/>
<text text-anchor="start" x="429.73" y="-15.4" font-family="Times-12" font-size="14.00"> &#160;Exports</text>
<g id="clust1" class="cluster">
<title>cluster_UserTenantMembershipModule</title>
<polygon fill="none" stroke="black" stroke-dasharray="1,5" points="102,-70 102,-195 394,-195 394,-70 102,-70"/>
</g>
<g id="clust3" class="cluster">
<title>cluster_UserTenantMembershipModule_imports</title>
<polygon fill="none" stroke="black" points="110,-78 110,-130 386,-130 386,-78 110,-78"/>
</g>
<!-- OrganizationsModule -->
<g id="node1" class="node">
<title>OrganizationsModule</title>
<polygon fill="#8dd3c7" stroke="black" points="378.08,-122 375.08,-126 354.08,-126 351.08,-122 239.92,-122 239.92,-86 378.08,-86 378.08,-122"/>
<text text-anchor="middle" x="309" y="-99.8" font-family="Times,serif" font-size="14.00">OrganizationsModule</text>
</g>
<!-- UserTenantMembershipModule -->
<g id="node3" class="node">
<title>UserTenantMembershipModule</title>
<polygon fill="#8dd3c7" stroke="black" points="345.61,-187 342.61,-191 321.61,-191 318.61,-187 150.39,-187 150.39,-151 345.61,-151 345.61,-187"/>
<text text-anchor="middle" x="248" y="-164.8" font-family="Times,serif" font-size="14.00">UserTenantMembershipModule</text>
</g>
<!-- OrganizationsModule&#45;&gt;UserTenantMembershipModule -->
<g id="edge1" class="edge">
<title>OrganizationsModule&#45;&gt;UserTenantMembershipModule</title>
<path fill="none" stroke="black" d="M292.88,-122.11C292.88,-122.11 292.88,-140.99 292.88,-140.99"/>
<polygon fill="black" stroke="black" points="289.38,-140.99 292.88,-150.99 296.38,-140.99 289.38,-140.99"/>
</g>
<!-- SchoolsModule -->
<g id="node2" class="node">
<title>SchoolsModule</title>
<polygon fill="#8dd3c7" stroke="black" points="221.88,-122 218.88,-126 197.88,-126 194.88,-122 118.12,-122 118.12,-86 221.88,-86 221.88,-122"/>
<text text-anchor="middle" x="170" y="-99.8" font-family="Times,serif" font-size="14.00">SchoolsModule</text>
</g>
<!-- SchoolsModule&#45;&gt;UserTenantMembershipModule -->
<g id="edge2" class="edge">
<title>SchoolsModule&#45;&gt;UserTenantMembershipModule</title>
<path fill="none" stroke="black" d="M186.07,-122.11C186.07,-122.11 186.07,-140.99 186.07,-140.99"/>
<polygon fill="black" stroke="black" points="182.57,-140.99 186.07,-150.99 189.57,-140.99 182.57,-140.99"/>
</g>
</g>
</svg>
