<?xml version="1.0" encoding="UTF-8" standalone="no"?>
<!DOCTYPE svg PUBLIC "-//W3C//DTD SVG 1.1//EN"
 "http://www.w3.org/Graphics/SVG/1.1/DTD/svg11.dtd">
<!-- Generated by graphviz version 2.47.0 (20210316.0004)
 -->
<!-- Title: dependencies Pages: 1 -->
<svg width="718pt" height="284pt"
 viewBox="0.00 0.00 718.00 284.00" xmlns="http://www.w3.org/2000/svg" xmlns:xlink="http://www.w3.org/1999/xlink">
<g id="graph0" class="graph" transform="scale(1 1) rotate(0) translate(4 280)">
<title>dependencies</title>
<polygon fill="white" stroke="transparent" points="-4,4 -4,-280 714,-280 714,4 -4,4"/>
<text text-anchor="start" x="334.01" y="-42.4" font-family="Times-12" font-weight="bold" font-size="14.00">Legend</text>
<polygon fill="#ffffb3" stroke="transparent" points="121,-10 121,-30 141,-30 141,-10 121,-10"/>
<text text-anchor="start" x="144.63" y="-15.4" font-family="Times-12" font-size="14.00"> &#160;Declarations</text>
<polygon fill="#8dd3c7" stroke="transparent" points="234,-10 234,-30 254,-30 254,-10 234,-10"/>
<text text-anchor="start" x="257.73" y="-15.4" font-family="Times-12" font-size="14.00"> &#160;Module</text>
<polygon fill="#80b1d3" stroke="transparent" points="320,-10 320,-30 340,-30 340,-10 320,-10"/>
<text text-anchor="start" x="343.78" y="-15.4" font-family="Times-12" font-size="14.00"> &#160;Bootstrap</text>
<polygon fill="#fdb462" stroke="transparent" points="417,-10 417,-30 437,-30 437,-10 417,-10"/>
<text text-anchor="start" x="440.67" y="-15.4" font-family="Times-12" font-size="14.00"> &#160;Providers</text>
<polygon fill="#fb8072" stroke="transparent" points="513,-10 513,-30 533,-30 533,-10 513,-10"/>
<text text-anchor="start" x="536.73" y="-15.4" font-family="Times-12" font-size="14.00"> &#160;Exports</text>
<g id="clust1" class="cluster">
<title>cluster_SubjectModule</title>
<polygon fill="none" stroke="black" stroke-dasharray="1,5" points="8,-70 8,-268 702,-268 702,-70 8,-70"/>
</g>
<g id="clust3" class="cluster">
<title>cluster_SubjectModule_imports</title>
<polygon fill="none" stroke="black" points="550,-78 550,-130 694,-130 694,-78 550,-78"/>
</g>
<g id="clust6" class="cluster">
<title>cluster_SubjectModule_providers</title>
<polygon fill="none" stroke="black" points="16,-78 16,-130 542,-130 542,-78 16,-78"/>
</g>
<g id="clust4" class="cluster">
<title>cluster_SubjectModule_exports</title>
<polygon fill="none" stroke="black" points="204,-208 204,-260 602,-260 602,-208 204,-208"/>
</g>
<!-- SchoolTypeModule -->
<g id="node1" class="node">
<title>SchoolTypeModule</title>
<polygon fill="#8dd3c7" stroke="black" points="685.7,-122 682.7,-126 661.7,-126 658.7,-122 558.3,-122 558.3,-86 685.7,-86 685.7,-122"/>
<text text-anchor="middle" x="622" y="-99.8" font-family="Times,serif" font-size="14.00">SchoolTypeModule</text>
</g>
<!-- SubjectModule -->
<g id="node2" class="node">
<title>SubjectModule</title>
<polygon fill="#8dd3c7" stroke="black" points="459.54,-187 456.54,-191 435.54,-191 432.54,-187 358.46,-187 358.46,-151 459.54,-151 459.54,-187"/>
<text text-anchor="middle" x="409" y="-164.8" font-family="Times,serif" font-size="14.00">SubjectModule</text>
</g>
<!-- SchoolTypeModule&#45;&gt;SubjectModule -->
<g id="edge1" class="edge">
<title>SchoolTypeModule&#45;&gt;SubjectModule</title>
<path fill="none" stroke="black" d="M575.98,-122.11C575.98,-141.34 575.98,-169 575.98,-169 575.98,-169 469.55,-169 469.55,-169"/>
<polygon fill="black" stroke="black" points="469.55,-165.5 459.55,-169 469.55,-172.5 469.55,-165.5"/>
</g>
<!-- CreateTenantSubjectProvider  -->
<g id="node3" class="node">
<title>CreateTenantSubjectProvider </title>
<polygon fill="#fb8072" stroke="black" points="593.61,-252 408.39,-252 408.39,-216 593.61,-216 593.61,-252"/>
<text text-anchor="middle" x="501" y="-229.8" font-family="Times,serif" font-size="14.00">CreateTenantSubjectProvider </text>
</g>
<!-- SubjectModule&#45;&gt;CreateTenantSubjectProvider  -->
<g id="edge2" class="edge">
<title>SubjectModule&#45;&gt;CreateTenantSubjectProvider </title>
<path fill="none" stroke="black" stroke-dasharray="5,2" d="M434.11,-187.11C434.11,-187.11 434.11,-205.99 434.11,-205.99"/>
<polygon fill="black" stroke="black" points="430.61,-205.99 434.11,-215.99 437.61,-205.99 430.61,-205.99"/>
</g>
<!-- CreateTenantSubjectService  -->
<g id="node4" class="node">
<title>CreateTenantSubjectService </title>
<polygon fill="#fb8072" stroke="black" points="390.37,-252 211.63,-252 211.63,-216 390.37,-216 390.37,-252"/>
<text text-anchor="middle" x="301" y="-229.8" font-family="Times,serif" font-size="14.00">CreateTenantSubjectService </text>
</g>
<!-- SubjectModule&#45;&gt;CreateTenantSubjectService  -->
<g id="edge3" class="edge">
<title>SubjectModule&#45;&gt;CreateTenantSubjectService </title>
<path fill="none" stroke="black" stroke-dasharray="5,2" d="M374.33,-187.11C374.33,-187.11 374.33,-205.99 374.33,-205.99"/>
<polygon fill="black" stroke="black" points="370.83,-205.99 374.33,-215.99 377.83,-205.99 370.83,-205.99"/>
</g>
<!-- CreateTenantSubjectProvider -->
<g id="node5" class="node">
<title>CreateTenantSubjectProvider</title>
<ellipse fill="#fdb462" stroke="black" cx="409" cy="-104" rx="125.04" ry="18"/>
<text text-anchor="middle" x="409" y="-99.8" font-family="Times,serif" font-size="14.00">CreateTenantSubjectProvider</text>
</g>
<!-- CreateTenantSubjectProvider&#45;&gt;SubjectModule -->
<g id="edge4" class="edge">
<title>CreateTenantSubjectProvider&#45;&gt;SubjectModule</title>
<path fill="none" stroke="black" d="M409,-122.11C409,-122.11 409,-140.99 409,-140.99"/>
<polygon fill="black" stroke="black" points="405.5,-140.99 409,-150.99 412.5,-140.99 405.5,-140.99"/>
</g>
<!-- CreateTenantSubjectService -->
<g id="node6" class="node">
<title>CreateTenantSubjectService</title>
<ellipse fill="#fdb462" stroke="black" cx="145" cy="-104" rx="120.94" ry="18"/>
<text text-anchor="middle" x="145" y="-99.8" font-family="Times,serif" font-size="14.00">CreateTenantSubjectService</text>
</g>
<!-- CreateTenantSubjectService&#45;&gt;SubjectModule -->
<g id="edge5" class="edge">
<title>CreateTenantSubjectService&#45;&gt;SubjectModule</title>
<path fill="none" stroke="black" d="M238.77,-115.62C238.77,-134.32 238.77,-169 238.77,-169 238.77,-169 348.39,-169 348.39,-169"/>
<polygon fill="black" stroke="black" points="348.39,-172.5 358.39,-169 348.39,-165.5 348.39,-172.5"/>
</g>
</g>
</svg>
