<?xml version="1.0" encoding="UTF-8" standalone="no"?>
<!DOCTYPE svg PUBLIC "-//W3C//DTD SVG 1.1//EN"
 "http://www.w3.org/Graphics/SVG/1.1/DTD/svg11.dtd">
<!-- Generated by graphviz version 2.47.0 (20210316.0004)
 -->
<!-- Title: dependencies Pages: 1 -->
<svg width="927pt" height="284pt"
 viewBox="0.00 0.00 927.00 284.00" xmlns="http://www.w3.org/2000/svg" xmlns:xlink="http://www.w3.org/1999/xlink">
<g id="graph0" class="graph" transform="scale(1 1) rotate(0) translate(4 280)">
<title>dependencies</title>
<polygon fill="white" stroke="transparent" points="-4,4 -4,-280 923,-280 923,4 -4,4"/>
<text text-anchor="start" x="438.51" y="-42.4" font-family="Times-12" font-weight="bold" font-size="14.00">Legend</text>
<polygon fill="#ffffb3" stroke="transparent" points="225.5,-10 225.5,-30 245.5,-30 245.5,-10 225.5,-10"/>
<text text-anchor="start" x="249.13" y="-15.4" font-family="Times-12" font-size="14.00"> &#160;Declarations</text>
<polygon fill="#8dd3c7" stroke="transparent" points="338.5,-10 338.5,-30 358.5,-30 358.5,-10 338.5,-10"/>
<text text-anchor="start" x="362.23" y="-15.4" font-family="Times-12" font-size="14.00"> &#160;Module</text>
<polygon fill="#80b1d3" stroke="transparent" points="424.5,-10 424.5,-30 444.5,-30 444.5,-10 424.5,-10"/>
<text text-anchor="start" x="448.28" y="-15.4" font-family="Times-12" font-size="14.00"> &#160;Bootstrap</text>
<polygon fill="#fdb462" stroke="transparent" points="521.5,-10 521.5,-30 541.5,-30 541.5,-10 521.5,-10"/>
<text text-anchor="start" x="545.17" y="-15.4" font-family="Times-12" font-size="14.00"> &#160;Providers</text>
<polygon fill="#fb8072" stroke="transparent" points="617.5,-10 617.5,-30 637.5,-30 637.5,-10 617.5,-10"/>
<text text-anchor="start" x="641.23" y="-15.4" font-family="Times-12" font-size="14.00"> &#160;Exports</text>
<g id="clust1" class="cluster">
<title>cluster_LevelModule</title>
<polygon fill="none" stroke="black" stroke-dasharray="1,5" points="8,-70 8,-268 911,-268 911,-70 8,-70"/>
</g>
<g id="clust4" class="cluster">
<title>cluster_LevelModule_exports</title>
<polygon fill="none" stroke="black" points="126,-208 126,-260 684,-260 684,-208 126,-208"/>
</g>
<g id="clust6" class="cluster">
<title>cluster_LevelModule_providers</title>
<polygon fill="none" stroke="black" points="168,-78 168,-130 903,-130 903,-78 168,-78"/>
</g>
<g id="clust3" class="cluster">
<title>cluster_LevelModule_imports</title>
<polygon fill="none" stroke="black" points="16,-78 16,-130 160,-130 160,-78 16,-78"/>
</g>
<!-- SchoolTypeModule -->
<g id="node1" class="node">
<title>SchoolTypeModule</title>
<polygon fill="#8dd3c7" stroke="black" points="151.7,-122 148.7,-126 127.7,-126 124.7,-122 24.3,-122 24.3,-86 151.7,-86 151.7,-122"/>
<text text-anchor="middle" x="88" y="-99.8" font-family="Times,serif" font-size="14.00">SchoolTypeModule</text>
</g>
<!-- LevelModule -->
<g id="node2" class="node">
<title>LevelModule</title>
<polygon fill="#8dd3c7" stroke="black" points="392.92,-187 389.92,-191 368.92,-191 365.92,-187 301.08,-187 301.08,-151 392.92,-151 392.92,-187"/>
<text text-anchor="middle" x="347" y="-164.8" font-family="Times,serif" font-size="14.00">LevelModule</text>
</g>
<!-- SchoolTypeModule&#45;&gt;LevelModule -->
<g id="edge1" class="edge">
<title>SchoolTypeModule&#45;&gt;LevelModule</title>
<path fill="none" stroke="black" d="M142.96,-122.02C142.96,-139.37 142.96,-163 142.96,-163 142.96,-163 291.21,-163 291.21,-163"/>
<polygon fill="black" stroke="black" points="291.21,-166.5 301.21,-163 291.21,-159.5 291.21,-166.5"/>
</g>
<!-- CreateTenantGradeLevelProvider  -->
<g id="node3" class="node">
<title>CreateTenantGradeLevelProvider </title>
<polygon fill="#fb8072" stroke="black" points="675.68,-252 466.32,-252 466.32,-216 675.68,-216 675.68,-252"/>
<text text-anchor="middle" x="571" y="-229.8" font-family="Times,serif" font-size="14.00">CreateTenantGradeLevelProvider </text>
</g>
<!-- LevelModule&#45;&gt;CreateTenantGradeLevelProvider  -->
<g id="edge2" class="edge">
<title>LevelModule&#45;&gt;CreateTenantGradeLevelProvider </title>
<path fill="none" stroke="black" stroke-dasharray="5,2" d="M393.18,-175C447.39,-175 529.99,-175 529.99,-175 529.99,-175 529.99,-205.98 529.99,-205.98"/>
<polygon fill="black" stroke="black" points="526.49,-205.98 529.99,-215.98 533.49,-205.98 526.49,-205.98"/>
</g>
<!-- CreateTenantGradeLevelService  -->
<g id="node4" class="node">
<title>CreateTenantGradeLevelService </title>
<polygon fill="#fb8072" stroke="black" points="448.45,-252 245.55,-252 245.55,-216 448.45,-216 448.45,-252"/>
<text text-anchor="middle" x="347" y="-229.8" font-family="Times,serif" font-size="14.00">CreateTenantGradeLevelService </text>
</g>
<!-- LevelModule&#45;&gt;CreateTenantGradeLevelService  -->
<g id="edge3" class="edge">
<title>LevelModule&#45;&gt;CreateTenantGradeLevelService </title>
<path fill="none" stroke="black" stroke-dasharray="5,2" d="M347,-187.11C347,-187.11 347,-205.99 347,-205.99"/>
<polygon fill="black" stroke="black" points="343.5,-205.99 347,-215.99 350.5,-205.99 343.5,-205.99"/>
</g>
<!-- LevelService  -->
<g id="node5" class="node">
<title>LevelService </title>
<polygon fill="#fb8072" stroke="black" points="227.85,-252 134.15,-252 134.15,-216 227.85,-216 227.85,-252"/>
<text text-anchor="middle" x="181" y="-229.8" font-family="Times,serif" font-size="14.00">LevelService </text>
</g>
<!-- LevelModule&#45;&gt;LevelService  -->
<g id="edge4" class="edge">
<title>LevelModule&#45;&gt;LevelService </title>
<path fill="none" stroke="black" stroke-dasharray="5,2" d="M301.07,-175C258.55,-175 201.85,-175 201.85,-175 201.85,-175 201.85,-205.98 201.85,-205.98"/>
<polygon fill="black" stroke="black" points="198.35,-205.98 201.85,-215.98 205.35,-205.98 198.35,-205.98"/>
</g>
<!-- CreateTenantGradeLevelProvider -->
<g id="node6" class="node">
<title>CreateTenantGradeLevelProvider</title>
<ellipse fill="#fdb462" stroke="black" cx="753" cy="-104" rx="141.75" ry="18"/>
<text text-anchor="middle" x="753" y="-99.8" font-family="Times,serif" font-size="14.00">CreateTenantGradeLevelProvider</text>
</g>
<!-- CreateTenantGradeLevelProvider&#45;&gt;LevelModule -->
<g id="edge5" class="edge">
<title>CreateTenantGradeLevelProvider&#45;&gt;LevelModule</title>
<path fill="none" stroke="black" d="M643.36,-115.66C643.36,-132.85 643.36,-163 643.36,-163 643.36,-163 402.98,-163 402.98,-163"/>
<polygon fill="black" stroke="black" points="402.98,-159.5 392.98,-163 402.98,-166.5 402.98,-159.5"/>
</g>
<!-- CreateTenantGradeLevelService -->
<g id="node7" class="node">
<title>CreateTenantGradeLevelService</title>
<ellipse fill="#fdb462" stroke="black" cx="456" cy="-104" rx="137.65" ry="18"/>
<text text-anchor="middle" x="456" y="-99.8" font-family="Times,serif" font-size="14.00">CreateTenantGradeLevelService</text>
</g>
<!-- CreateTenantGradeLevelService&#45;&gt;LevelModule -->
<g id="edge6" class="edge">
<title>CreateTenantGradeLevelService&#45;&gt;LevelModule</title>
<path fill="none" stroke="black" d="M355.57,-116.53C355.57,-116.53 355.57,-140.85 355.57,-140.85"/>
<polygon fill="black" stroke="black" points="352.07,-140.85 355.57,-150.85 359.07,-140.85 352.07,-140.85"/>
</g>
<!-- LevelService -->
<g id="node8" class="node">
<title>LevelService</title>
<ellipse fill="#fdb462" stroke="black" cx="238" cy="-104" rx="61.95" ry="18"/>
<text text-anchor="middle" x="238" y="-99.8" font-family="Times,serif" font-size="14.00">LevelService</text>
</g>
<!-- LevelService&#45;&gt;LevelModule -->
<g id="edge7" class="edge">
<title>LevelService&#45;&gt;LevelModule</title>
<path fill="none" stroke="black" d="M300.17,-104C306.04,-104 309.86,-104 309.86,-104 309.86,-104 309.86,-140.89 309.86,-140.89"/>
<polygon fill="black" stroke="black" points="306.36,-140.89 309.86,-150.89 313.36,-140.89 306.36,-140.89"/>
</g>
</g>
</svg>
