<?xml version="1.0" encoding="UTF-8" standalone="no"?>
<!DOCTYPE svg PUBLIC "-//W3C//DTD SVG 1.1//EN"
 "http://www.w3.org/Graphics/SVG/1.1/DTD/svg11.dtd">
<!-- Generated by graphviz version 2.47.0 (20210316.0004)
 -->
<!-- Title: dependencies Pages: 1 -->
<svg width="526pt" height="211pt"
 viewBox="0.00 0.00 526.00 211.00" xmlns="http://www.w3.org/2000/svg" xmlns:xlink="http://www.w3.org/1999/xlink">
<g id="graph0" class="graph" transform="scale(1 1) rotate(0) translate(4 207)">
<title>dependencies</title>
<polygon fill="white" stroke="transparent" points="-4,4 -4,-207 522,-207 522,4 -4,4"/>
<text text-anchor="start" x="238.01" y="-42.4" font-family="Times-12" font-weight="bold" font-size="14.00">Legend</text>
<polygon fill="#ffffb3" stroke="transparent" points="25,-10 25,-30 45,-30 45,-10 25,-10"/>
<text text-anchor="start" x="48.63" y="-15.4" font-family="Times-12" font-size="14.00"> &#160;Declarations</text>
<polygon fill="#8dd3c7" stroke="transparent" points="138,-10 138,-30 158,-30 158,-10 138,-10"/>
<text text-anchor="start" x="161.73" y="-15.4" font-family="Times-12" font-size="14.00"> &#160;Module</text>
<polygon fill="#80b1d3" stroke="transparent" points="224,-10 224,-30 244,-30 244,-10 224,-10"/>
<text text-anchor="start" x="247.78" y="-15.4" font-family="Times-12" font-size="14.00"> &#160;Bootstrap</text>
<polygon fill="#fdb462" stroke="transparent" points="321,-10 321,-30 341,-30 341,-10 321,-10"/>
<text text-anchor="start" x="344.67" y="-15.4" font-family="Times-12" font-size="14.00"> &#160;Providers</text>
<polygon fill="#fb8072" stroke="transparent" points="417,-10 417,-30 437,-30 437,-10 417,-10"/>
<text text-anchor="start" x="440.73" y="-15.4" font-family="Times-12" font-size="14.00"> &#160;Exports</text>
<g id="clust1" class="cluster">
<title>cluster_SchoolLevelSettingModule</title>
<polygon fill="none" stroke="black" stroke-dasharray="1,5" points="8,-70 8,-195 510,-195 510,-70 8,-70"/>
</g>
<g id="clust6" class="cluster">
<title>cluster_SchoolLevelSettingModule_providers</title>
<polygon fill="none" stroke="black" points="254,-78 254,-130 502,-130 502,-78 254,-78"/>
</g>
<g id="clust3" class="cluster">
<title>cluster_SchoolLevelSettingModule_imports</title>
<polygon fill="none" stroke="black" points="16,-78 16,-130 246,-130 246,-78 16,-78"/>
</g>
<!-- LevelModule -->
<g id="node1" class="node">
<title>LevelModule</title>
<polygon fill="#8dd3c7" stroke="black" points="237.92,-122 234.92,-126 213.92,-126 210.92,-122 146.08,-122 146.08,-86 237.92,-86 237.92,-122"/>
<text text-anchor="middle" x="192" y="-99.8" font-family="Times,serif" font-size="14.00">LevelModule</text>
</g>
<!-- SchoolLevelSettingModule -->
<g id="node3" class="node">
<title>SchoolLevelSettingModule</title>
<polygon fill="#8dd3c7" stroke="black" points="276.98,-187 273.98,-191 252.98,-191 249.98,-187 107.02,-187 107.02,-151 276.98,-151 276.98,-187"/>
<text text-anchor="middle" x="192" y="-164.8" font-family="Times,serif" font-size="14.00">SchoolLevelSettingModule</text>
</g>
<!-- LevelModule&#45;&gt;SchoolLevelSettingModule -->
<g id="edge1" class="edge">
<title>LevelModule&#45;&gt;SchoolLevelSettingModule</title>
<path fill="none" stroke="black" d="M192,-122.11C192,-122.11 192,-140.99 192,-140.99"/>
<polygon fill="black" stroke="black" points="188.5,-140.99 192,-150.99 195.5,-140.99 188.5,-140.99"/>
</g>
<!-- SchoolsModule -->
<g id="node2" class="node">
<title>SchoolsModule</title>
<polygon fill="#8dd3c7" stroke="black" points="127.88,-122 124.88,-126 103.88,-126 100.88,-122 24.12,-122 24.12,-86 127.88,-86 127.88,-122"/>
<text text-anchor="middle" x="76" y="-99.8" font-family="Times,serif" font-size="14.00">SchoolsModule</text>
</g>
<!-- SchoolsModule&#45;&gt;SchoolLevelSettingModule -->
<g id="edge2" class="edge">
<title>SchoolsModule&#45;&gt;SchoolLevelSettingModule</title>
<path fill="none" stroke="black" d="M117.48,-122.11C117.48,-122.11 117.48,-140.99 117.48,-140.99"/>
<polygon fill="black" stroke="black" points="113.98,-140.99 117.48,-150.99 120.98,-140.99 113.98,-140.99"/>
</g>
<!-- SchoolLevelSettingService -->
<g id="node4" class="node">
<title>SchoolLevelSettingService</title>
<ellipse fill="#fdb462" stroke="black" cx="378" cy="-104" rx="116.33" ry="18"/>
<text text-anchor="middle" x="378" y="-99.8" font-family="Times,serif" font-size="14.00">SchoolLevelSettingService</text>
</g>
<!-- SchoolLevelSettingService&#45;&gt;SchoolLevelSettingModule -->
<g id="edge3" class="edge">
<title>SchoolLevelSettingService&#45;&gt;SchoolLevelSettingModule</title>
<path fill="none" stroke="black" d="M269.41,-110.47C269.41,-110.47 269.41,-140.78 269.41,-140.78"/>
<polygon fill="black" stroke="black" points="265.91,-140.78 269.41,-150.78 272.91,-140.78 265.91,-140.78"/>
</g>
</g>
</svg>
