<?xml version="1.0" encoding="UTF-8" standalone="no"?>
<!DOCTYPE svg PUBLIC "-//W3C//DTD SVG 1.1//EN"
 "http://www.w3.org/Graphics/SVG/1.1/DTD/svg11.dtd">
<!-- Generated by graphviz version 2.47.0 (20210316.0004)
 -->
<!-- Title: dependencies Pages: 1 -->
<svg width="1014pt" height="284pt"
 viewBox="0.00 0.00 1014.00 284.00" xmlns="http://www.w3.org/2000/svg" xmlns:xlink="http://www.w3.org/1999/xlink">
<g id="graph0" class="graph" transform="scale(1 1) rotate(0) translate(4 280)">
<title>dependencies</title>
<polygon fill="white" stroke="transparent" points="-4,4 -4,-280 1010,-280 1010,4 -4,4"/>
<text text-anchor="start" x="482.01" y="-42.4" font-family="Times-12" font-weight="bold" font-size="14.00">Legend</text>
<polygon fill="#ffffb3" stroke="transparent" points="269,-10 269,-30 289,-30 289,-10 269,-10"/>
<text text-anchor="start" x="292.63" y="-15.4" font-family="Times-12" font-size="14.00"> &#160;Declarations</text>
<polygon fill="#8dd3c7" stroke="transparent" points="382,-10 382,-30 402,-30 402,-10 382,-10"/>
<text text-anchor="start" x="405.73" y="-15.4" font-family="Times-12" font-size="14.00"> &#160;Module</text>
<polygon fill="#80b1d3" stroke="transparent" points="468,-10 468,-30 488,-30 488,-10 468,-10"/>
<text text-anchor="start" x="491.78" y="-15.4" font-family="Times-12" font-size="14.00"> &#160;Bootstrap</text>
<polygon fill="#fdb462" stroke="transparent" points="565,-10 565,-30 585,-30 585,-10 565,-10"/>
<text text-anchor="start" x="588.67" y="-15.4" font-family="Times-12" font-size="14.00"> &#160;Providers</text>
<polygon fill="#fb8072" stroke="transparent" points="661,-10 661,-30 681,-30 681,-10 661,-10"/>
<text text-anchor="start" x="684.73" y="-15.4" font-family="Times-12" font-size="14.00"> &#160;Exports</text>
<g id="clust1" class="cluster">
<title>cluster_MessagingModule</title>
<polygon fill="none" stroke="black" stroke-dasharray="1,5" points="8,-70 8,-268 998,-268 998,-70 8,-70"/>
</g>
<g id="clust3" class="cluster">
<title>cluster_MessagingModule_imports</title>
<polygon fill="none" stroke="black" points="527,-78 527,-130 990,-130 990,-78 527,-78"/>
</g>
<g id="clust4" class="cluster">
<title>cluster_MessagingModule_exports</title>
<polygon fill="none" stroke="black" points="262,-208 262,-260 764,-260 764,-208 262,-208"/>
</g>
<g id="clust6" class="cluster">
<title>cluster_MessagingModule_providers</title>
<polygon fill="none" stroke="black" points="16,-78 16,-130 519,-130 519,-78 16,-78"/>
</g>
<!-- ParentModule -->
<g id="node1" class="node">
<title>ParentModule</title>
<polygon fill="#8dd3c7" stroke="black" points="981.81,-122 978.81,-126 957.81,-126 954.81,-122 886.19,-122 886.19,-86 981.81,-86 981.81,-122"/>
<text text-anchor="middle" x="934" y="-99.8" font-family="Times,serif" font-size="14.00">ParentModule</text>
</g>
<!-- MessagingModule -->
<g id="node5" class="node">
<title>MessagingModule</title>
<polygon fill="#8dd3c7" stroke="black" points="647.2,-187 644.2,-191 623.2,-191 620.2,-187 526.8,-187 526.8,-151 647.2,-151 647.2,-187"/>
<text text-anchor="middle" x="587" y="-164.8" font-family="Times,serif" font-size="14.00">MessagingModule</text>
</g>
<!-- ParentModule&#45;&gt;MessagingModule -->
<g id="edge1" class="edge">
<title>ParentModule&#45;&gt;MessagingModule</title>
<path fill="none" stroke="black" d="M934,-122.11C934,-141.34 934,-169 934,-169 934,-169 657.44,-169 657.44,-169"/>
<polygon fill="black" stroke="black" points="657.44,-165.5 647.44,-169 657.44,-172.5 657.44,-165.5"/>
</g>
<!-- RedisModule -->
<g id="node2" class="node">
<title>RedisModule</title>
<polygon fill="#8dd3c7" stroke="black" points="868.94,-122 865.94,-126 844.94,-126 841.94,-122 777.06,-122 777.06,-86 868.94,-86 868.94,-122"/>
<text text-anchor="middle" x="823" y="-99.8" font-family="Times,serif" font-size="14.00">RedisModule</text>
</g>
<!-- RedisModule&#45;&gt;MessagingModule -->
<g id="edge2" class="edge">
<title>RedisModule&#45;&gt;MessagingModule</title>
<path fill="none" stroke="black" d="M823,-122.03C823,-138.4 823,-160 823,-160 823,-160 657.16,-160 657.16,-160"/>
<polygon fill="black" stroke="black" points="657.16,-156.5 647.16,-160 657.16,-163.5 657.16,-156.5"/>
</g>
<!-- StudentModule -->
<g id="node3" class="node">
<title>StudentModule</title>
<polygon fill="#8dd3c7" stroke="black" points="759.33,-122 756.33,-126 735.33,-126 732.33,-122 656.67,-122 656.67,-86 759.33,-86 759.33,-122"/>
<text text-anchor="middle" x="708" y="-99.8" font-family="Times,serif" font-size="14.00">StudentModule</text>
</g>
<!-- StudentModule&#45;&gt;MessagingModule -->
<g id="edge3" class="edge">
<title>StudentModule&#45;&gt;MessagingModule</title>
<path fill="none" stroke="black" d="M656.63,-104C648.77,-104 643.21,-104 643.21,-104 643.21,-104 643.21,-140.89 643.21,-140.89"/>
<polygon fill="black" stroke="black" points="639.71,-140.89 643.21,-150.89 646.71,-140.89 639.71,-140.89"/>
</g>
<!-- TeacherModule -->
<g id="node4" class="node">
<title>TeacherModule</title>
<polygon fill="#8dd3c7" stroke="black" points="639.12,-122 636.12,-126 615.12,-126 612.12,-122 534.88,-122 534.88,-86 639.12,-86 639.12,-122"/>
<text text-anchor="middle" x="587" y="-99.8" font-family="Times,serif" font-size="14.00">TeacherModule</text>
</g>
<!-- TeacherModule&#45;&gt;MessagingModule -->
<g id="edge4" class="edge">
<title>TeacherModule&#45;&gt;MessagingModule</title>
<path fill="none" stroke="black" d="M587,-122.11C587,-122.11 587,-140.99 587,-140.99"/>
<polygon fill="black" stroke="black" points="583.5,-140.99 587,-150.99 590.5,-140.99 583.5,-140.99"/>
</g>
<!-- ChatService  -->
<g id="node6" class="node">
<title>ChatService </title>
<polygon fill="#fb8072" stroke="black" points="755.92,-252 668.08,-252 668.08,-216 755.92,-216 755.92,-252"/>
<text text-anchor="middle" x="712" y="-229.8" font-family="Times,serif" font-size="14.00">ChatService </text>
</g>
<!-- MessagingModule&#45;&gt;ChatService  -->
<g id="edge5" class="edge">
<title>MessagingModule&#45;&gt;ChatService </title>
<path fill="none" stroke="black" stroke-dasharray="5,2" d="M647.3,-178C679.27,-178 712,-178 712,-178 712,-178 712,-205.97 712,-205.97"/>
<polygon fill="black" stroke="black" points="708.5,-205.97 712,-215.97 715.5,-205.97 708.5,-205.97"/>
</g>
<!-- RedisChatProvider  -->
<g id="node7" class="node">
<title>RedisChatProvider </title>
<polygon fill="#fb8072" stroke="black" points="650.04,-252 523.96,-252 523.96,-216 650.04,-216 650.04,-252"/>
<text text-anchor="middle" x="587" y="-229.8" font-family="Times,serif" font-size="14.00">RedisChatProvider </text>
</g>
<!-- MessagingModule&#45;&gt;RedisChatProvider  -->
<g id="edge6" class="edge">
<title>MessagingModule&#45;&gt;RedisChatProvider </title>
<path fill="none" stroke="black" stroke-dasharray="5,2" d="M587,-187.11C587,-187.11 587,-205.99 587,-205.99"/>
<polygon fill="black" stroke="black" points="583.5,-205.99 587,-215.99 590.5,-205.99 583.5,-205.99"/>
</g>
<!-- { provide: , useValue: new PubSub() }  -->
<g id="node8" class="node">
<title>{ provide: , useValue: new PubSub() } </title>
<polygon fill="#fb8072" stroke="black" points="506.28,-252 269.72,-252 269.72,-216 506.28,-216 506.28,-252"/>
<text text-anchor="middle" x="388" y="-229.8" font-family="Times,serif" font-size="14.00">{ provide: , useValue: new PubSub() } </text>
</g>
<!-- MessagingModule&#45;&gt;{ provide: , useValue: new PubSub() }  -->
<g id="edge7" class="edge">
<title>MessagingModule&#45;&gt;{ provide: , useValue: new PubSub() } </title>
<path fill="none" stroke="black" stroke-dasharray="5,2" d="M526.71,-178C490.13,-178 450.45,-178 450.45,-178 450.45,-178 450.45,-205.97 450.45,-205.97"/>
<polygon fill="black" stroke="black" points="446.95,-205.97 450.45,-215.97 453.95,-205.97 446.95,-205.97"/>
</g>
<!-- ChatService -->
<g id="node9" class="node">
<title>ChatService</title>
<ellipse fill="#fdb462" stroke="black" cx="453" cy="-104" rx="58.46" ry="18"/>
<text text-anchor="middle" x="453" y="-99.8" font-family="Times,serif" font-size="14.00">ChatService</text>
</g>
<!-- ChatService&#45;&gt;MessagingModule -->
<g id="edge8" class="edge">
<title>ChatService&#45;&gt;MessagingModule</title>
<path fill="none" stroke="black" d="M511.56,-104C522.62,-104 530.79,-104 530.79,-104 530.79,-104 530.79,-140.89 530.79,-140.89"/>
<polygon fill="black" stroke="black" points="527.29,-140.89 530.79,-150.89 534.29,-140.89 527.29,-140.89"/>
</g>
<!-- RedisChatProvider -->
<g id="node10" class="node">
<title>RedisChatProvider</title>
<ellipse fill="#fdb462" stroke="black" cx="292" cy="-104" rx="84.55" ry="18"/>
<text text-anchor="middle" x="292" y="-99.8" font-family="Times,serif" font-size="14.00">RedisChatProvider</text>
</g>
<!-- RedisChatProvider&#45;&gt;MessagingModule -->
<g id="edge9" class="edge">
<title>RedisChatProvider&#45;&gt;MessagingModule</title>
<path fill="none" stroke="black" d="M323.19,-120.8C323.19,-137.3 323.19,-160 323.19,-160 323.19,-160 516.81,-160 516.81,-160"/>
<polygon fill="black" stroke="black" points="516.81,-163.5 526.81,-160 516.81,-156.5 516.81,-163.5"/>
</g>
<!-- SocketTestService -->
<g id="node11" class="node">
<title>SocketTestService</title>
<ellipse fill="#fdb462" stroke="black" cx="107" cy="-104" rx="82.8" ry="18"/>
<text text-anchor="middle" x="107" y="-99.8" font-family="Times,serif" font-size="14.00">SocketTestService</text>
</g>
<!-- SocketTestService&#45;&gt;MessagingModule -->
<g id="edge10" class="edge">
<title>SocketTestService&#45;&gt;MessagingModule</title>
<path fill="none" stroke="black" d="M107,-122.11C107,-141.34 107,-169 107,-169 107,-169 516.69,-169 516.69,-169"/>
<polygon fill="black" stroke="black" points="516.69,-172.5 526.69,-169 516.69,-165.5 516.69,-172.5"/>
</g>
</g>
</svg>
