<?xml version="1.0" encoding="UTF-8" standalone="no"?>
<!DOCTYPE svg PUBLIC "-//W3C//DTD SVG 1.1//EN"
 "http://www.w3.org/Graphics/SVG/1.1/DTD/svg11.dtd">
<!-- Generated by graphviz version 2.47.0 (20210316.0004)
 -->
<!-- Title: dependencies Pages: 1 -->
<svg width="504pt" height="284pt"
 viewBox="0.00 0.00 504.00 284.00" xmlns="http://www.w3.org/2000/svg" xmlns:xlink="http://www.w3.org/1999/xlink">
<g id="graph0" class="graph" transform="scale(1 1) rotate(0) translate(4 280)">
<title>dependencies</title>
<polygon fill="white" stroke="transparent" points="-4,4 -4,-280 500,-280 500,4 -4,4"/>
<text text-anchor="start" x="227.01" y="-42.4" font-family="Times-12" font-weight="bold" font-size="14.00">Legend</text>
<polygon fill="#ffffb3" stroke="transparent" points="14,-10 14,-30 34,-30 34,-10 14,-10"/>
<text text-anchor="start" x="37.63" y="-15.4" font-family="Times-12" font-size="14.00"> &#160;Declarations</text>
<polygon fill="#8dd3c7" stroke="transparent" points="127,-10 127,-30 147,-30 147,-10 127,-10"/>
<text text-anchor="start" x="150.73" y="-15.4" font-family="Times-12" font-size="14.00"> &#160;Module</text>
<polygon fill="#80b1d3" stroke="transparent" points="213,-10 213,-30 233,-30 233,-10 213,-10"/>
<text text-anchor="start" x="236.78" y="-15.4" font-family="Times-12" font-size="14.00"> &#160;Bootstrap</text>
<polygon fill="#fdb462" stroke="transparent" points="310,-10 310,-30 330,-30 330,-10 310,-10"/>
<text text-anchor="start" x="333.67" y="-15.4" font-family="Times-12" font-size="14.00"> &#160;Providers</text>
<polygon fill="#fb8072" stroke="transparent" points="406,-10 406,-30 426,-30 426,-10 406,-10"/>
<text text-anchor="start" x="429.73" y="-15.4" font-family="Times-12" font-size="14.00"> &#160;Exports</text>
<g id="clust1" class="cluster">
<title>cluster_TenantsModule</title>
<polygon fill="none" stroke="black" stroke-dasharray="1,5" points="23,-70 23,-268 473,-268 473,-70 23,-70"/>
</g>
<g id="clust6" class="cluster">
<title>cluster_TenantsModule_providers</title>
<polygon fill="none" stroke="black" points="315,-78 315,-130 465,-130 465,-78 315,-78"/>
</g>
<g id="clust3" class="cluster">
<title>cluster_TenantsModule_imports</title>
<polygon fill="none" stroke="black" points="31,-78 31,-130 307,-130 307,-78 31,-78"/>
</g>
<g id="clust4" class="cluster">
<title>cluster_TenantsModule_exports</title>
<polygon fill="none" stroke="black" points="172,-208 172,-260 288,-260 288,-208 172,-208"/>
</g>
<!-- OrganizationsModule -->
<g id="node1" class="node">
<title>OrganizationsModule</title>
<polygon fill="#8dd3c7" stroke="black" points="299.08,-122 296.08,-126 275.08,-126 272.08,-122 160.92,-122 160.92,-86 299.08,-86 299.08,-122"/>
<text text-anchor="middle" x="230" y="-99.8" font-family="Times,serif" font-size="14.00">OrganizationsModule</text>
</g>
<!-- TenantsModule -->
<g id="node3" class="node">
<title>TenantsModule</title>
<polygon fill="#8dd3c7" stroke="black" points="281.87,-187 278.87,-191 257.87,-191 254.87,-187 178.13,-187 178.13,-151 281.87,-151 281.87,-187"/>
<text text-anchor="middle" x="230" y="-164.8" font-family="Times,serif" font-size="14.00">TenantsModule</text>
</g>
<!-- OrganizationsModule&#45;&gt;TenantsModule -->
<g id="edge1" class="edge">
<title>OrganizationsModule&#45;&gt;TenantsModule</title>
<path fill="none" stroke="black" d="M230,-122.11C230,-122.11 230,-140.99 230,-140.99"/>
<polygon fill="black" stroke="black" points="226.5,-140.99 230,-150.99 233.5,-140.99 226.5,-140.99"/>
</g>
<!-- SchoolsModule -->
<g id="node2" class="node">
<title>SchoolsModule</title>
<polygon fill="#8dd3c7" stroke="black" points="142.88,-122 139.88,-126 118.88,-126 115.88,-122 39.12,-122 39.12,-86 142.88,-86 142.88,-122"/>
<text text-anchor="middle" x="91" y="-99.8" font-family="Times,serif" font-size="14.00">SchoolsModule</text>
</g>
<!-- SchoolsModule&#45;&gt;TenantsModule -->
<g id="edge2" class="edge">
<title>SchoolsModule&#45;&gt;TenantsModule</title>
<path fill="none" stroke="black" d="M91,-122.11C91,-141.34 91,-169 91,-169 91,-169 167.85,-169 167.85,-169"/>
<polygon fill="black" stroke="black" points="167.85,-172.5 177.85,-169 167.85,-165.5 167.85,-172.5"/>
</g>
<!-- TenantService  -->
<g id="node4" class="node">
<title>TenantService </title>
<polygon fill="#fb8072" stroke="black" points="280.35,-252 179.65,-252 179.65,-216 280.35,-216 280.35,-252"/>
<text text-anchor="middle" x="230" y="-229.8" font-family="Times,serif" font-size="14.00">TenantService </text>
</g>
<!-- TenantsModule&#45;&gt;TenantService  -->
<g id="edge3" class="edge">
<title>TenantsModule&#45;&gt;TenantService </title>
<path fill="none" stroke="black" stroke-dasharray="5,2" d="M230,-187.11C230,-187.11 230,-205.99 230,-205.99"/>
<polygon fill="black" stroke="black" points="226.5,-205.99 230,-215.99 233.5,-205.99 226.5,-205.99"/>
</g>
<!-- TenantService -->
<g id="node5" class="node">
<title>TenantService</title>
<ellipse fill="#fdb462" stroke="black" cx="390" cy="-104" rx="66.61" ry="18"/>
<text text-anchor="middle" x="390" y="-99.8" font-family="Times,serif" font-size="14.00">TenantService</text>
</g>
<!-- TenantService&#45;&gt;TenantsModule -->
<g id="edge4" class="edge">
<title>TenantService&#45;&gt;TenantsModule</title>
<path fill="none" stroke="black" d="M390,-122.11C390,-141.34 390,-169 390,-169 390,-169 291.95,-169 291.95,-169"/>
<polygon fill="black" stroke="black" points="291.95,-165.5 281.95,-169 291.95,-172.5 291.95,-165.5"/>
</g>
</g>
</svg>
