<?xml version="1.0" encoding="UTF-8" standalone="no"?>
<!DOCTYPE svg PUBLIC "-//W3C//DTD SVG 1.1//EN"
 "http://www.w3.org/Graphics/SVG/1.1/DTD/svg11.dtd">
<!-- Generated by graphviz version 2.47.0 (20210316.0004)
 -->
<!-- Title: dependencies Pages: 1 -->
<svg width="596pt" height="284pt"
 viewBox="0.00 0.00 596.00 284.00" xmlns="http://www.w3.org/2000/svg" xmlns:xlink="http://www.w3.org/1999/xlink">
<g id="graph0" class="graph" transform="scale(1 1) rotate(0) translate(4 280)">
<title>dependencies</title>
<polygon fill="white" stroke="transparent" points="-4,4 -4,-280 592,-280 592,4 -4,4"/>
<text text-anchor="start" x="273.01" y="-42.4" font-family="Times-12" font-weight="bold" font-size="14.00">Legend</text>
<polygon fill="#ffffb3" stroke="transparent" points="60,-10 60,-30 80,-30 80,-10 60,-10"/>
<text text-anchor="start" x="83.63" y="-15.4" font-family="Times-12" font-size="14.00"> &#160;Declarations</text>
<polygon fill="#8dd3c7" stroke="transparent" points="173,-10 173,-30 193,-30 193,-10 173,-10"/>
<text text-anchor="start" x="196.73" y="-15.4" font-family="Times-12" font-size="14.00"> &#160;Module</text>
<polygon fill="#80b1d3" stroke="transparent" points="259,-10 259,-30 279,-30 279,-10 259,-10"/>
<text text-anchor="start" x="282.78" y="-15.4" font-family="Times-12" font-size="14.00"> &#160;Bootstrap</text>
<polygon fill="#fdb462" stroke="transparent" points="356,-10 356,-30 376,-30 376,-10 356,-10"/>
<text text-anchor="start" x="379.67" y="-15.4" font-family="Times-12" font-size="14.00"> &#160;Providers</text>
<polygon fill="#fb8072" stroke="transparent" points="452,-10 452,-30 472,-30 472,-10 452,-10"/>
<text text-anchor="start" x="475.73" y="-15.4" font-family="Times-12" font-size="14.00"> &#160;Exports</text>
<g id="clust1" class="cluster">
<title>cluster_SearchModule</title>
<polygon fill="none" stroke="black" stroke-dasharray="1,5" points="8,-70 8,-268 580,-268 580,-70 8,-70"/>
</g>
<g id="clust4" class="cluster">
<title>cluster_SearchModule_exports</title>
<polygon fill="none" stroke="black" points="260,-208 260,-260 376,-260 376,-208 260,-208"/>
</g>
<g id="clust3" class="cluster">
<title>cluster_SearchModule_imports</title>
<polygon fill="none" stroke="black" points="332,-78 332,-130 572,-130 572,-78 332,-78"/>
</g>
<g id="clust6" class="cluster">
<title>cluster_SearchModule_providers</title>
<polygon fill="none" stroke="black" points="16,-78 16,-130 324,-130 324,-78 16,-78"/>
</g>
<!-- StreamsModule -->
<g id="node1" class="node">
<title>StreamsModule</title>
<polygon fill="#8dd3c7" stroke="black" points="564.15,-122 561.15,-126 540.15,-126 537.15,-122 459.85,-122 459.85,-86 564.15,-86 564.15,-122"/>
<text text-anchor="middle" x="512" y="-99.8" font-family="Times,serif" font-size="14.00">StreamsModule</text>
</g>
<!-- SearchModule -->
<g id="node3" class="node">
<title>SearchModule</title>
<polygon fill="#8dd3c7" stroke="black" points="366.64,-187 363.64,-191 342.64,-191 339.64,-187 269.36,-187 269.36,-151 366.64,-151 366.64,-187"/>
<text text-anchor="middle" x="318" y="-164.8" font-family="Times,serif" font-size="14.00">SearchModule</text>
</g>
<!-- StreamsModule&#45;&gt;SearchModule -->
<g id="edge1" class="edge">
<title>StreamsModule&#45;&gt;SearchModule</title>
<path fill="none" stroke="black" d="M512,-122.11C512,-141.34 512,-169 512,-169 512,-169 376.95,-169 376.95,-169"/>
<polygon fill="black" stroke="black" points="376.95,-165.5 366.95,-169 376.95,-172.5 376.95,-165.5"/>
</g>
<!-- StudentModule -->
<g id="node2" class="node">
<title>StudentModule</title>
<polygon fill="#8dd3c7" stroke="black" points="442.33,-122 439.33,-126 418.33,-126 415.33,-122 339.67,-122 339.67,-86 442.33,-86 442.33,-122"/>
<text text-anchor="middle" x="391" y="-99.8" font-family="Times,serif" font-size="14.00">StudentModule</text>
</g>
<!-- StudentModule&#45;&gt;SearchModule -->
<g id="edge2" class="edge">
<title>StudentModule&#45;&gt;SearchModule</title>
<path fill="none" stroke="black" d="M353.33,-122.11C353.33,-122.11 353.33,-140.99 353.33,-140.99"/>
<polygon fill="black" stroke="black" points="349.83,-140.99 353.33,-150.99 356.83,-140.99 349.83,-140.99"/>
</g>
<!-- SearchService  -->
<g id="node4" class="node">
<title>SearchService </title>
<polygon fill="#fb8072" stroke="black" points="367.57,-252 268.43,-252 268.43,-216 367.57,-216 367.57,-252"/>
<text text-anchor="middle" x="318" y="-229.8" font-family="Times,serif" font-size="14.00">SearchService </text>
</g>
<!-- SearchModule&#45;&gt;SearchService  -->
<g id="edge3" class="edge">
<title>SearchModule&#45;&gt;SearchService </title>
<path fill="none" stroke="black" stroke-dasharray="5,2" d="M318,-187.11C318,-187.11 318,-205.99 318,-205.99"/>
<polygon fill="black" stroke="black" points="314.5,-205.99 318,-215.99 321.5,-205.99 314.5,-205.99"/>
</g>
<!-- SearchProvider -->
<g id="node5" class="node">
<title>SearchProvider</title>
<ellipse fill="#fdb462" stroke="black" cx="245" cy="-104" rx="70.62" ry="18"/>
<text text-anchor="middle" x="245" y="-99.8" font-family="Times,serif" font-size="14.00">SearchProvider</text>
</g>
<!-- SearchProvider&#45;&gt;SearchModule -->
<g id="edge4" class="edge">
<title>SearchProvider&#45;&gt;SearchModule</title>
<path fill="none" stroke="black" d="M292.37,-117.47C292.37,-117.47 292.37,-140.86 292.37,-140.86"/>
<polygon fill="black" stroke="black" points="288.87,-140.86 292.37,-150.86 295.87,-140.86 288.87,-140.86"/>
</g>
<!-- SearchService -->
<g id="node6" class="node">
<title>SearchService</title>
<ellipse fill="#fdb462" stroke="black" cx="90" cy="-104" rx="66.03" ry="18"/>
<text text-anchor="middle" x="90" y="-99.8" font-family="Times,serif" font-size="14.00">SearchService</text>
</g>
<!-- SearchService&#45;&gt;SearchModule -->
<g id="edge5" class="edge">
<title>SearchService&#45;&gt;SearchModule</title>
<path fill="none" stroke="black" d="M90,-122.11C90,-141.34 90,-169 90,-169 90,-169 259.09,-169 259.09,-169"/>
<polygon fill="black" stroke="black" points="259.09,-172.5 269.09,-169 259.09,-165.5 259.09,-172.5"/>
</g>
</g>
</svg>
