<?xml version="1.0" encoding="UTF-8" standalone="no"?>
<!DOCTYPE svg PUBLIC "-//W3C//DTD SVG 1.1//EN"
 "http://www.w3.org/Graphics/SVG/1.1/DTD/svg11.dtd">
<!-- Generated by graphviz version 2.47.0 (20210316.0004)
 -->
<!-- Title: dependencies Pages: 1 -->
<svg width="504pt" height="284pt"
 viewBox="0.00 0.00 504.00 284.00" xmlns="http://www.w3.org/2000/svg" xmlns:xlink="http://www.w3.org/1999/xlink">
<g id="graph0" class="graph" transform="scale(1 1) rotate(0) translate(4 280)">
<title>dependencies</title>
<polygon fill="white" stroke="transparent" points="-4,4 -4,-280 500,-280 500,4 -4,4"/>
<text text-anchor="start" x="227.01" y="-42.4" font-family="Times-12" font-weight="bold" font-size="14.00">Legend</text>
<polygon fill="#ffffb3" stroke="transparent" points="14,-10 14,-30 34,-30 34,-10 14,-10"/>
<text text-anchor="start" x="37.63" y="-15.4" font-family="Times-12" font-size="14.00"> &#160;Declarations</text>
<polygon fill="#8dd3c7" stroke="transparent" points="127,-10 127,-30 147,-30 147,-10 127,-10"/>
<text text-anchor="start" x="150.73" y="-15.4" font-family="Times-12" font-size="14.00"> &#160;Module</text>
<polygon fill="#80b1d3" stroke="transparent" points="213,-10 213,-30 233,-30 233,-10 213,-10"/>
<text text-anchor="start" x="236.78" y="-15.4" font-family="Times-12" font-size="14.00"> &#160;Bootstrap</text>
<polygon fill="#fdb462" stroke="transparent" points="310,-10 310,-30 330,-30 330,-10 310,-10"/>
<text text-anchor="start" x="333.67" y="-15.4" font-family="Times-12" font-size="14.00"> &#160;Providers</text>
<polygon fill="#fb8072" stroke="transparent" points="406,-10 406,-30 426,-30 426,-10 406,-10"/>
<text text-anchor="start" x="429.73" y="-15.4" font-family="Times-12" font-size="14.00"> &#160;Exports</text>
<g id="clust1" class="cluster">
<title>cluster_SchoolsModule</title>
<polygon fill="none" stroke="black" stroke-dasharray="1,5" points="60,-70 60,-268 436,-268 436,-70 60,-70"/>
</g>
<g id="clust6" class="cluster">
<title>cluster_SchoolsModule_providers</title>
<polygon fill="none" stroke="black" points="68,-78 68,-130 428,-130 428,-78 68,-78"/>
</g>
<g id="clust4" class="cluster">
<title>cluster_SchoolsModule_exports</title>
<polygon fill="none" stroke="black" points="93,-208 93,-260 371,-260 371,-208 93,-208"/>
</g>
<!-- SchoolCreateProvider  -->
<g id="node1" class="node">
<title>SchoolCreateProvider </title>
<polygon fill="#fb8072" stroke="black" points="362.63,-252 219.37,-252 219.37,-216 362.63,-216 362.63,-252"/>
<text text-anchor="middle" x="291" y="-229.8" font-family="Times,serif" font-size="14.00">SchoolCreateProvider </text>
</g>
<!-- SchoolService  -->
<g id="node2" class="node">
<title>SchoolService </title>
<polygon fill="#fb8072" stroke="black" points="201.37,-252 100.63,-252 100.63,-216 201.37,-216 201.37,-252"/>
<text text-anchor="middle" x="151" y="-229.8" font-family="Times,serif" font-size="14.00">SchoolService </text>
</g>
<!-- SchoolsModule -->
<g id="node3" class="node">
<title>SchoolsModule</title>
<polygon fill="#8dd3c7" stroke="black" points="226.88,-187 223.88,-191 202.88,-191 199.88,-187 123.12,-187 123.12,-151 226.88,-151 226.88,-187"/>
<text text-anchor="middle" x="175" y="-164.8" font-family="Times,serif" font-size="14.00">SchoolsModule</text>
</g>
<!-- SchoolsModule&#45;&gt;SchoolCreateProvider  -->
<g id="edge1" class="edge">
<title>SchoolsModule&#45;&gt;SchoolCreateProvider </title>
<path fill="none" stroke="black" stroke-dasharray="5,2" d="M223.19,-187.11C223.19,-187.11 223.19,-205.99 223.19,-205.99"/>
<polygon fill="black" stroke="black" points="219.69,-205.99 223.19,-215.99 226.69,-205.99 219.69,-205.99"/>
</g>
<!-- SchoolsModule&#45;&gt;SchoolService  -->
<g id="edge2" class="edge">
<title>SchoolsModule&#45;&gt;SchoolService </title>
<path fill="none" stroke="black" stroke-dasharray="5,2" d="M162.12,-187.11C162.12,-187.11 162.12,-205.99 162.12,-205.99"/>
<polygon fill="black" stroke="black" points="158.62,-205.99 162.12,-215.99 165.62,-205.99 158.62,-205.99"/>
</g>
<!-- SchoolCreateProvider -->
<g id="node4" class="node">
<title>SchoolCreateProvider</title>
<ellipse fill="#fdb462" stroke="black" cx="324" cy="-104" rx="96.13" ry="18"/>
<text text-anchor="middle" x="324" y="-99.8" font-family="Times,serif" font-size="14.00">SchoolCreateProvider</text>
</g>
<!-- SchoolCreateProvider&#45;&gt;SchoolsModule -->
<g id="edge3" class="edge">
<title>SchoolCreateProvider&#45;&gt;SchoolsModule</title>
<path fill="none" stroke="black" d="M227.38,-104C221.79,-104 218.38,-104 218.38,-104 218.38,-104 218.38,-140.89 218.38,-140.89"/>
<polygon fill="black" stroke="black" points="214.88,-140.89 218.38,-150.89 221.88,-140.89 214.88,-140.89"/>
</g>
<!-- SchoolService -->
<g id="node5" class="node">
<title>SchoolService</title>
<ellipse fill="#fdb462" stroke="black" cx="143" cy="-104" rx="66.63" ry="18"/>
<text text-anchor="middle" x="143" y="-99.8" font-family="Times,serif" font-size="14.00">SchoolService</text>
</g>
<!-- SchoolService&#45;&gt;SchoolsModule -->
<g id="edge4" class="edge">
<title>SchoolService&#45;&gt;SchoolsModule</title>
<path fill="none" stroke="black" d="M166.44,-121.08C166.44,-121.08 166.44,-140.9 166.44,-140.9"/>
<polygon fill="black" stroke="black" points="162.94,-140.9 166.44,-150.9 169.94,-140.9 162.94,-140.9"/>
</g>
</g>
</svg>
