<?xml version="1.0" encoding="UTF-8" standalone="no"?>
<!DOCTYPE svg PUBLIC "-//W3C//DTD SVG 1.1//EN"
 "http://www.w3.org/Graphics/SVG/1.1/DTD/svg11.dtd">
<!-- Generated by graphviz version 2.47.0 (20210316.0004)
 -->
<!-- Title: dependencies Pages: 1 -->
<svg width="2003pt" height="284pt"
 viewBox="0.00 0.00 2003.00 284.00" xmlns="http://www.w3.org/2000/svg" xmlns:xlink="http://www.w3.org/1999/xlink">
<g id="graph0" class="graph" transform="scale(1 1) rotate(0) translate(4 280)">
<title>dependencies</title>
<polygon fill="white" stroke="transparent" points="-4,4 -4,-280 1999,-280 1999,4 -4,4"/>
<text text-anchor="start" x="976.51" y="-42.4" font-family="Times-12" font-weight="bold" font-size="14.00">Legend</text>
<polygon fill="#ffffb3" stroke="transparent" points="763.5,-10 763.5,-30 783.5,-30 783.5,-10 763.5,-10"/>
<text text-anchor="start" x="787.13" y="-15.4" font-family="Times-12" font-size="14.00"> &#160;Declarations</text>
<polygon fill="#8dd3c7" stroke="transparent" points="876.5,-10 876.5,-30 896.5,-30 896.5,-10 876.5,-10"/>
<text text-anchor="start" x="900.23" y="-15.4" font-family="Times-12" font-size="14.00"> &#160;Module</text>
<polygon fill="#80b1d3" stroke="transparent" points="962.5,-10 962.5,-30 982.5,-30 982.5,-10 962.5,-10"/>
<text text-anchor="start" x="986.28" y="-15.4" font-family="Times-12" font-size="14.00"> &#160;Bootstrap</text>
<polygon fill="#fdb462" stroke="transparent" points="1059.5,-10 1059.5,-30 1079.5,-30 1079.5,-10 1059.5,-10"/>
<text text-anchor="start" x="1083.17" y="-15.4" font-family="Times-12" font-size="14.00"> &#160;Providers</text>
<polygon fill="#fb8072" stroke="transparent" points="1155.5,-10 1155.5,-30 1175.5,-30 1175.5,-10 1155.5,-10"/>
<text text-anchor="start" x="1179.23" y="-15.4" font-family="Times-12" font-size="14.00"> &#160;Exports</text>
<g id="clust1" class="cluster">
<title>cluster_FeeManagementModule</title>
<polygon fill="none" stroke="black" stroke-dasharray="1,5" points="8,-70 8,-268 1987,-268 1987,-70 8,-70"/>
</g>
<g id="clust4" class="cluster">
<title>cluster_FeeManagementModule_exports</title>
<polygon fill="none" stroke="black" points="560,-208 560,-260 1572,-260 1572,-208 560,-208"/>
</g>
<g id="clust3" class="cluster">
<title>cluster_FeeManagementModule_imports</title>
<polygon fill="none" stroke="black" points="1750,-78 1750,-130 1979,-130 1979,-78 1750,-78"/>
</g>
<g id="clust6" class="cluster">
<title>cluster_FeeManagementModule_providers</title>
<polygon fill="none" stroke="black" points="16,-78 16,-130 1742,-130 1742,-78 16,-78"/>
</g>
<!-- EmailModule -->
<g id="node1" class="node">
<title>EmailModule</title>
<polygon fill="#8dd3c7" stroke="black" points="1971.49,-122 1968.49,-126 1947.49,-126 1944.49,-122 1878.51,-122 1878.51,-86 1971.49,-86 1971.49,-122"/>
<text text-anchor="middle" x="1925" y="-99.8" font-family="Times,serif" font-size="14.00">EmailModule</text>
</g>
<!-- FeeManagementModule -->
<g id="node3" class="node">
<title>FeeManagementModule</title>
<polygon fill="#8dd3c7" stroke="black" points="1091.35,-187 1088.35,-191 1067.35,-191 1064.35,-187 938.65,-187 938.65,-151 1091.35,-151 1091.35,-187"/>
<text text-anchor="middle" x="1015" y="-164.8" font-family="Times,serif" font-size="14.00">FeeManagementModule</text>
</g>
<!-- EmailModule&#45;&gt;FeeManagementModule -->
<g id="edge1" class="edge">
<title>EmailModule&#45;&gt;FeeManagementModule</title>
<path fill="none" stroke="black" d="M1925,-122.03C1925,-142.77 1925,-174 1925,-174 1925,-174 1101.41,-174 1101.41,-174"/>
<polygon fill="black" stroke="black" points="1101.41,-170.5 1091.41,-174 1101.41,-177.5 1101.41,-170.5"/>
</g>
<!-- StudentModule -->
<g id="node2" class="node">
<title>StudentModule</title>
<polygon fill="#8dd3c7" stroke="black" points="1860.33,-122 1857.33,-126 1836.33,-126 1833.33,-122 1757.67,-122 1757.67,-86 1860.33,-86 1860.33,-122"/>
<text text-anchor="middle" x="1809" y="-99.8" font-family="Times,serif" font-size="14.00">StudentModule</text>
</g>
<!-- StudentModule&#45;&gt;FeeManagementModule -->
<g id="edge2" class="edge">
<title>StudentModule&#45;&gt;FeeManagementModule</title>
<path fill="none" stroke="black" d="M1809,-122.11C1809,-141.34 1809,-169 1809,-169 1809,-169 1101.49,-169 1101.49,-169"/>
<polygon fill="black" stroke="black" points="1101.49,-165.5 1091.49,-169 1101.49,-172.5 1101.49,-165.5"/>
</g>
<!-- FeeAssignmentService  -->
<g id="node4" class="node">
<title>FeeAssignmentService </title>
<polygon fill="#fb8072" stroke="black" points="1564.07,-252 1415.93,-252 1415.93,-216 1564.07,-216 1564.07,-252"/>
<text text-anchor="middle" x="1490" y="-229.8" font-family="Times,serif" font-size="14.00">FeeAssignmentService </text>
</g>
<!-- FeeManagementModule&#45;&gt;FeeAssignmentService  -->
<g id="edge3" class="edge">
<title>FeeManagementModule&#45;&gt;FeeAssignmentService </title>
<path fill="none" stroke="black" stroke-dasharray="5,2" d="M1091.51,-178C1220.18,-178 1466,-178 1466,-178 1466,-178 1466,-205.97 1466,-205.97"/>
<polygon fill="black" stroke="black" points="1462.5,-205.97 1466,-215.97 1469.5,-205.97 1462.5,-205.97"/>
</g>
<!-- FeeBucketService  -->
<g id="node5" class="node">
<title>FeeBucketService </title>
<polygon fill="#fb8072" stroke="black" points="1397.85,-252 1276.15,-252 1276.15,-216 1397.85,-216 1397.85,-252"/>
<text text-anchor="middle" x="1337" y="-229.8" font-family="Times,serif" font-size="14.00">FeeBucketService </text>
</g>
<!-- FeeManagementModule&#45;&gt;FeeBucketService  -->
<g id="edge4" class="edge">
<title>FeeManagementModule&#45;&gt;FeeBucketService </title>
<path fill="none" stroke="black" stroke-dasharray="5,2" d="M1091.5,-183C1177.77,-183 1306.18,-183 1306.18,-183 1306.18,-183 1306.18,-205.88 1306.18,-205.88"/>
<polygon fill="black" stroke="black" points="1302.68,-205.88 1306.18,-215.88 1309.68,-205.88 1302.68,-205.88"/>
</g>
<!-- FeeStructureItemService  -->
<g id="node6" class="node">
<title>FeeStructureItemService </title>
<polygon fill="#fb8072" stroke="black" points="1258.16,-252 1099.84,-252 1099.84,-216 1258.16,-216 1258.16,-252"/>
<text text-anchor="middle" x="1179" y="-229.8" font-family="Times,serif" font-size="14.00">FeeStructureItemService </text>
</g>
<!-- FeeManagementModule&#45;&gt;FeeStructureItemService  -->
<g id="edge5" class="edge">
<title>FeeManagementModule&#45;&gt;FeeStructureItemService </title>
<path fill="none" stroke="black" stroke-dasharray="5,2" d="M1086.46,-187.11C1086.46,-206.34 1086.46,-234 1086.46,-234 1086.46,-234 1089.72,-234 1089.72,-234"/>
<polygon fill="black" stroke="black" points="1089.72,-237.5 1099.72,-234 1089.72,-230.5 1089.72,-237.5"/>
</g>
<!-- FeeStructureService  -->
<g id="node7" class="node">
<title>FeeStructureService </title>
<polygon fill="#fb8072" stroke="black" points="1081.5,-252 948.5,-252 948.5,-216 1081.5,-216 1081.5,-252"/>
<text text-anchor="middle" x="1015" y="-229.8" font-family="Times,serif" font-size="14.00">FeeStructureService </text>
</g>
<!-- FeeManagementModule&#45;&gt;FeeStructureService  -->
<g id="edge6" class="edge">
<title>FeeManagementModule&#45;&gt;FeeStructureService </title>
<path fill="none" stroke="black" stroke-dasharray="5,2" d="M1015,-187.11C1015,-187.11 1015,-205.99 1015,-205.99"/>
<polygon fill="black" stroke="black" points="1011.5,-205.99 1015,-215.99 1018.5,-205.99 1011.5,-205.99"/>
</g>
<!-- InvoiceResolver  -->
<g id="node8" class="node">
<title>InvoiceResolver </title>
<polygon fill="#fb8072" stroke="black" points="930.74,-252 819.26,-252 819.26,-216 930.74,-216 930.74,-252"/>
<text text-anchor="middle" x="875" y="-229.8" font-family="Times,serif" font-size="14.00">InvoiceResolver </text>
</g>
<!-- FeeManagementModule&#45;&gt;InvoiceResolver  -->
<g id="edge7" class="edge">
<title>FeeManagementModule&#45;&gt;InvoiceResolver </title>
<path fill="none" stroke="black" stroke-dasharray="5,2" d="M943.54,-187.11C943.54,-206.34 943.54,-234 943.54,-234 943.54,-234 940.65,-234 940.65,-234"/>
<polygon fill="black" stroke="black" points="940.65,-230.5 930.65,-234 940.65,-237.5 940.65,-230.5"/>
</g>
<!-- InvoiceService  -->
<g id="node9" class="node">
<title>InvoiceService </title>
<polygon fill="#fb8072" stroke="black" points="801.96,-252 698.04,-252 698.04,-216 801.96,-216 801.96,-252"/>
<text text-anchor="middle" x="750" y="-229.8" font-family="Times,serif" font-size="14.00">InvoiceService </text>
</g>
<!-- FeeManagementModule&#45;&gt;InvoiceService  -->
<g id="edge8" class="edge">
<title>FeeManagementModule&#45;&gt;InvoiceService </title>
<path fill="none" stroke="black" stroke-dasharray="5,2" d="M938.35,-183C860.09,-183 750,-183 750,-183 750,-183 750,-205.88 750,-205.88"/>
<polygon fill="black" stroke="black" points="746.5,-205.88 750,-215.88 753.5,-205.88 746.5,-205.88"/>
</g>
<!-- ReceiptResolver  -->
<g id="node10" class="node">
<title>ReceiptResolver </title>
<polygon fill="#fb8072" stroke="black" points="680.02,-252 567.98,-252 567.98,-216 680.02,-216 680.02,-252"/>
<text text-anchor="middle" x="624" y="-229.8" font-family="Times,serif" font-size="14.00">ReceiptResolver </text>
</g>
<!-- FeeManagementModule&#45;&gt;ReceiptResolver  -->
<g id="edge9" class="edge">
<title>FeeManagementModule&#45;&gt;ReceiptResolver </title>
<path fill="none" stroke="black" stroke-dasharray="5,2" d="M938.64,-178C836.22,-178 667.07,-178 667.07,-178 667.07,-178 667.07,-205.97 667.07,-205.97"/>
<polygon fill="black" stroke="black" points="663.57,-205.97 667.07,-215.97 670.57,-205.97 663.57,-205.97"/>
</g>
<!-- FeeAssignmentService -->
<g id="node11" class="node">
<title>FeeAssignmentService</title>
<ellipse fill="#fdb462" stroke="black" cx="1634" cy="-104" rx="100.14" ry="18"/>
<text text-anchor="middle" x="1634" y="-99.8" font-family="Times,serif" font-size="14.00">FeeAssignmentService</text>
</g>
<!-- FeeAssignmentService&#45;&gt;FeeManagementModule -->
<g id="edge10" class="edge">
<title>FeeAssignmentService&#45;&gt;FeeManagementModule</title>
<path fill="none" stroke="black" d="M1549.11,-113.53C1549.11,-130.69 1549.11,-165 1549.11,-165 1549.11,-165 1101.52,-165 1101.52,-165"/>
<polygon fill="black" stroke="black" points="1101.52,-161.5 1091.52,-165 1101.52,-168.5 1101.52,-161.5"/>
</g>
<!-- FeeBucketService -->
<g id="node12" class="node">
<title>FeeBucketService</title>
<ellipse fill="#fdb462" stroke="black" cx="1435" cy="-104" rx="81.08" ry="18"/>
<text text-anchor="middle" x="1435" y="-99.8" font-family="Times,serif" font-size="14.00">FeeBucketService</text>
</g>
<!-- FeeBucketService&#45;&gt;FeeManagementModule -->
<g id="edge11" class="edge">
<title>FeeBucketService&#45;&gt;FeeManagementModule</title>
<path fill="none" stroke="black" d="M1375.69,-116.43C1375.69,-132.93 1375.69,-160 1375.69,-160 1375.69,-160 1101.49,-160 1101.49,-160"/>
<polygon fill="black" stroke="black" points="1101.49,-156.5 1091.49,-160 1101.49,-163.5 1101.49,-156.5"/>
</g>
<!-- FeeStructureItemService -->
<g id="node13" class="node">
<title>FeeStructureItemService</title>
<ellipse fill="#fdb462" stroke="black" cx="1229" cy="-104" rx="107.05" ry="18"/>
<text text-anchor="middle" x="1229" y="-99.8" font-family="Times,serif" font-size="14.00">FeeStructureItemService</text>
</g>
<!-- FeeStructureItemService&#45;&gt;FeeManagementModule -->
<g id="edge12" class="edge">
<title>FeeStructureItemService&#45;&gt;FeeManagementModule</title>
<path fill="none" stroke="black" d="M1190.15,-121.03C1190.15,-136.19 1190.15,-156 1190.15,-156 1190.15,-156 1101.57,-156 1101.57,-156"/>
<polygon fill="black" stroke="black" points="1101.57,-152.5 1091.57,-156 1101.57,-159.5 1101.57,-152.5"/>
</g>
<!-- FeeStructureService -->
<g id="node14" class="node">
<title>FeeStructureService</title>
<ellipse fill="#fdb462" stroke="black" cx="1015" cy="-104" rx="89.16" ry="18"/>
<text text-anchor="middle" x="1015" y="-99.8" font-family="Times,serif" font-size="14.00">FeeStructureService</text>
</g>
<!-- FeeStructureService&#45;&gt;FeeManagementModule -->
<g id="edge13" class="edge">
<title>FeeStructureService&#45;&gt;FeeManagementModule</title>
<path fill="none" stroke="black" d="M1015,-122.11C1015,-122.11 1015,-140.99 1015,-140.99"/>
<polygon fill="black" stroke="black" points="1011.5,-140.99 1015,-150.99 1018.5,-140.99 1011.5,-140.99"/>
</g>
<!-- FeeStructureSummaryService -->
<g id="node15" class="node">
<title>FeeStructureSummaryService</title>
<ellipse fill="#fdb462" stroke="black" cx="781" cy="-104" rx="126.76" ry="18"/>
<text text-anchor="middle" x="781" y="-99.8" font-family="Times,serif" font-size="14.00">FeeStructureSummaryService</text>
</g>
<!-- FeeStructureSummaryService&#45;&gt;FeeManagementModule -->
<g id="edge14" class="edge">
<title>FeeStructureSummaryService&#45;&gt;FeeManagementModule</title>
<path fill="none" stroke="black" d="M863.63,-117.66C863.63,-133.07 863.63,-156 863.63,-156 863.63,-156 928.43,-156 928.43,-156"/>
<polygon fill="black" stroke="black" points="928.43,-159.5 938.43,-156 928.43,-152.5 928.43,-159.5"/>
</g>
<!-- InvoiceService -->
<g id="node16" class="node">
<title>InvoiceService</title>
<ellipse fill="#fdb462" stroke="black" cx="567" cy="-104" rx="68.9" ry="18"/>
<text text-anchor="middle" x="567" y="-99.8" font-family="Times,serif" font-size="14.00">InvoiceService</text>
</g>
<!-- InvoiceService&#45;&gt;FeeManagementModule -->
<g id="edge15" class="edge">
<title>InvoiceService&#45;&gt;FeeManagementModule</title>
<path fill="none" stroke="black" d="M601.97,-119.6C601.97,-136.17 601.97,-160 601.97,-160 601.97,-160 928.28,-160 928.28,-160"/>
<polygon fill="black" stroke="black" points="928.28,-163.5 938.28,-160 928.28,-156.5 928.28,-163.5"/>
</g>
<!-- LedgerService -->
<g id="node17" class="node">
<title>LedgerService</title>
<ellipse fill="#fdb462" stroke="black" cx="413" cy="-104" rx="67.17" ry="18"/>
<text text-anchor="middle" x="413" y="-99.8" font-family="Times,serif" font-size="14.00">LedgerService</text>
</g>
<!-- LedgerService&#45;&gt;FeeManagementModule -->
<g id="edge16" class="edge">
<title>LedgerService&#45;&gt;FeeManagementModule</title>
<path fill="none" stroke="black" d="M413,-122.3C413,-140.27 413,-165 413,-165 413,-165 928.45,-165 928.45,-165"/>
<polygon fill="black" stroke="black" points="928.45,-168.5 938.45,-165 928.45,-161.5 928.45,-168.5"/>
</g>
<!-- PaymentService -->
<g id="node18" class="node">
<title>PaymentService</title>
<ellipse fill="#fdb462" stroke="black" cx="254" cy="-104" rx="73.57" ry="18"/>
<text text-anchor="middle" x="254" y="-99.8" font-family="Times,serif" font-size="14.00">PaymentService</text>
</g>
<!-- PaymentService&#45;&gt;FeeManagementModule -->
<g id="edge17" class="edge">
<title>PaymentService&#45;&gt;FeeManagementModule</title>
<path fill="none" stroke="black" d="M254,-122.11C254,-141.34 254,-169 254,-169 254,-169 928.55,-169 928.55,-169"/>
<polygon fill="black" stroke="black" points="928.55,-172.5 938.55,-169 928.55,-165.5 928.55,-172.5"/>
</g>
<!-- ReceiptService -->
<g id="node19" class="node">
<title>ReceiptService</title>
<ellipse fill="#fdb462" stroke="black" cx="93" cy="-104" rx="69.48" ry="18"/>
<text text-anchor="middle" x="93" y="-99.8" font-family="Times,serif" font-size="14.00">ReceiptService</text>
</g>
<!-- ReceiptService&#45;&gt;FeeManagementModule -->
<g id="edge18" class="edge">
<title>ReceiptService&#45;&gt;FeeManagementModule</title>
<path fill="none" stroke="black" d="M93,-122.03C93,-142.77 93,-174 93,-174 93,-174 928.37,-174 928.37,-174"/>
<polygon fill="black" stroke="black" points="928.37,-177.5 938.37,-174 928.37,-170.5 928.37,-177.5"/>
</g>
</g>
</svg>
