<?xml version="1.0" encoding="UTF-8" standalone="no"?>
<!DOCTYPE svg PUBLIC "-//W3C//DTD SVG 1.1//EN"
 "http://www.w3.org/Graphics/SVG/1.1/DTD/svg11.dtd">
<!-- Generated by graphviz version 2.47.0 (20210316.0004)
 -->
<!-- Title: dependencies Pages: 1 -->
<svg width="504pt" height="284pt"
 viewBox="0.00 0.00 504.00 284.00" xmlns="http://www.w3.org/2000/svg" xmlns:xlink="http://www.w3.org/1999/xlink">
<g id="graph0" class="graph" transform="scale(1 1) rotate(0) translate(4 280)">
<title>dependencies</title>
<polygon fill="white" stroke="transparent" points="-4,4 -4,-280 500,-280 500,4 -4,4"/>
<text text-anchor="start" x="227.01" y="-42.4" font-family="Times-12" font-weight="bold" font-size="14.00">Legend</text>
<polygon fill="#ffffb3" stroke="transparent" points="14,-10 14,-30 34,-30 34,-10 14,-10"/>
<text text-anchor="start" x="37.63" y="-15.4" font-family="Times-12" font-size="14.00"> &#160;Declarations</text>
<polygon fill="#8dd3c7" stroke="transparent" points="127,-10 127,-30 147,-30 147,-10 127,-10"/>
<text text-anchor="start" x="150.73" y="-15.4" font-family="Times-12" font-size="14.00"> &#160;Module</text>
<polygon fill="#80b1d3" stroke="transparent" points="213,-10 213,-30 233,-30 233,-10 213,-10"/>
<text text-anchor="start" x="236.78" y="-15.4" font-family="Times-12" font-size="14.00"> &#160;Bootstrap</text>
<polygon fill="#fdb462" stroke="transparent" points="310,-10 310,-30 330,-30 330,-10 310,-10"/>
<text text-anchor="start" x="333.67" y="-15.4" font-family="Times-12" font-size="14.00"> &#160;Providers</text>
<polygon fill="#fb8072" stroke="transparent" points="406,-10 406,-30 426,-30 426,-10 406,-10"/>
<text text-anchor="start" x="429.73" y="-15.4" font-family="Times-12" font-size="14.00"> &#160;Exports</text>
<g id="clust1" class="cluster">
<title>cluster_SchoolConfigModule</title>
<polygon fill="none" stroke="black" stroke-dasharray="1,5" points="43,-70 43,-268 453,-268 453,-70 43,-70"/>
</g>
<g id="clust6" class="cluster">
<title>cluster_SchoolConfigModule_providers</title>
<polygon fill="none" stroke="black" points="203,-78 203,-130 445,-130 445,-78 203,-78"/>
</g>
<g id="clust4" class="cluster">
<title>cluster_SchoolConfigModule_exports</title>
<polygon fill="none" stroke="black" points="141,-208 141,-260 325,-260 325,-208 141,-208"/>
</g>
<g id="clust3" class="cluster">
<title>cluster_SchoolConfigModule_imports</title>
<polygon fill="none" stroke="black" points="51,-78 51,-130 195,-130 195,-78 51,-78"/>
</g>
<!-- SchoolTypeModule -->
<g id="node1" class="node">
<title>SchoolTypeModule</title>
<polygon fill="#8dd3c7" stroke="black" points="186.7,-122 183.7,-126 162.7,-126 159.7,-122 59.3,-122 59.3,-86 186.7,-86 186.7,-122"/>
<text text-anchor="middle" x="123" y="-99.8" font-family="Times,serif" font-size="14.00">SchoolTypeModule</text>
</g>
<!-- SchoolConfigModule -->
<g id="node2" class="node">
<title>SchoolConfigModule</title>
<polygon fill="#8dd3c7" stroke="black" points="301.83,-187 298.83,-191 277.83,-191 274.83,-187 164.17,-187 164.17,-151 301.83,-151 301.83,-187"/>
<text text-anchor="middle" x="233" y="-164.8" font-family="Times,serif" font-size="14.00">SchoolConfigModule</text>
</g>
<!-- SchoolTypeModule&#45;&gt;SchoolConfigModule -->
<g id="edge1" class="edge">
<title>SchoolTypeModule&#45;&gt;SchoolConfigModule</title>
<path fill="none" stroke="black" d="M175.47,-122.11C175.47,-122.11 175.47,-140.99 175.47,-140.99"/>
<polygon fill="black" stroke="black" points="171.97,-140.99 175.47,-150.99 178.97,-140.99 171.97,-140.99"/>
</g>
<!-- SchoolSetupGuardService  -->
<g id="node3" class="node">
<title>SchoolSetupGuardService </title>
<polygon fill="#fb8072" stroke="black" points="316.74,-252 149.26,-252 149.26,-216 316.74,-216 316.74,-252"/>
<text text-anchor="middle" x="233" y="-229.8" font-family="Times,serif" font-size="14.00">SchoolSetupGuardService </text>
</g>
<!-- SchoolConfigModule&#45;&gt;SchoolSetupGuardService  -->
<g id="edge2" class="edge">
<title>SchoolConfigModule&#45;&gt;SchoolSetupGuardService </title>
<path fill="none" stroke="black" stroke-dasharray="5,2" d="M233,-187.11C233,-187.11 233,-205.99 233,-205.99"/>
<polygon fill="black" stroke="black" points="229.5,-205.99 233,-215.99 236.5,-205.99 229.5,-205.99"/>
</g>
<!-- SchoolSetupGuardService -->
<g id="node4" class="node">
<title>SchoolSetupGuardService</title>
<ellipse fill="#fdb462" stroke="black" cx="324" cy="-104" rx="112.88" ry="18"/>
<text text-anchor="middle" x="324" y="-99.8" font-family="Times,serif" font-size="14.00">SchoolSetupGuardService</text>
</g>
<!-- SchoolSetupGuardService&#45;&gt;SchoolConfigModule -->
<g id="edge3" class="edge">
<title>SchoolSetupGuardService&#45;&gt;SchoolConfigModule</title>
<path fill="none" stroke="black" d="M256.36,-118.43C256.36,-118.43 256.36,-140.89 256.36,-140.89"/>
<polygon fill="black" stroke="black" points="252.86,-140.89 256.36,-150.89 259.86,-140.89 252.86,-140.89"/>
</g>
</g>
</svg>
