<?xml version="1.0" encoding="UTF-8" standalone="no"?>
<!DOCTYPE svg PUBLIC "-//W3C//DTD SVG 1.1//EN"
 "http://www.w3.org/Graphics/SVG/1.1/DTD/svg11.dtd">
<!-- Generated by graphviz version 2.47.0 (20210316.0004)
 -->
<!-- Title: dependencies Pages: 1 -->
<svg width="504pt" height="211pt"
 viewBox="0.00 0.00 504.00 211.00" xmlns="http://www.w3.org/2000/svg" xmlns:xlink="http://www.w3.org/1999/xlink">
<g id="graph0" class="graph" transform="scale(1 1) rotate(0) translate(4 207)">
<title>dependencies</title>
<polygon fill="white" stroke="transparent" points="-4,4 -4,-207 500,-207 500,4 -4,4"/>
<text text-anchor="start" x="227.01" y="-42.4" font-family="Times-12" font-weight="bold" font-size="14.00">Legend</text>
<polygon fill="#ffffb3" stroke="transparent" points="14,-10 14,-30 34,-30 34,-10 14,-10"/>
<text text-anchor="start" x="37.63" y="-15.4" font-family="Times-12" font-size="14.00"> &#160;Declarations</text>
<polygon fill="#8dd3c7" stroke="transparent" points="127,-10 127,-30 147,-30 147,-10 127,-10"/>
<text text-anchor="start" x="150.73" y="-15.4" font-family="Times-12" font-size="14.00"> &#160;Module</text>
<polygon fill="#80b1d3" stroke="transparent" points="213,-10 213,-30 233,-30 233,-10 213,-10"/>
<text text-anchor="start" x="236.78" y="-15.4" font-family="Times-12" font-size="14.00"> &#160;Bootstrap</text>
<polygon fill="#fdb462" stroke="transparent" points="310,-10 310,-30 330,-30 330,-10 310,-10"/>
<text text-anchor="start" x="333.67" y="-15.4" font-family="Times-12" font-size="14.00"> &#160;Providers</text>
<polygon fill="#fb8072" stroke="transparent" points="406,-10 406,-30 426,-30 426,-10 406,-10"/>
<text text-anchor="start" x="429.73" y="-15.4" font-family="Times-12" font-size="14.00"> &#160;Exports</text>
<g id="clust1" class="cluster">
<title>cluster_TeacherParentsModule</title>
<polygon fill="none" stroke="black" stroke-dasharray="1,5" points="19.5,-70 19.5,-195 476.5,-195 476.5,-70 19.5,-70"/>
</g>
<g id="clust6" class="cluster">
<title>cluster_TeacherParentsModule_providers</title>
<polygon fill="none" stroke="black" points="27.5,-78 27.5,-130 468.5,-130 468.5,-78 27.5,-78"/>
</g>
<!-- TeacherParentsProvider -->
<g id="node1" class="node">
<title>TeacherParentsProvider</title>
<ellipse fill="#fdb462" stroke="black" cx="356.5" cy="-104" rx="103.61" ry="18"/>
<text text-anchor="middle" x="356.5" y="-99.8" font-family="Times,serif" font-size="14.00">TeacherParentsProvider</text>
</g>
<!-- TeacherParentsModule -->
<g id="node3" class="node">
<title>TeacherParentsModule</title>
<polygon fill="#8dd3c7" stroke="black" points="318.33,-187 315.33,-191 294.33,-191 291.33,-187 172.67,-187 172.67,-151 318.33,-151 318.33,-187"/>
<text text-anchor="middle" x="245.5" y="-164.8" font-family="Times,serif" font-size="14.00">TeacherParentsModule</text>
</g>
<!-- TeacherParentsProvider&#45;&gt;TeacherParentsModule -->
<g id="edge1" class="edge">
<title>TeacherParentsProvider&#45;&gt;TeacherParentsModule</title>
<path fill="none" stroke="black" d="M285.56,-117.15C285.56,-117.15 285.56,-140.69 285.56,-140.69"/>
<polygon fill="black" stroke="black" points="282.06,-140.69 285.56,-150.69 289.06,-140.69 282.06,-140.69"/>
</g>
<!-- TeacherParentsService -->
<g id="node2" class="node">
<title>TeacherParentsService</title>
<ellipse fill="#fdb462" stroke="black" cx="135.5" cy="-104" rx="99.51" ry="18"/>
<text text-anchor="middle" x="135.5" y="-99.8" font-family="Times,serif" font-size="14.00">TeacherParentsService</text>
</g>
<!-- TeacherParentsService&#45;&gt;TeacherParentsModule -->
<g id="edge2" class="edge">
<title>TeacherParentsService&#45;&gt;TeacherParentsModule</title>
<path fill="none" stroke="black" d="M203.8,-117.15C203.8,-117.15 203.8,-140.69 203.8,-140.69"/>
<polygon fill="black" stroke="black" points="200.3,-140.69 203.8,-150.69 207.3,-140.69 200.3,-140.69"/>
</g>
</g>
</svg>
