<?xml version="1.0" encoding="UTF-8" standalone="no"?>
<!DOCTYPE svg PUBLIC "-//W3C//DTD SVG 1.1//EN"
 "http://www.w3.org/Graphics/SVG/1.1/DTD/svg11.dtd">
<!-- Generated by graphviz version 2.47.0 (20210316.0004)
 -->
<!-- Title: dependencies Pages: 1 -->
<svg width="1023pt" height="284pt"
 viewBox="0.00 0.00 1023.00 284.00" xmlns="http://www.w3.org/2000/svg" xmlns:xlink="http://www.w3.org/1999/xlink">
<g id="graph0" class="graph" transform="scale(1 1) rotate(0) translate(4 280)">
<title>dependencies</title>
<polygon fill="white" stroke="transparent" points="-4,4 -4,-280 1019,-280 1019,4 -4,4"/>
<text text-anchor="start" x="486.51" y="-42.4" font-family="Times-12" font-weight="bold" font-size="14.00">Legend</text>
<polygon fill="#ffffb3" stroke="transparent" points="273.5,-10 273.5,-30 293.5,-30 293.5,-10 273.5,-10"/>
<text text-anchor="start" x="297.13" y="-15.4" font-family="Times-12" font-size="14.00"> &#160;Declarations</text>
<polygon fill="#8dd3c7" stroke="transparent" points="386.5,-10 386.5,-30 406.5,-30 406.5,-10 386.5,-10"/>
<text text-anchor="start" x="410.23" y="-15.4" font-family="Times-12" font-size="14.00"> &#160;Module</text>
<polygon fill="#80b1d3" stroke="transparent" points="472.5,-10 472.5,-30 492.5,-30 492.5,-10 472.5,-10"/>
<text text-anchor="start" x="496.28" y="-15.4" font-family="Times-12" font-size="14.00"> &#160;Bootstrap</text>
<polygon fill="#fdb462" stroke="transparent" points="569.5,-10 569.5,-30 589.5,-30 589.5,-10 569.5,-10"/>
<text text-anchor="start" x="593.17" y="-15.4" font-family="Times-12" font-size="14.00"> &#160;Providers</text>
<polygon fill="#fb8072" stroke="transparent" points="665.5,-10 665.5,-30 685.5,-30 685.5,-10 665.5,-10"/>
<text text-anchor="start" x="689.23" y="-15.4" font-family="Times-12" font-size="14.00"> &#160;Exports</text>
<g id="clust1" class="cluster">
<title>cluster_TeacherModule</title>
<polygon fill="none" stroke="black" stroke-dasharray="1,5" points="8,-70 8,-268 1007,-268 1007,-70 8,-70"/>
</g>
<g id="clust3" class="cluster">
<title>cluster_TeacherModule_imports</title>
<polygon fill="none" stroke="black" points="16,-78 16,-130 999,-130 999,-78 16,-78"/>
</g>
<g id="clust4" class="cluster">
<title>cluster_TeacherModule_exports</title>
<polygon fill="none" stroke="black" points="477,-208 477,-260 581,-260 581,-208 477,-208"/>
</g>
<!-- AttendanceModule -->
<g id="node1" class="node">
<title>AttendanceModule</title>
<polygon fill="#8dd3c7" stroke="black" points="990.8,-122 987.8,-126 966.8,-126 963.8,-122 867.2,-122 867.2,-86 990.8,-86 990.8,-122"/>
<text text-anchor="middle" x="929" y="-99.8" font-family="Times,serif" font-size="14.00">AttendanceModule</text>
</g>
<!-- TeacherModule -->
<g id="node8" class="node">
<title>TeacherModule</title>
<polygon fill="#8dd3c7" stroke="black" points="581.12,-187 578.12,-191 557.12,-191 554.12,-187 476.88,-187 476.88,-151 581.12,-151 581.12,-187"/>
<text text-anchor="middle" x="529" y="-164.8" font-family="Times,serif" font-size="14.00">TeacherModule</text>
</g>
<!-- AttendanceModule&#45;&gt;TeacherModule -->
<g id="edge1" class="edge">
<title>AttendanceModule&#45;&gt;TeacherModule</title>
<path fill="none" stroke="black" d="M929,-122.29C929,-144.21 929,-178 929,-178 929,-178 591.29,-178 591.29,-178"/>
<polygon fill="black" stroke="black" points="591.29,-174.5 581.29,-178 591.29,-181.5 591.29,-174.5"/>
</g>
<!-- MarksheetModule -->
<g id="node2" class="node">
<title>MarksheetModule</title>
<polygon fill="#8dd3c7" stroke="black" points="849.13,-122 846.13,-126 825.13,-126 822.13,-122 730.87,-122 730.87,-86 849.13,-86 849.13,-122"/>
<text text-anchor="middle" x="790" y="-99.8" font-family="Times,serif" font-size="14.00">MarksheetModule</text>
</g>
<!-- MarksheetModule&#45;&gt;TeacherModule -->
<g id="edge2" class="edge">
<title>MarksheetModule&#45;&gt;TeacherModule</title>
<path fill="none" stroke="black" d="M790,-122.11C790,-141.34 790,-169 790,-169 790,-169 591.19,-169 591.19,-169"/>
<polygon fill="black" stroke="black" points="591.19,-165.5 581.19,-169 591.19,-172.5 591.19,-165.5"/>
</g>
<!-- SearchModule -->
<g id="node3" class="node">
<title>SearchModule</title>
<polygon fill="#8dd3c7" stroke="black" points="712.64,-122 709.64,-126 688.64,-126 685.64,-122 615.36,-122 615.36,-86 712.64,-86 712.64,-122"/>
<text text-anchor="middle" x="664" y="-99.8" font-family="Times,serif" font-size="14.00">SearchModule</text>
</g>
<!-- SearchModule&#45;&gt;TeacherModule -->
<g id="edge3" class="edge">
<title>SearchModule&#45;&gt;TeacherModule</title>
<path fill="none" stroke="black" d="M664,-122.03C664,-138.4 664,-160 664,-160 664,-160 591.19,-160 591.19,-160"/>
<polygon fill="black" stroke="black" points="591.19,-156.5 581.19,-160 591.19,-163.5 591.19,-156.5"/>
</g>
<!-- TeacherNotesModule -->
<g id="node4" class="node">
<title>TeacherNotesModule</title>
<polygon fill="#8dd3c7" stroke="black" points="597.78,-122 594.78,-126 573.78,-126 570.78,-122 460.22,-122 460.22,-86 597.78,-86 597.78,-122"/>
<text text-anchor="middle" x="529" y="-99.8" font-family="Times,serif" font-size="14.00">TeacherNotesModule</text>
</g>
<!-- TeacherNotesModule&#45;&gt;TeacherModule -->
<g id="edge4" class="edge">
<title>TeacherNotesModule&#45;&gt;TeacherModule</title>
<path fill="none" stroke="black" d="M529,-122.11C529,-122.11 529,-140.99 529,-140.99"/>
<polygon fill="black" stroke="black" points="525.5,-140.99 529,-150.99 532.5,-140.99 525.5,-140.99"/>
</g>
<!-- TeacherParentsModule -->
<g id="node5" class="node">
<title>TeacherParentsModule</title>
<polygon fill="#8dd3c7" stroke="black" points="441.83,-122 438.83,-126 417.83,-126 414.83,-122 296.17,-122 296.17,-86 441.83,-86 441.83,-122"/>
<text text-anchor="middle" x="369" y="-99.8" font-family="Times,serif" font-size="14.00">TeacherParentsModule</text>
</g>
<!-- TeacherParentsModule&#45;&gt;TeacherModule -->
<g id="edge5" class="edge">
<title>TeacherParentsModule&#45;&gt;TeacherModule</title>
<path fill="none" stroke="black" d="M369,-122.03C369,-138.4 369,-160 369,-160 369,-160 466.61,-160 466.61,-160"/>
<polygon fill="black" stroke="black" points="466.61,-163.5 476.61,-160 466.61,-156.5 466.61,-163.5"/>
</g>
<!-- TeacherStudentsModule -->
<g id="node6" class="node">
<title>TeacherStudentsModule</title>
<polygon fill="#8dd3c7" stroke="black" points="278.34,-122 275.34,-126 254.34,-126 251.34,-122 125.66,-122 125.66,-86 278.34,-86 278.34,-122"/>
<text text-anchor="middle" x="202" y="-99.8" font-family="Times,serif" font-size="14.00">TeacherStudentsModule</text>
</g>
<!-- TeacherStudentsModule&#45;&gt;TeacherModule -->
<g id="edge6" class="edge">
<title>TeacherStudentsModule&#45;&gt;TeacherModule</title>
<path fill="none" stroke="black" d="M202,-122.11C202,-141.34 202,-169 202,-169 202,-169 466.82,-169 466.82,-169"/>
<polygon fill="black" stroke="black" points="466.82,-172.5 476.82,-169 466.82,-165.5 466.82,-172.5"/>
</g>
<!-- TestModule -->
<g id="node7" class="node">
<title>TestModule</title>
<polygon fill="#8dd3c7" stroke="black" points="107.65,-122 104.65,-126 83.65,-126 80.65,-122 24.35,-122 24.35,-86 107.65,-86 107.65,-122"/>
<text text-anchor="middle" x="66" y="-99.8" font-family="Times,serif" font-size="14.00">TestModule</text>
</g>
<!-- TestModule&#45;&gt;TeacherModule -->
<g id="edge7" class="edge">
<title>TestModule&#45;&gt;TeacherModule</title>
<path fill="none" stroke="black" d="M66,-122.29C66,-144.21 66,-178 66,-178 66,-178 466.79,-178 466.79,-178"/>
<polygon fill="black" stroke="black" points="466.79,-181.5 476.79,-178 466.79,-174.5 466.79,-181.5"/>
</g>
<!-- TestModule  -->
<g id="node9" class="node">
<title>TestModule </title>
<polygon fill="#fb8072" stroke="black" points="572.65,-252 485.35,-252 485.35,-216 572.65,-216 572.65,-252"/>
<text text-anchor="middle" x="529" y="-229.8" font-family="Times,serif" font-size="14.00">TestModule </text>
</g>
<!-- TeacherModule&#45;&gt;TestModule  -->
<g id="edge8" class="edge">
<title>TeacherModule&#45;&gt;TestModule </title>
<path fill="none" stroke="black" stroke-dasharray="5,2" d="M529,-187.11C529,-187.11 529,-205.99 529,-205.99"/>
<polygon fill="black" stroke="black" points="525.5,-205.99 529,-215.99 532.5,-205.99 525.5,-205.99"/>
</g>
</g>
</svg>
