<?xml version="1.0" encoding="UTF-8" standalone="no"?>
<!DOCTYPE svg PUBLIC "-//W3C//DTD SVG 1.1//EN"
 "http://www.w3.org/Graphics/SVG/1.1/DTD/svg11.dtd">
<!-- Generated by graphviz version 2.47.0 (20210316.0004)
 -->
<!-- Title: dependencies Pages: 1 -->
<svg width="1622pt" height="284pt"
 viewBox="0.00 0.00 1622.00 284.00" xmlns="http://www.w3.org/2000/svg" xmlns:xlink="http://www.w3.org/1999/xlink">
<g id="graph0" class="graph" transform="scale(1 1) rotate(0) translate(4 280)">
<title>dependencies</title>
<polygon fill="white" stroke="transparent" points="-4,4 -4,-280 1618,-280 1618,4 -4,4"/>
<text text-anchor="start" x="786.01" y="-42.4" font-family="Times-12" font-weight="bold" font-size="14.00">Legend</text>
<polygon fill="#ffffb3" stroke="transparent" points="573,-10 573,-30 593,-30 593,-10 573,-10"/>
<text text-anchor="start" x="596.63" y="-15.4" font-family="Times-12" font-size="14.00"> &#160;Declarations</text>
<polygon fill="#8dd3c7" stroke="transparent" points="686,-10 686,-30 706,-30 706,-10 686,-10"/>
<text text-anchor="start" x="709.73" y="-15.4" font-family="Times-12" font-size="14.00"> &#160;Module</text>
<polygon fill="#80b1d3" stroke="transparent" points="772,-10 772,-30 792,-30 792,-10 772,-10"/>
<text text-anchor="start" x="795.78" y="-15.4" font-family="Times-12" font-size="14.00"> &#160;Bootstrap</text>
<polygon fill="#fdb462" stroke="transparent" points="869,-10 869,-30 889,-30 889,-10 869,-10"/>
<text text-anchor="start" x="892.67" y="-15.4" font-family="Times-12" font-size="14.00"> &#160;Providers</text>
<polygon fill="#fb8072" stroke="transparent" points="965,-10 965,-30 985,-30 985,-10 965,-10"/>
<text text-anchor="start" x="988.73" y="-15.4" font-family="Times-12" font-size="14.00"> &#160;Exports</text>
<g id="clust1" class="cluster">
<title>cluster_StreamsModule</title>
<polygon fill="none" stroke="black" stroke-dasharray="1,5" points="8,-70 8,-268 1606,-268 1606,-70 8,-70"/>
</g>
<g id="clust3" class="cluster">
<title>cluster_StreamsModule_imports</title>
<polygon fill="none" stroke="black" points="1345,-78 1345,-130 1598,-130 1598,-78 1345,-78"/>
</g>
<g id="clust6" class="cluster">
<title>cluster_StreamsModule_providers</title>
<polygon fill="none" stroke="black" points="16,-78 16,-130 1337,-130 1337,-78 16,-78"/>
</g>
<g id="clust4" class="cluster">
<title>cluster_StreamsModule_exports</title>
<polygon fill="none" stroke="black" points="642,-208 642,-260 1160,-260 1160,-208 642,-208"/>
</g>
<!-- LevelModule -->
<g id="node1" class="node">
<title>LevelModule</title>
<polygon fill="#8dd3c7" stroke="black" points="1589.92,-122 1586.92,-126 1565.92,-126 1562.92,-122 1498.08,-122 1498.08,-86 1589.92,-86 1589.92,-122"/>
<text text-anchor="middle" x="1544" y="-99.8" font-family="Times,serif" font-size="14.00">LevelModule</text>
</g>
<!-- StreamsModule -->
<g id="node3" class="node">
<title>StreamsModule</title>
<polygon fill="#8dd3c7" stroke="black" points="915.15,-187 912.15,-191 891.15,-191 888.15,-187 810.85,-187 810.85,-151 915.15,-151 915.15,-187"/>
<text text-anchor="middle" x="863" y="-164.8" font-family="Times,serif" font-size="14.00">StreamsModule</text>
</g>
<!-- LevelModule&#45;&gt;StreamsModule -->
<g id="edge1" class="edge">
<title>LevelModule&#45;&gt;StreamsModule</title>
<path fill="none" stroke="black" d="M1544,-122.13C1544,-142.57 1544,-173 1544,-173 1544,-173 925.31,-173 925.31,-173"/>
<polygon fill="black" stroke="black" points="925.31,-169.5 915.31,-173 925.31,-176.5 925.31,-169.5"/>
</g>
<!-- SchoolTypeModule -->
<g id="node2" class="node">
<title>SchoolTypeModule</title>
<polygon fill="#8dd3c7" stroke="black" points="1480.7,-122 1477.7,-126 1456.7,-126 1453.7,-122 1353.3,-122 1353.3,-86 1480.7,-86 1480.7,-122"/>
<text text-anchor="middle" x="1417" y="-99.8" font-family="Times,serif" font-size="14.00">SchoolTypeModule</text>
</g>
<!-- SchoolTypeModule&#45;&gt;StreamsModule -->
<g id="edge2" class="edge">
<title>SchoolTypeModule&#45;&gt;StreamsModule</title>
<path fill="none" stroke="black" d="M1417,-122.27C1417,-140.56 1417,-166 1417,-166 1417,-166 925.62,-166 925.62,-166"/>
<polygon fill="black" stroke="black" points="925.62,-162.5 915.62,-166 925.62,-169.5 925.62,-162.5"/>
</g>
<!-- CreateTenantStreamProvider  -->
<g id="node4" class="node">
<title>CreateTenantStreamProvider </title>
<polygon fill="#fb8072" stroke="black" points="1152.27,-252 969.73,-252 969.73,-216 1152.27,-216 1152.27,-252"/>
<text text-anchor="middle" x="1061" y="-229.8" font-family="Times,serif" font-size="14.00">CreateTenantStreamProvider </text>
</g>
<!-- StreamsModule&#45;&gt;CreateTenantStreamProvider  -->
<g id="edge3" class="edge">
<title>StreamsModule&#45;&gt;CreateTenantStreamProvider </title>
<path fill="none" stroke="black" stroke-dasharray="5,2" d="M915.25,-180C968.6,-180 1043.64,-180 1043.64,-180 1043.64,-180 1043.64,-205.72 1043.64,-205.72"/>
<polygon fill="black" stroke="black" points="1040.14,-205.72 1043.64,-215.72 1047.14,-205.72 1040.14,-205.72"/>
</g>
<!-- CreateTenantStreamService  -->
<g id="node5" class="node">
<title>CreateTenantStreamService </title>
<polygon fill="#fb8072" stroke="black" points="951.04,-252 774.96,-252 774.96,-216 951.04,-216 951.04,-252"/>
<text text-anchor="middle" x="863" y="-229.8" font-family="Times,serif" font-size="14.00">CreateTenantStreamService </text>
</g>
<!-- StreamsModule&#45;&gt;CreateTenantStreamService  -->
<g id="edge4" class="edge">
<title>StreamsModule&#45;&gt;CreateTenantStreamService </title>
<path fill="none" stroke="black" stroke-dasharray="5,2" d="M863,-187.11C863,-187.11 863,-205.99 863,-205.99"/>
<polygon fill="black" stroke="black" points="859.5,-205.99 863,-215.99 866.5,-205.99 859.5,-205.99"/>
</g>
<!-- StreamsService  -->
<g id="node6" class="node">
<title>StreamsService </title>
<polygon fill="#fb8072" stroke="black" points="756.08,-252 649.92,-252 649.92,-216 756.08,-216 756.08,-252"/>
<text text-anchor="middle" x="703" y="-229.8" font-family="Times,serif" font-size="14.00">StreamsService </text>
</g>
<!-- StreamsModule&#45;&gt;StreamsService  -->
<g id="edge5" class="edge">
<title>StreamsModule&#45;&gt;StreamsService </title>
<path fill="none" stroke="black" stroke-dasharray="5,2" d="M810.61,-180C763.95,-180 703,-180 703,-180 703,-180 703,-205.72 703,-205.72"/>
<polygon fill="black" stroke="black" points="699.5,-205.72 703,-215.72 706.5,-205.72 699.5,-205.72"/>
</g>
<!-- CreateStreamProvider -->
<g id="node7" class="node">
<title>CreateStreamProvider</title>
<ellipse fill="#fdb462" stroke="black" cx="1232" cy="-104" rx="96.68" ry="18"/>
<text text-anchor="middle" x="1232" y="-99.8" font-family="Times,serif" font-size="14.00">CreateStreamProvider</text>
</g>
<!-- CreateStreamProvider&#45;&gt;StreamsModule -->
<g id="edge6" class="edge">
<title>CreateStreamProvider&#45;&gt;StreamsModule</title>
<path fill="none" stroke="black" d="M1143.77,-111.65C1143.77,-126.76 1143.77,-159 1143.77,-159 1143.77,-159 925.15,-159 925.15,-159"/>
<polygon fill="black" stroke="black" points="925.15,-155.5 915.15,-159 925.15,-162.5 925.15,-155.5"/>
</g>
<!-- CreateTenantStreamProvider -->
<g id="node8" class="node">
<title>CreateTenantStreamProvider</title>
<ellipse fill="#fdb462" stroke="black" cx="994" cy="-104" rx="123.81" ry="18"/>
<text text-anchor="middle" x="994" y="-99.8" font-family="Times,serif" font-size="14.00">CreateTenantStreamProvider</text>
</g>
<!-- CreateTenantStreamProvider&#45;&gt;StreamsModule -->
<g id="edge7" class="edge">
<title>CreateTenantStreamProvider&#45;&gt;StreamsModule</title>
<path fill="none" stroke="black" d="M892.83,-114.44C892.83,-114.44 892.83,-140.97 892.83,-140.97"/>
<polygon fill="black" stroke="black" points="889.33,-140.97 892.83,-150.97 896.33,-140.97 889.33,-140.97"/>
</g>
<!-- CreateTenantStreamService -->
<g id="node9" class="node">
<title>CreateTenantStreamService</title>
<ellipse fill="#fdb462" stroke="black" cx="733" cy="-104" rx="119.21" ry="18"/>
<text text-anchor="middle" x="733" y="-99.8" font-family="Times,serif" font-size="14.00">CreateTenantStreamService</text>
</g>
<!-- CreateTenantStreamService&#45;&gt;StreamsModule -->
<g id="edge8" class="edge">
<title>CreateTenantStreamService&#45;&gt;StreamsModule</title>
<path fill="none" stroke="black" d="M831.52,-114.44C831.52,-114.44 831.52,-140.97 831.52,-140.97"/>
<polygon fill="black" stroke="black" points="828.02,-140.97 831.52,-150.97 835.02,-140.97 828.02,-140.97"/>
</g>
<!-- DeleteStreamProvider -->
<g id="node10" class="node">
<title>DeleteStreamProvider</title>
<ellipse fill="#fdb462" stroke="black" cx="499" cy="-104" rx="96.68" ry="18"/>
<text text-anchor="middle" x="499" y="-99.8" font-family="Times,serif" font-size="14.00">DeleteStreamProvider</text>
</g>
<!-- DeleteStreamProvider&#45;&gt;StreamsModule -->
<g id="edge9" class="edge">
<title>DeleteStreamProvider&#45;&gt;StreamsModule</title>
<path fill="none" stroke="black" d="M499,-122.01C499,-138.05 499,-159 499,-159 499,-159 800.85,-159 800.85,-159"/>
<polygon fill="black" stroke="black" points="800.85,-162.5 810.85,-159 800.85,-155.5 800.85,-162.5"/>
</g>
<!-- StreamsService -->
<g id="node11" class="node">
<title>StreamsService</title>
<ellipse fill="#fdb462" stroke="black" cx="313" cy="-104" rx="71.2" ry="18"/>
<text text-anchor="middle" x="313" y="-99.8" font-family="Times,serif" font-size="14.00">StreamsService</text>
</g>
<!-- StreamsService&#45;&gt;StreamsModule -->
<g id="edge10" class="edge">
<title>StreamsService&#45;&gt;StreamsModule</title>
<path fill="none" stroke="black" d="M313,-122.27C313,-140.56 313,-166 313,-166 313,-166 800.76,-166 800.76,-166"/>
<polygon fill="black" stroke="black" points="800.76,-169.5 810.76,-166 800.76,-162.5 800.76,-169.5"/>
</g>
<!-- UpdateStreamProvider -->
<g id="node12" class="node">
<title>UpdateStreamProvider</title>
<ellipse fill="#fdb462" stroke="black" cx="124" cy="-104" rx="99.56" ry="18"/>
<text text-anchor="middle" x="124" y="-99.8" font-family="Times,serif" font-size="14.00">UpdateStreamProvider</text>
</g>
<!-- UpdateStreamProvider&#45;&gt;StreamsModule -->
<g id="edge11" class="edge">
<title>UpdateStreamProvider&#45;&gt;StreamsModule</title>
<path fill="none" stroke="black" d="M124,-122.13C124,-142.57 124,-173 124,-173 124,-173 800.74,-173 800.74,-173"/>
<polygon fill="black" stroke="black" points="800.74,-176.5 810.74,-173 800.74,-169.5 800.74,-176.5"/>
</g>
</g>
</svg>
