<?xml version="1.0" encoding="UTF-8" standalone="no"?>
<!DOCTYPE svg PUBLIC "-//W3C//DTD SVG 1.1//EN"
 "http://www.w3.org/Graphics/SVG/1.1/DTD/svg11.dtd">
<!-- Generated by graphviz version 2.47.0 (20210316.0004)
 -->
<!-- Title: dependencies Pages: 1 -->
<svg width="674pt" height="211pt"
 viewBox="0.00 0.00 674.00 211.00" xmlns="http://www.w3.org/2000/svg" xmlns:xlink="http://www.w3.org/1999/xlink">
<g id="graph0" class="graph" transform="scale(1 1) rotate(0) translate(4 207)">
<title>dependencies</title>
<polygon fill="white" stroke="transparent" points="-4,4 -4,-207 670,-207 670,4 -4,4"/>
<text text-anchor="start" x="312.01" y="-42.4" font-family="Times-12" font-weight="bold" font-size="14.00">Legend</text>
<polygon fill="#ffffb3" stroke="transparent" points="99,-10 99,-30 119,-30 119,-10 99,-10"/>
<text text-anchor="start" x="122.63" y="-15.4" font-family="Times-12" font-size="14.00"> &#160;Declarations</text>
<polygon fill="#8dd3c7" stroke="transparent" points="212,-10 212,-30 232,-30 232,-10 212,-10"/>
<text text-anchor="start" x="235.73" y="-15.4" font-family="Times-12" font-size="14.00"> &#160;Module</text>
<polygon fill="#80b1d3" stroke="transparent" points="298,-10 298,-30 318,-30 318,-10 298,-10"/>
<text text-anchor="start" x="321.78" y="-15.4" font-family="Times-12" font-size="14.00"> &#160;Bootstrap</text>
<polygon fill="#fdb462" stroke="transparent" points="395,-10 395,-30 415,-30 415,-10 395,-10"/>
<text text-anchor="start" x="418.67" y="-15.4" font-family="Times-12" font-size="14.00"> &#160;Providers</text>
<polygon fill="#fb8072" stroke="transparent" points="491,-10 491,-30 511,-30 511,-10 491,-10"/>
<text text-anchor="start" x="514.73" y="-15.4" font-family="Times-12" font-size="14.00"> &#160;Exports</text>
<g id="clust1" class="cluster">
<title>cluster_AttendanceModule</title>
<polygon fill="none" stroke="black" stroke-dasharray="1,5" points="8,-70 8,-195 658,-195 658,-70 8,-70"/>
</g>
<g id="clust3" class="cluster">
<title>cluster_AttendanceModule_imports</title>
<polygon fill="none" stroke="black" points="208,-78 208,-130 650,-130 650,-78 208,-78"/>
</g>
<g id="clust6" class="cluster">
<title>cluster_AttendanceModule_providers</title>
<polygon fill="none" stroke="black" points="16,-78 16,-130 200,-130 200,-78 16,-78"/>
</g>
<!-- LevelModule -->
<g id="node1" class="node">
<title>LevelModule</title>
<polygon fill="#8dd3c7" stroke="black" points="641.92,-122 638.92,-126 617.92,-126 614.92,-122 550.08,-122 550.08,-86 641.92,-86 641.92,-122"/>
<text text-anchor="middle" x="596" y="-99.8" font-family="Times,serif" font-size="14.00">LevelModule</text>
</g>
<!-- AttendanceModule -->
<g id="node4" class="node">
<title>AttendanceModule</title>
<polygon fill="#8dd3c7" stroke="black" points="458.8,-187 455.8,-191 434.8,-191 431.8,-187 335.2,-187 335.2,-151 458.8,-151 458.8,-187"/>
<text text-anchor="middle" x="397" y="-164.8" font-family="Times,serif" font-size="14.00">AttendanceModule</text>
</g>
<!-- LevelModule&#45;&gt;AttendanceModule -->
<g id="edge1" class="edge">
<title>LevelModule&#45;&gt;AttendanceModule</title>
<path fill="none" stroke="black" d="M596,-122.11C596,-141.34 596,-169 596,-169 596,-169 468.87,-169 468.87,-169"/>
<polygon fill="black" stroke="black" points="468.87,-165.5 458.87,-169 468.87,-172.5 468.87,-165.5"/>
</g>
<!-- StudentModule -->
<g id="node2" class="node">
<title>StudentModule</title>
<polygon fill="#8dd3c7" stroke="black" points="532.33,-122 529.33,-126 508.33,-126 505.33,-122 429.67,-122 429.67,-86 532.33,-86 532.33,-122"/>
<text text-anchor="middle" x="481" y="-99.8" font-family="Times,serif" font-size="14.00">StudentModule</text>
</g>
<!-- StudentModule&#45;&gt;AttendanceModule -->
<g id="edge2" class="edge">
<title>StudentModule&#45;&gt;AttendanceModule</title>
<path fill="none" stroke="black" d="M444.24,-122.11C444.24,-122.11 444.24,-140.99 444.24,-140.99"/>
<polygon fill="black" stroke="black" points="440.74,-140.99 444.24,-150.99 447.74,-140.99 440.74,-140.99"/>
</g>
<!-- UserTenantMembershipModule -->
<g id="node3" class="node">
<title>UserTenantMembershipModule</title>
<polygon fill="#8dd3c7" stroke="black" points="411.61,-122 408.61,-126 387.61,-126 384.61,-122 216.39,-122 216.39,-86 411.61,-86 411.61,-122"/>
<text text-anchor="middle" x="314" y="-99.8" font-family="Times,serif" font-size="14.00">UserTenantMembershipModule</text>
</g>
<!-- UserTenantMembershipModule&#45;&gt;AttendanceModule -->
<g id="edge3" class="edge">
<title>UserTenantMembershipModule&#45;&gt;AttendanceModule</title>
<path fill="none" stroke="black" d="M373.58,-122.11C373.58,-122.11 373.58,-140.99 373.58,-140.99"/>
<polygon fill="black" stroke="black" points="370.08,-140.99 373.58,-150.99 377.08,-140.99 370.08,-140.99"/>
</g>
<!-- AttendanceService -->
<g id="node5" class="node">
<title>AttendanceService</title>
<ellipse fill="#fdb462" stroke="black" cx="108" cy="-104" rx="83.93" ry="18"/>
<text text-anchor="middle" x="108" y="-99.8" font-family="Times,serif" font-size="14.00">AttendanceService</text>
</g>
<!-- AttendanceService&#45;&gt;AttendanceModule -->
<g id="edge4" class="edge">
<title>AttendanceService&#45;&gt;AttendanceModule</title>
<path fill="none" stroke="black" d="M108,-122.11C108,-141.34 108,-169 108,-169 108,-169 325,-169 325,-169"/>
<polygon fill="black" stroke="black" points="325,-172.5 335,-169 325,-165.5 325,-172.5"/>
</g>
</g>
</svg>
