<?xml version="1.0" encoding="UTF-8" standalone="no"?>
<!DOCTYPE svg PUBLIC "-//W3C//DTD SVG 1.1//EN"
 "http://www.w3.org/Graphics/SVG/1.1/DTD/svg11.dtd">
<!-- Generated by graphviz version 2.47.0 (20210316.0004)
 -->
<!-- Title: dependencies Pages: 1 -->
<svg width="1564pt" height="284pt"
 viewBox="0.00 0.00 1564.00 284.00" xmlns="http://www.w3.org/2000/svg" xmlns:xlink="http://www.w3.org/1999/xlink">
<g id="graph0" class="graph" transform="scale(1 1) rotate(0) translate(4 280)">
<title>dependencies</title>
<polygon fill="white" stroke="transparent" points="-4,4 -4,-280 1560,-280 1560,4 -4,4"/>
<text text-anchor="start" x="757.01" y="-42.4" font-family="Times-12" font-weight="bold" font-size="14.00">Legend</text>
<polygon fill="#ffffb3" stroke="transparent" points="544,-10 544,-30 564,-30 564,-10 544,-10"/>
<text text-anchor="start" x="567.63" y="-15.4" font-family="Times-12" font-size="14.00"> &#160;Declarations</text>
<polygon fill="#8dd3c7" stroke="transparent" points="657,-10 657,-30 677,-30 677,-10 657,-10"/>
<text text-anchor="start" x="680.73" y="-15.4" font-family="Times-12" font-size="14.00"> &#160;Module</text>
<polygon fill="#80b1d3" stroke="transparent" points="743,-10 743,-30 763,-30 763,-10 743,-10"/>
<text text-anchor="start" x="766.78" y="-15.4" font-family="Times-12" font-size="14.00"> &#160;Bootstrap</text>
<polygon fill="#fdb462" stroke="transparent" points="840,-10 840,-30 860,-30 860,-10 840,-10"/>
<text text-anchor="start" x="863.67" y="-15.4" font-family="Times-12" font-size="14.00"> &#160;Providers</text>
<polygon fill="#fb8072" stroke="transparent" points="936,-10 936,-30 956,-30 956,-10 936,-10"/>
<text text-anchor="start" x="959.73" y="-15.4" font-family="Times-12" font-size="14.00"> &#160;Exports</text>
<g id="clust1" class="cluster">
<title>cluster_InvitationModule</title>
<polygon fill="none" stroke="black" stroke-dasharray="1,5" points="8,-70 8,-268 1548,-268 1548,-70 8,-70"/>
</g>
<g id="clust6" class="cluster">
<title>cluster_InvitationModule_providers</title>
<polygon fill="none" stroke="black" points="464,-78 464,-130 1540,-130 1540,-78 464,-78"/>
</g>
<g id="clust3" class="cluster">
<title>cluster_InvitationModule_imports</title>
<polygon fill="none" stroke="black" points="16,-78 16,-130 456,-130 456,-78 16,-78"/>
</g>
<g id="clust4" class="cluster">
<title>cluster_InvitationModule_exports</title>
<polygon fill="none" stroke="black" points="686,-208 686,-260 818,-260 818,-208 686,-208"/>
</g>
<!-- AuthModule -->
<g id="node1" class="node">
<title>AuthModule</title>
<polygon fill="#8dd3c7" stroke="black" points="447.55,-122 444.55,-126 423.55,-126 420.55,-122 360.45,-122 360.45,-86 447.55,-86 447.55,-122"/>
<text text-anchor="middle" x="404" y="-99.8" font-family="Times,serif" font-size="14.00">AuthModule</text>
</g>
<!-- InvitationModule -->
<g id="node4" class="node">
<title>InvitationModule</title>
<polygon fill="#8dd3c7" stroke="black" points="808.99,-187 805.99,-191 784.99,-191 781.99,-187 695.01,-187 695.01,-151 808.99,-151 808.99,-187"/>
<text text-anchor="middle" x="752" y="-164.8" font-family="Times,serif" font-size="14.00">InvitationModule</text>
</g>
<!-- AuthModule&#45;&gt;InvitationModule -->
<g id="edge1" class="edge">
<title>AuthModule&#45;&gt;InvitationModule</title>
<path fill="none" stroke="black" d="M404,-122.27C404,-140.56 404,-166 404,-166 404,-166 684.92,-166 684.92,-166"/>
<polygon fill="black" stroke="black" points="684.92,-169.5 694.92,-166 684.92,-162.5 684.92,-169.5"/>
</g>
<!-- TenantsModule -->
<g id="node2" class="node">
<title>TenantsModule</title>
<polygon fill="#8dd3c7" stroke="black" points="341.87,-122 338.87,-126 317.87,-126 314.87,-122 238.13,-122 238.13,-86 341.87,-86 341.87,-122"/>
<text text-anchor="middle" x="290" y="-99.8" font-family="Times,serif" font-size="14.00">TenantsModule</text>
</g>
<!-- TenantsModule&#45;&gt;InvitationModule -->
<g id="edge2" class="edge">
<title>TenantsModule&#45;&gt;InvitationModule</title>
<path fill="none" stroke="black" d="M290,-122.13C290,-142.57 290,-173 290,-173 290,-173 684.89,-173 684.89,-173"/>
<polygon fill="black" stroke="black" points="684.89,-176.5 694.89,-173 684.89,-169.5 684.89,-176.5"/>
</g>
<!-- UserTenantMembershipModule -->
<g id="node3" class="node">
<title>UserTenantMembershipModule</title>
<polygon fill="#8dd3c7" stroke="black" points="219.61,-122 216.61,-126 195.61,-126 192.61,-122 24.39,-122 24.39,-86 219.61,-86 219.61,-122"/>
<text text-anchor="middle" x="122" y="-99.8" font-family="Times,serif" font-size="14.00">UserTenantMembershipModule</text>
</g>
<!-- UserTenantMembershipModule&#45;&gt;InvitationModule -->
<g id="edge3" class="edge">
<title>UserTenantMembershipModule&#45;&gt;InvitationModule</title>
<path fill="none" stroke="black" d="M122,-122.01C122,-144.49 122,-180 122,-180 122,-180 684.98,-180 684.98,-180"/>
<polygon fill="black" stroke="black" points="684.98,-183.5 694.98,-180 684.98,-176.5 684.98,-183.5"/>
</g>
<!-- InvitationService  -->
<g id="node5" class="node">
<title>InvitationService </title>
<polygon fill="#fb8072" stroke="black" points="809.92,-252 694.08,-252 694.08,-216 809.92,-216 809.92,-252"/>
<text text-anchor="middle" x="752" y="-229.8" font-family="Times,serif" font-size="14.00">InvitationService </text>
</g>
<!-- InvitationModule&#45;&gt;InvitationService  -->
<g id="edge4" class="edge">
<title>InvitationModule&#45;&gt;InvitationService </title>
<path fill="none" stroke="black" stroke-dasharray="5,2" d="M752,-187.11C752,-187.11 752,-205.99 752,-205.99"/>
<polygon fill="black" stroke="black" points="748.5,-205.99 752,-215.99 755.5,-205.99 748.5,-205.99"/>
</g>
<!-- AcceptInvitationProvider -->
<g id="node6" class="node">
<title>AcceptInvitationProvider</title>
<ellipse fill="#fdb462" stroke="black" cx="1423" cy="-104" rx="109.37" ry="18"/>
<text text-anchor="middle" x="1423" y="-99.8" font-family="Times,serif" font-size="14.00">AcceptInvitationProvider</text>
</g>
<!-- AcceptInvitationProvider&#45;&gt;InvitationModule -->
<g id="edge5" class="edge">
<title>AcceptInvitationProvider&#45;&gt;InvitationModule</title>
<path fill="none" stroke="black" d="M1423,-122.01C1423,-144.49 1423,-180 1423,-180 1423,-180 819.21,-180 819.21,-180"/>
<polygon fill="black" stroke="black" points="819.21,-176.5 809.21,-180 819.21,-183.5 819.21,-176.5"/>
</g>
<!-- GenericDeleteProvider -->
<g id="node7" class="node">
<title>GenericDeleteProvider</title>
<ellipse fill="#fdb462" stroke="black" cx="1196" cy="-104" rx="100.09" ry="18"/>
<text text-anchor="middle" x="1196" y="-99.8" font-family="Times,serif" font-size="14.00">GenericDeleteProvider</text>
</g>
<!-- GenericDeleteProvider&#45;&gt;InvitationModule -->
<g id="edge6" class="edge">
<title>GenericDeleteProvider&#45;&gt;InvitationModule</title>
<path fill="none" stroke="black" d="M1196,-122.13C1196,-142.57 1196,-173 1196,-173 1196,-173 819.14,-173 819.14,-173"/>
<polygon fill="black" stroke="black" points="819.14,-169.5 809.14,-173 819.14,-176.5 819.14,-169.5"/>
</g>
<!-- GenericInviterProvider -->
<g id="node8" class="node">
<title>GenericInviterProvider</title>
<ellipse fill="#fdb462" stroke="black" cx="977" cy="-104" rx="100.68" ry="18"/>
<text text-anchor="middle" x="977" y="-99.8" font-family="Times,serif" font-size="14.00">GenericInviterProvider</text>
</g>
<!-- GenericInviterProvider&#45;&gt;InvitationModule -->
<g id="edge7" class="edge">
<title>GenericInviterProvider&#45;&gt;InvitationModule</title>
<path fill="none" stroke="black" d="M1010.53,-121.27C1010.53,-139.62 1010.53,-166 1010.53,-166 1010.53,-166 819.06,-166 819.06,-166"/>
<polygon fill="black" stroke="black" points="819.06,-162.5 809.06,-166 819.06,-169.5 819.06,-162.5"/>
</g>
<!-- GenericInviterProvider&#45;&gt;InvitationModule -->
<g id="edge8" class="edge">
<title>GenericInviterProvider&#45;&gt;InvitationModule</title>
<path fill="none" stroke="black" d="M943.47,-121.1C943.47,-137.25 943.47,-159 943.47,-159 943.47,-159 819.19,-159 819.19,-159"/>
<polygon fill="black" stroke="black" points="819.19,-155.5 809.19,-159 819.19,-162.5 819.19,-155.5"/>
</g>
<!-- GenericPendingProvider -->
<g id="node9" class="node">
<title>GenericPendingProvider</title>
<ellipse fill="#fdb462" stroke="black" cx="752" cy="-104" rx="106.5" ry="18"/>
<text text-anchor="middle" x="752" y="-99.8" font-family="Times,serif" font-size="14.00">GenericPendingProvider</text>
</g>
<!-- GenericPendingProvider&#45;&gt;InvitationModule -->
<g id="edge9" class="edge">
<title>GenericPendingProvider&#45;&gt;InvitationModule</title>
<path fill="none" stroke="black" d="M752,-122.11C752,-122.11 752,-140.99 752,-140.99"/>
<polygon fill="black" stroke="black" points="748.5,-140.99 752,-150.99 755.5,-140.99 748.5,-140.99"/>
</g>
<!-- InvitationService -->
<g id="node10" class="node">
<title>InvitationService</title>
<ellipse fill="#fdb462" stroke="black" cx="550" cy="-104" rx="77.58" ry="18"/>
<text text-anchor="middle" x="550" y="-99.8" font-family="Times,serif" font-size="14.00">InvitationService</text>
</g>
<!-- InvitationService&#45;&gt;InvitationModule -->
<g id="edge10" class="edge">
<title>InvitationService&#45;&gt;InvitationModule</title>
<path fill="none" stroke="black" d="M550,-122.01C550,-138.05 550,-159 550,-159 550,-159 684.92,-159 684.92,-159"/>
<polygon fill="black" stroke="black" points="684.92,-162.5 694.92,-159 684.92,-155.5 684.92,-162.5"/>
</g>
</g>
</svg>
