<?xml version="1.0" encoding="UTF-8" standalone="no"?>
<!DOCTYPE svg PUBLIC "-//W3C//DTD SVG 1.1//EN"
 "http://www.w3.org/Graphics/SVG/1.1/DTD/svg11.dtd">
<!-- Generated by graphviz version 2.47.0 (20210316.0004)
 -->
<!-- Title: dependencies Pages: 1 -->
<svg width="1561pt" height="211pt"
 viewBox="0.00 0.00 1561.00 211.00" xmlns="http://www.w3.org/2000/svg" xmlns:xlink="http://www.w3.org/1999/xlink">
<g id="graph0" class="graph" transform="scale(1 1) rotate(0) translate(4 207)">
<title>dependencies</title>
<polygon fill="white" stroke="transparent" points="-4,4 -4,-207 1557,-207 1557,4 -4,4"/>
<text text-anchor="start" x="755.51" y="-42.4" font-family="Times-12" font-weight="bold" font-size="14.00">Legend</text>
<polygon fill="#ffffb3" stroke="transparent" points="542.5,-10 542.5,-30 562.5,-30 562.5,-10 542.5,-10"/>
<text text-anchor="start" x="566.13" y="-15.4" font-family="Times-12" font-size="14.00"> &#160;Declarations</text>
<polygon fill="#8dd3c7" stroke="transparent" points="655.5,-10 655.5,-30 675.5,-30 675.5,-10 655.5,-10"/>
<text text-anchor="start" x="679.23" y="-15.4" font-family="Times-12" font-size="14.00"> &#160;Module</text>
<polygon fill="#80b1d3" stroke="transparent" points="741.5,-10 741.5,-30 761.5,-30 761.5,-10 741.5,-10"/>
<text text-anchor="start" x="765.28" y="-15.4" font-family="Times-12" font-size="14.00"> &#160;Bootstrap</text>
<polygon fill="#fdb462" stroke="transparent" points="838.5,-10 838.5,-30 858.5,-30 858.5,-10 838.5,-10"/>
<text text-anchor="start" x="862.17" y="-15.4" font-family="Times-12" font-size="14.00"> &#160;Providers</text>
<polygon fill="#fb8072" stroke="transparent" points="934.5,-10 934.5,-30 954.5,-30 954.5,-10 934.5,-10"/>
<text text-anchor="start" x="958.23" y="-15.4" font-family="Times-12" font-size="14.00"> &#160;Exports</text>
<g id="clust1" class="cluster">
<title>cluster_AppModule</title>
<polygon fill="none" stroke="black" stroke-dasharray="1,5" points="8,-70 8,-195 1545,-195 1545,-70 8,-70"/>
</g>
<g id="clust6" class="cluster">
<title>cluster_AppModule_providers</title>
<polygon fill="none" stroke="black" points="1407,-78 1407,-130 1537,-130 1537,-78 1407,-78"/>
</g>
<g id="clust3" class="cluster">
<title>cluster_AppModule_imports</title>
<polygon fill="none" stroke="black" points="16,-78 16,-130 1399,-130 1399,-78 16,-78"/>
</g>
<!-- AdminModule -->
<g id="node1" class="node">
<title>AdminModule</title>
<polygon fill="#8dd3c7" stroke="black" points="1391.44,-122 1388.44,-126 1367.44,-126 1364.44,-122 1292.56,-122 1292.56,-86 1391.44,-86 1391.44,-122"/>
<text text-anchor="middle" x="1342" y="-99.8" font-family="Times,serif" font-size="14.00">AdminModule</text>
</g>
<!-- AppModule -->
<g id="node12" class="node">
<title>AppModule</title>
<polygon fill="#8dd3c7" stroke="black" points="845.66,-187 842.66,-191 821.66,-191 818.66,-187 762.34,-187 762.34,-151 845.66,-151 845.66,-187"/>
<text text-anchor="middle" x="804" y="-164.8" font-family="Times,serif" font-size="14.00">AppModule</text>
</g>
<!-- AdminModule&#45;&gt;AppModule -->
<g id="edge1" class="edge">
<title>AdminModule&#45;&gt;AppModule</title>
<path fill="none" stroke="black" d="M1342,-122.28C1342,-143.32 1342,-175 1342,-175 1342,-175 855.77,-175 855.77,-175"/>
<polygon fill="black" stroke="black" points="855.77,-171.5 845.77,-175 855.77,-178.5 855.77,-171.5"/>
</g>
<!-- CommonModule -->
<g id="node2" class="node">
<title>CommonModule</title>
<polygon fill="#8dd3c7" stroke="black" points="1274.67,-122 1271.67,-126 1250.67,-126 1247.67,-122 1163.33,-122 1163.33,-86 1274.67,-86 1274.67,-122"/>
<text text-anchor="middle" x="1219" y="-99.8" font-family="Times,serif" font-size="14.00">CommonModule</text>
</g>
<!-- CommonModule&#45;&gt;AppModule -->
<g id="edge2" class="edge">
<title>CommonModule&#45;&gt;AppModule</title>
<path fill="none" stroke="black" d="M1219,-122.11C1219,-141.34 1219,-169 1219,-169 1219,-169 855.69,-169 855.69,-169"/>
<polygon fill="black" stroke="black" points="855.69,-165.5 845.69,-169 855.69,-172.5 855.69,-165.5"/>
</g>
<!-- IamModule -->
<g id="node3" class="node">
<title>IamModule</title>
<polygon fill="#8dd3c7" stroke="black" points="1145.82,-122 1142.82,-126 1121.82,-126 1118.82,-122 1064.18,-122 1064.18,-86 1145.82,-86 1145.82,-122"/>
<text text-anchor="middle" x="1105" y="-99.8" font-family="Times,serif" font-size="14.00">IamModule</text>
</g>
<!-- IamModule&#45;&gt;AppModule -->
<g id="edge3" class="edge">
<title>IamModule&#45;&gt;AppModule</title>
<path fill="none" stroke="black" d="M1105,-122.02C1105,-139.37 1105,-163 1105,-163 1105,-163 855.85,-163 855.85,-163"/>
<polygon fill="black" stroke="black" points="855.85,-159.5 845.85,-163 855.85,-166.5 855.85,-159.5"/>
</g>
<!-- MessagingModule -->
<g id="node4" class="node">
<title>MessagingModule</title>
<polygon fill="#8dd3c7" stroke="black" points="1046.2,-122 1043.2,-126 1022.2,-126 1019.2,-122 925.8,-122 925.8,-86 1046.2,-86 1046.2,-122"/>
<text text-anchor="middle" x="986" y="-99.8" font-family="Times,serif" font-size="14.00">MessagingModule</text>
</g>
<!-- MessagingModule&#45;&gt;AppModule -->
<g id="edge4" class="edge">
<title>MessagingModule&#45;&gt;AppModule</title>
<path fill="none" stroke="black" d="M986,-122.24C986,-137.57 986,-157 986,-157 986,-157 855.75,-157 855.75,-157"/>
<polygon fill="black" stroke="black" points="855.75,-153.5 845.75,-157 855.75,-160.5 855.75,-153.5"/>
</g>
<!-- ParentModule -->
<g id="node5" class="node">
<title>ParentModule</title>
<polygon fill="#8dd3c7" stroke="black" points="907.81,-122 904.81,-126 883.81,-126 880.81,-122 812.19,-122 812.19,-86 907.81,-86 907.81,-122"/>
<text text-anchor="middle" x="860" y="-99.8" font-family="Times,serif" font-size="14.00">ParentModule</text>
</g>
<!-- ParentModule&#45;&gt;AppModule -->
<g id="edge5" class="edge">
<title>ParentModule&#45;&gt;AppModule</title>
<path fill="none" stroke="black" d="M829.09,-122.11C829.09,-122.11 829.09,-140.99 829.09,-140.99"/>
<polygon fill="black" stroke="black" points="825.59,-140.99 829.09,-150.99 832.59,-140.99 825.59,-140.99"/>
</g>
<!-- RedisModule -->
<g id="node6" class="node">
<title>RedisModule</title>
<polygon fill="#8dd3c7" stroke="black" points="794.94,-122 791.94,-126 770.94,-126 767.94,-122 703.06,-122 703.06,-86 794.94,-86 794.94,-122"/>
<text text-anchor="middle" x="749" y="-99.8" font-family="Times,serif" font-size="14.00">RedisModule</text>
</g>
<!-- RedisModule&#45;&gt;AppModule -->
<g id="edge6" class="edge">
<title>RedisModule&#45;&gt;AppModule</title>
<path fill="none" stroke="black" d="M778.44,-122.11C778.44,-122.11 778.44,-140.99 778.44,-140.99"/>
<polygon fill="black" stroke="black" points="774.95,-140.99 778.44,-150.99 781.95,-140.99 774.95,-140.99"/>
</g>
<!-- StorageModule -->
<g id="node7" class="node">
<title>StorageModule</title>
<polygon fill="#8dd3c7" stroke="black" points="685.31,-122 682.31,-126 661.31,-126 658.31,-122 582.69,-122 582.69,-86 685.31,-86 685.31,-122"/>
<text text-anchor="middle" x="634" y="-99.8" font-family="Times,serif" font-size="14.00">StorageModule</text>
</g>
<!-- StorageModule&#45;&gt;AppModule -->
<g id="edge7" class="edge">
<title>StorageModule&#45;&gt;AppModule</title>
<path fill="none" stroke="black" d="M634,-122.24C634,-137.57 634,-157 634,-157 634,-157 751.98,-157 751.98,-157"/>
<polygon fill="black" stroke="black" points="751.98,-160.5 761.98,-157 751.98,-153.5 751.98,-160.5"/>
</g>
<!-- StudentPortalModule -->
<g id="node8" class="node">
<title>StudentPortalModule</title>
<polygon fill="#8dd3c7" stroke="black" points="564.77,-122 561.77,-126 540.77,-126 537.77,-122 429.23,-122 429.23,-86 564.77,-86 564.77,-122"/>
<text text-anchor="middle" x="497" y="-99.8" font-family="Times,serif" font-size="14.00">StudentPortalModule</text>
</g>
<!-- StudentPortalModule&#45;&gt;AppModule -->
<g id="edge8" class="edge">
<title>StudentPortalModule&#45;&gt;AppModule</title>
<path fill="none" stroke="black" d="M497,-122.02C497,-139.37 497,-163 497,-163 497,-163 752.28,-163 752.28,-163"/>
<polygon fill="black" stroke="black" points="752.28,-166.5 762.28,-163 752.28,-159.5 752.28,-166.5"/>
</g>
<!-- SuperAdminModule -->
<g id="node9" class="node">
<title>SuperAdminModule</title>
<polygon fill="#8dd3c7" stroke="black" points="411.6,-122 408.6,-126 387.6,-126 384.6,-122 280.4,-122 280.4,-86 411.6,-86 411.6,-122"/>
<text text-anchor="middle" x="346" y="-99.8" font-family="Times,serif" font-size="14.00">SuperAdminModule</text>
</g>
<!-- SuperAdminModule&#45;&gt;AppModule -->
<g id="edge9" class="edge">
<title>SuperAdminModule&#45;&gt;AppModule</title>
<path fill="none" stroke="black" d="M346,-122.11C346,-141.34 346,-169 346,-169 346,-169 752.14,-169 752.14,-169"/>
<polygon fill="black" stroke="black" points="752.14,-172.5 762.14,-169 752.14,-165.5 752.14,-172.5"/>
</g>
<!-- TeacherModule -->
<g id="node10" class="node">
<title>TeacherModule</title>
<polygon fill="#8dd3c7" stroke="black" points="262.12,-122 259.12,-126 238.12,-126 235.12,-122 157.88,-122 157.88,-86 262.12,-86 262.12,-122"/>
<text text-anchor="middle" x="210" y="-99.8" font-family="Times,serif" font-size="14.00">TeacherModule</text>
</g>
<!-- TeacherModule&#45;&gt;AppModule -->
<g id="edge10" class="edge">
<title>TeacherModule&#45;&gt;AppModule</title>
<path fill="none" stroke="black" d="M210,-122.28C210,-143.32 210,-175 210,-175 210,-175 752.23,-175 752.23,-175"/>
<polygon fill="black" stroke="black" points="752.23,-178.5 762.23,-175 752.23,-171.5 752.23,-178.5"/>
</g>
<!-- TimetableModule -->
<g id="node11" class="node">
<title>TimetableModule</title>
<polygon fill="#8dd3c7" stroke="black" points="140.31,-122 137.31,-126 116.31,-126 113.31,-122 23.69,-122 23.69,-86 140.31,-86 140.31,-122"/>
<text text-anchor="middle" x="82" y="-99.8" font-family="Times,serif" font-size="14.00">TimetableModule</text>
</g>
<!-- TimetableModule&#45;&gt;AppModule -->
<g id="edge11" class="edge">
<title>TimetableModule&#45;&gt;AppModule</title>
<path fill="none" stroke="black" d="M82,-122.09C82,-145.13 82,-182 82,-182 82,-182 752.33,-182 752.33,-182"/>
<polygon fill="black" stroke="black" points="752.33,-185.5 762.33,-182 752.33,-178.5 752.33,-185.5"/>
</g>
<!-- AppService -->
<g id="node13" class="node">
<title>AppService</title>
<ellipse fill="#fdb462" stroke="black" cx="1472" cy="-104" rx="56.74" ry="18"/>
<text text-anchor="middle" x="1472" y="-99.8" font-family="Times,serif" font-size="14.00">AppService</text>
</g>
<!-- AppService&#45;&gt;AppModule -->
<g id="edge12" class="edge">
<title>AppService&#45;&gt;AppModule</title>
<path fill="none" stroke="black" d="M1472,-122.09C1472,-145.13 1472,-182 1472,-182 1472,-182 855.79,-182 855.79,-182"/>
<polygon fill="black" stroke="black" points="855.79,-178.5 845.79,-182 855.79,-185.5 855.79,-178.5"/>
</g>
</g>
</svg>
