<?xml version="1.0" encoding="UTF-8" standalone="no"?>
<!DOCTYPE svg PUBLIC "-//W3C//DTD SVG 1.1//EN"
 "http://www.w3.org/Graphics/SVG/1.1/DTD/svg11.dtd">
<!-- Generated by graphviz version 2.47.0 (20210316.0004)
 -->
<!-- Title: dependencies Pages: 1 -->
<svg width="980pt" height="284pt"
 viewBox="0.00 0.00 980.00 284.00" xmlns="http://www.w3.org/2000/svg" xmlns:xlink="http://www.w3.org/1999/xlink">
<g id="graph0" class="graph" transform="scale(1 1) rotate(0) translate(4 280)">
<title>dependencies</title>
<polygon fill="white" stroke="transparent" points="-4,4 -4,-280 976,-280 976,4 -4,4"/>
<text text-anchor="start" x="465.01" y="-42.4" font-family="Times-12" font-weight="bold" font-size="14.00">Legend</text>
<polygon fill="#ffffb3" stroke="transparent" points="252,-10 252,-30 272,-30 272,-10 252,-10"/>
<text text-anchor="start" x="275.63" y="-15.4" font-family="Times-12" font-size="14.00"> &#160;Declarations</text>
<polygon fill="#8dd3c7" stroke="transparent" points="365,-10 365,-30 385,-30 385,-10 365,-10"/>
<text text-anchor="start" x="388.73" y="-15.4" font-family="Times-12" font-size="14.00"> &#160;Module</text>
<polygon fill="#80b1d3" stroke="transparent" points="451,-10 451,-30 471,-30 471,-10 451,-10"/>
<text text-anchor="start" x="474.78" y="-15.4" font-family="Times-12" font-size="14.00"> &#160;Bootstrap</text>
<polygon fill="#fdb462" stroke="transparent" points="548,-10 548,-30 568,-30 568,-10 548,-10"/>
<text text-anchor="start" x="571.67" y="-15.4" font-family="Times-12" font-size="14.00"> &#160;Providers</text>
<polygon fill="#fb8072" stroke="transparent" points="644,-10 644,-30 664,-30 664,-10 644,-10"/>
<text text-anchor="start" x="667.73" y="-15.4" font-family="Times-12" font-size="14.00"> &#160;Exports</text>
<g id="clust1" class="cluster">
<title>cluster_SchoolTypeModule</title>
<polygon fill="none" stroke="black" stroke-dasharray="1,5" points="8,-70 8,-268 964,-268 964,-70 8,-70"/>
</g>
<g id="clust4" class="cluster">
<title>cluster_SchoolTypeModule_exports</title>
<polygon fill="none" stroke="black" points="485,-208 485,-260 641,-260 641,-208 485,-208"/>
</g>
<g id="clust3" class="cluster">
<title>cluster_SchoolTypeModule_imports</title>
<polygon fill="none" stroke="black" points="442,-78 442,-130 956,-130 956,-78 442,-78"/>
</g>
<g id="clust6" class="cluster">
<title>cluster_SchoolTypeModule_providers</title>
<polygon fill="none" stroke="black" points="16,-78 16,-130 434,-130 434,-78 16,-78"/>
</g>
<!-- CommonModule -->
<g id="node1" class="node">
<title>CommonModule</title>
<polygon fill="#8dd3c7" stroke="black" points="947.67,-122 944.67,-126 923.67,-126 920.67,-122 836.33,-122 836.33,-86 947.67,-86 947.67,-122"/>
<text text-anchor="middle" x="892" y="-99.8" font-family="Times,serif" font-size="14.00">CommonModule</text>
</g>
<!-- SchoolTypeModule -->
<g id="node5" class="node">
<title>SchoolTypeModule</title>
<polygon fill="#8dd3c7" stroke="black" points="626.7,-187 623.7,-191 602.7,-191 599.7,-187 499.3,-187 499.3,-151 626.7,-151 626.7,-187"/>
<text text-anchor="middle" x="563" y="-164.8" font-family="Times,serif" font-size="14.00">SchoolTypeModule</text>
</g>
<!-- CommonModule&#45;&gt;SchoolTypeModule -->
<g id="edge1" class="edge">
<title>CommonModule&#45;&gt;SchoolTypeModule</title>
<path fill="none" stroke="black" d="M892,-122.28C892,-143.32 892,-175 892,-175 892,-175 636.82,-175 636.82,-175"/>
<polygon fill="black" stroke="black" points="636.82,-171.5 626.82,-175 636.82,-178.5 636.82,-171.5"/>
</g>
<!-- CurriculumModule -->
<g id="node2" class="node">
<title>CurriculumModule</title>
<polygon fill="#8dd3c7" stroke="black" points="818.09,-122 815.09,-126 794.09,-126 791.09,-122 693.91,-122 693.91,-86 818.09,-86 818.09,-122"/>
<text text-anchor="middle" x="756" y="-99.8" font-family="Times,serif" font-size="14.00">CurriculumModule</text>
</g>
<!-- CurriculumModule&#45;&gt;SchoolTypeModule -->
<g id="edge2" class="edge">
<title>CurriculumModule&#45;&gt;SchoolTypeModule</title>
<path fill="none" stroke="black" d="M756,-122.02C756,-139.37 756,-163 756,-163 756,-163 636.73,-163 636.73,-163"/>
<polygon fill="black" stroke="black" points="636.73,-159.5 626.73,-163 636.73,-166.5 636.73,-159.5"/>
</g>
<!-- SchoolsModule -->
<g id="node3" class="node">
<title>SchoolsModule</title>
<polygon fill="#8dd3c7" stroke="black" points="675.88,-122 672.88,-126 651.88,-126 648.88,-122 572.12,-122 572.12,-86 675.88,-86 675.88,-122"/>
<text text-anchor="middle" x="624" y="-99.8" font-family="Times,serif" font-size="14.00">SchoolsModule</text>
</g>
<!-- SchoolsModule&#45;&gt;SchoolTypeModule -->
<g id="edge3" class="edge">
<title>SchoolsModule&#45;&gt;SchoolTypeModule</title>
<path fill="none" stroke="black" d="M599.33,-122.11C599.33,-122.11 599.33,-140.99 599.33,-140.99"/>
<polygon fill="black" stroke="black" points="595.83,-140.99 599.33,-150.99 602.83,-140.99 595.83,-140.99"/>
</g>
<!-- TenantsModule -->
<g id="node4" class="node">
<title>TenantsModule</title>
<polygon fill="#8dd3c7" stroke="black" points="553.87,-122 550.87,-126 529.87,-126 526.87,-122 450.13,-122 450.13,-86 553.87,-86 553.87,-122"/>
<text text-anchor="middle" x="502" y="-99.8" font-family="Times,serif" font-size="14.00">TenantsModule</text>
</g>
<!-- TenantsModule&#45;&gt;SchoolTypeModule -->
<g id="edge4" class="edge">
<title>TenantsModule&#45;&gt;SchoolTypeModule</title>
<path fill="none" stroke="black" d="M526.67,-122.11C526.67,-122.11 526.67,-140.99 526.67,-140.99"/>
<polygon fill="black" stroke="black" points="523.17,-140.99 526.67,-150.99 530.17,-140.99 523.17,-140.99"/>
</g>
<!-- SchoolConfigService  -->
<g id="node6" class="node">
<title>SchoolConfigService </title>
<polygon fill="#fb8072" stroke="black" points="632.75,-252 493.25,-252 493.25,-216 632.75,-216 632.75,-252"/>
<text text-anchor="middle" x="563" y="-229.8" font-family="Times,serif" font-size="14.00">SchoolConfigService </text>
</g>
<!-- SchoolTypeModule&#45;&gt;SchoolConfigService  -->
<g id="edge5" class="edge">
<title>SchoolTypeModule&#45;&gt;SchoolConfigService </title>
<path fill="none" stroke="black" stroke-dasharray="5,2" d="M563,-187.11C563,-187.11 563,-205.99 563,-205.99"/>
<polygon fill="black" stroke="black" points="559.5,-205.99 563,-215.99 566.5,-205.99 559.5,-205.99"/>
</g>
<!-- SchoolConfigProvider -->
<g id="node7" class="node">
<title>SchoolConfigProvider</title>
<ellipse fill="#fdb462" stroke="black" cx="328" cy="-104" rx="97.88" ry="18"/>
<text text-anchor="middle" x="328" y="-99.8" font-family="Times,serif" font-size="14.00">SchoolConfigProvider</text>
</g>
<!-- SchoolConfigProvider&#45;&gt;SchoolTypeModule -->
<g id="edge6" class="edge">
<title>SchoolConfigProvider&#45;&gt;SchoolTypeModule</title>
<path fill="none" stroke="black" d="M328,-122.02C328,-139.37 328,-163 328,-163 328,-163 489.1,-163 489.1,-163"/>
<polygon fill="black" stroke="black" points="489.1,-166.5 499.1,-163 489.1,-159.5 489.1,-166.5"/>
</g>
<!-- SchoolConfigService -->
<g id="node8" class="node">
<title>SchoolConfigService</title>
<ellipse fill="#fdb462" stroke="black" cx="118" cy="-104" rx="93.78" ry="18"/>
<text text-anchor="middle" x="118" y="-99.8" font-family="Times,serif" font-size="14.00">SchoolConfigService</text>
</g>
<!-- SchoolConfigService&#45;&gt;SchoolTypeModule -->
<g id="edge7" class="edge">
<title>SchoolConfigService&#45;&gt;SchoolTypeModule</title>
<path fill="none" stroke="black" d="M118,-122.28C118,-143.32 118,-175 118,-175 118,-175 489.24,-175 489.24,-175"/>
<polygon fill="black" stroke="black" points="489.24,-178.5 499.24,-175 489.24,-171.5 489.24,-178.5"/>
</g>
</g>
</svg>
