<?xml version="1.0" encoding="UTF-8" standalone="no"?>
<!DOCTYPE svg PUBLIC "-//W3C//DTD SVG 1.1//EN"
 "http://www.w3.org/Graphics/SVG/1.1/DTD/svg11.dtd">
<!-- Generated by graphviz version 2.47.0 (20210316.0004)
 -->
<!-- Title: dependencies Pages: 1 -->
<svg width="1623pt" height="211pt"
 viewBox="0.00 0.00 1623.00 211.00" xmlns="http://www.w3.org/2000/svg" xmlns:xlink="http://www.w3.org/1999/xlink">
<g id="graph0" class="graph" transform="scale(1 1) rotate(0) translate(4 207)">
<title>dependencies</title>
<polygon fill="white" stroke="transparent" points="-4,4 -4,-207 1619,-207 1619,4 -4,4"/>
<text text-anchor="start" x="786.51" y="-42.4" font-family="Times-12" font-weight="bold" font-size="14.00">Legend</text>
<polygon fill="#ffffb3" stroke="transparent" points="573.5,-10 573.5,-30 593.5,-30 593.5,-10 573.5,-10"/>
<text text-anchor="start" x="597.13" y="-15.4" font-family="Times-12" font-size="14.00"> &#160;Declarations</text>
<polygon fill="#8dd3c7" stroke="transparent" points="686.5,-10 686.5,-30 706.5,-30 706.5,-10 686.5,-10"/>
<text text-anchor="start" x="710.23" y="-15.4" font-family="Times-12" font-size="14.00"> &#160;Module</text>
<polygon fill="#80b1d3" stroke="transparent" points="772.5,-10 772.5,-30 792.5,-30 792.5,-10 772.5,-10"/>
<text text-anchor="start" x="796.28" y="-15.4" font-family="Times-12" font-size="14.00"> &#160;Bootstrap</text>
<polygon fill="#fdb462" stroke="transparent" points="869.5,-10 869.5,-30 889.5,-30 889.5,-10 869.5,-10"/>
<text text-anchor="start" x="893.17" y="-15.4" font-family="Times-12" font-size="14.00"> &#160;Providers</text>
<polygon fill="#fb8072" stroke="transparent" points="965.5,-10 965.5,-30 985.5,-30 985.5,-10 965.5,-10"/>
<text text-anchor="start" x="989.23" y="-15.4" font-family="Times-12" font-size="14.00"> &#160;Exports</text>
<g id="clust1" class="cluster">
<title>cluster_AssessmentModule</title>
<polygon fill="none" stroke="black" stroke-dasharray="1,5" points="8,-70 8,-195 1607,-195 1607,-70 8,-70"/>
</g>
<g id="clust3" class="cluster">
<title>cluster_AssessmentModule_imports</title>
<polygon fill="none" stroke="black" points="1242,-78 1242,-130 1599,-130 1599,-78 1242,-78"/>
</g>
<g id="clust6" class="cluster">
<title>cluster_AssessmentModule_providers</title>
<polygon fill="none" stroke="black" points="16,-78 16,-130 1234,-130 1234,-78 16,-78"/>
</g>
<!-- SchoolTypeModule -->
<g id="node1" class="node">
<title>SchoolTypeModule</title>
<polygon fill="#8dd3c7" stroke="black" points="1590.7,-122 1587.7,-126 1566.7,-126 1563.7,-122 1463.3,-122 1463.3,-86 1590.7,-86 1590.7,-122"/>
<text text-anchor="middle" x="1527" y="-99.8" font-family="Times,serif" font-size="14.00">SchoolTypeModule</text>
</g>
<!-- AssessmentModule -->
<g id="node3" class="node">
<title>AssessmentModule</title>
<polygon fill="#8dd3c7" stroke="black" points="1050.65,-187 1047.65,-191 1026.65,-191 1023.65,-187 925.35,-187 925.35,-151 1050.65,-151 1050.65,-187"/>
<text text-anchor="middle" x="988" y="-164.8" font-family="Times,serif" font-size="14.00">AssessmentModule</text>
</g>
<!-- SchoolTypeModule&#45;&gt;AssessmentModule -->
<g id="edge1" class="edge">
<title>SchoolTypeModule&#45;&gt;AssessmentModule</title>
<path fill="none" stroke="black" d="M1527,-122.28C1527,-143.32 1527,-175 1527,-175 1527,-175 1060.89,-175 1060.89,-175"/>
<polygon fill="black" stroke="black" points="1060.89,-171.5 1050.89,-175 1060.88,-178.5 1060.89,-171.5"/>
</g>
<!-- UserTenantMembershipModule -->
<g id="node2" class="node">
<title>UserTenantMembershipModule</title>
<polygon fill="#8dd3c7" stroke="black" points="1445.61,-122 1442.61,-126 1421.61,-126 1418.61,-122 1250.39,-122 1250.39,-86 1445.61,-86 1445.61,-122"/>
<text text-anchor="middle" x="1348" y="-99.8" font-family="Times,serif" font-size="14.00">UserTenantMembershipModule</text>
</g>
<!-- UserTenantMembershipModule&#45;&gt;AssessmentModule -->
<g id="edge2" class="edge">
<title>UserTenantMembershipModule&#45;&gt;AssessmentModule</title>
<path fill="none" stroke="black" d="M1348,-122.02C1348,-139.37 1348,-163 1348,-163 1348,-163 1060.71,-163 1060.71,-163"/>
<polygon fill="black" stroke="black" points="1060.71,-159.5 1050.71,-163 1060.71,-166.5 1060.71,-159.5"/>
</g>
<!-- AssessmentCacheProvider -->
<g id="node4" class="node">
<title>AssessmentCacheProvider</title>
<ellipse fill="#fdb462" stroke="black" cx="1112" cy="-104" rx="114.02" ry="18"/>
<text text-anchor="middle" x="1112" y="-99.8" font-family="Times,serif" font-size="14.00">AssessmentCacheProvider</text>
</g>
<!-- AssessmentCacheProvider&#45;&gt;AssessmentModule -->
<g id="edge3" class="edge">
<title>AssessmentCacheProvider&#45;&gt;AssessmentModule</title>
<path fill="none" stroke="black" d="M1015.6,-113.87C1015.6,-113.87 1015.6,-140.91 1015.6,-140.91"/>
<polygon fill="black" stroke="black" points="1012.1,-140.91 1015.6,-150.91 1019.1,-140.91 1012.1,-140.91"/>
</g>
<!-- AssessmentCacheProvider&#45;&gt;AssessmentModule -->
<g id="edge4" class="edge">
<title>AssessmentCacheProvider&#45;&gt;AssessmentModule</title>
<path fill="none" stroke="black" d="M1033.21,-117.15C1033.21,-117.15 1033.21,-140.69 1033.21,-140.69"/>
<polygon fill="black" stroke="black" points="1029.71,-140.69 1033.21,-150.69 1036.71,-140.69 1029.71,-140.69"/>
</g>
<!-- AssessmentCreateProvider -->
<g id="node5" class="node">
<title>AssessmentCreateProvider</title>
<ellipse fill="#fdb462" stroke="black" cx="865" cy="-104" rx="115.16" ry="18"/>
<text text-anchor="middle" x="865" y="-99.8" font-family="Times,serif" font-size="14.00">AssessmentCreateProvider</text>
</g>
<!-- AssessmentCreateProvider&#45;&gt;AssessmentModule -->
<g id="edge5" class="edge">
<title>AssessmentCreateProvider&#45;&gt;AssessmentModule</title>
<path fill="none" stroke="black" d="M952.63,-115.92C952.63,-115.92 952.63,-140.77 952.63,-140.77"/>
<polygon fill="black" stroke="black" points="949.13,-140.77 952.63,-150.77 956.13,-140.77 949.13,-140.77"/>
</g>
<!-- AssessmentReadProvider -->
<g id="node6" class="node">
<title>AssessmentReadProvider</title>
<ellipse fill="#fdb462" stroke="black" cx="622" cy="-104" rx="109.95" ry="18"/>
<text text-anchor="middle" x="622" y="-99.8" font-family="Times,serif" font-size="14.00">AssessmentReadProvider</text>
</g>
<!-- AssessmentReadProvider&#45;&gt;AssessmentModule -->
<g id="edge6" class="edge">
<title>AssessmentReadProvider&#45;&gt;AssessmentModule</title>
<path fill="none" stroke="black" d="M622,-122.03C622,-138.4 622,-160 622,-160 622,-160 915.08,-160 915.08,-160"/>
<polygon fill="black" stroke="black" points="915.08,-163.5 925.08,-160 915.08,-156.5 915.08,-163.5"/>
</g>
<!-- AssessmentService -->
<g id="node7" class="node">
<title>AssessmentService</title>
<ellipse fill="#fdb462" stroke="black" cx="409" cy="-104" rx="85.67" ry="18"/>
<text text-anchor="middle" x="409" y="-99.8" font-family="Times,serif" font-size="14.00">AssessmentService</text>
</g>
<!-- AssessmentService&#45;&gt;AssessmentModule -->
<g id="edge7" class="edge">
<title>AssessmentService&#45;&gt;AssessmentModule</title>
<path fill="none" stroke="black" d="M409,-122.11C409,-141.34 409,-169 409,-169 409,-169 915.21,-169 915.21,-169"/>
<polygon fill="black" stroke="black" points="915.21,-172.5 925.21,-169 915.21,-165.5 915.21,-172.5"/>
</g>
<!-- TenantValidationServiceProvider -->
<g id="node8" class="node">
<title>TenantValidationServiceProvider</title>
<ellipse fill="#fdb462" stroke="black" cx="165" cy="-104" rx="140.65" ry="18"/>
<text text-anchor="middle" x="165" y="-99.8" font-family="Times,serif" font-size="14.00">TenantValidationServiceProvider</text>
</g>
<!-- TenantValidationServiceProvider&#45;&gt;AssessmentModule -->
<g id="edge8" class="edge">
<title>TenantValidationServiceProvider&#45;&gt;AssessmentModule</title>
<path fill="none" stroke="black" d="M165,-122.29C165,-144.21 165,-178 165,-178 165,-178 915.13,-178 915.13,-178"/>
<polygon fill="black" stroke="black" points="915.13,-181.5 925.13,-178 915.13,-174.5 915.13,-181.5"/>
</g>
</g>
</svg>
