<?xml version="1.0" encoding="UTF-8" standalone="no"?>
<!DOCTYPE svg PUBLIC "-//W3C//DTD SVG 1.1//EN"
 "http://www.w3.org/Graphics/SVG/1.1/DTD/svg11.dtd">
<!-- Generated by graphviz version 2.47.0 (20210316.0004)
 -->
<!-- Title: dependencies Pages: 1 -->
<svg width="504pt" height="284pt"
 viewBox="0.00 0.00 504.00 284.00" xmlns="http://www.w3.org/2000/svg" xmlns:xlink="http://www.w3.org/1999/xlink">
<g id="graph0" class="graph" transform="scale(1 1) rotate(0) translate(4 280)">
<title>dependencies</title>
<polygon fill="white" stroke="transparent" points="-4,4 -4,-280 500,-280 500,4 -4,4"/>
<text text-anchor="start" x="227.01" y="-42.4" font-family="Times-12" font-weight="bold" font-size="14.00">Legend</text>
<polygon fill="#ffffb3" stroke="transparent" points="14,-10 14,-30 34,-30 34,-10 14,-10"/>
<text text-anchor="start" x="37.63" y="-15.4" font-family="Times-12" font-size="14.00"> &#160;Declarations</text>
<polygon fill="#8dd3c7" stroke="transparent" points="127,-10 127,-30 147,-30 147,-10 127,-10"/>
<text text-anchor="start" x="150.73" y="-15.4" font-family="Times-12" font-size="14.00"> &#160;Module</text>
<polygon fill="#80b1d3" stroke="transparent" points="213,-10 213,-30 233,-30 233,-10 213,-10"/>
<text text-anchor="start" x="236.78" y="-15.4" font-family="Times-12" font-size="14.00"> &#160;Bootstrap</text>
<polygon fill="#fdb462" stroke="transparent" points="310,-10 310,-30 330,-30 330,-10 310,-10"/>
<text text-anchor="start" x="333.67" y="-15.4" font-family="Times-12" font-size="14.00"> &#160;Providers</text>
<polygon fill="#fb8072" stroke="transparent" points="406,-10 406,-30 426,-30 426,-10 406,-10"/>
<text text-anchor="start" x="429.73" y="-15.4" font-family="Times-12" font-size="14.00"> &#160;Exports</text>
<g id="clust1" class="cluster">
<title>cluster_ScholarshipsModule</title>
<polygon fill="none" stroke="black" stroke-dasharray="1,5" points="80,-70 80,-268 416,-268 416,-70 80,-70"/>
</g>
<g id="clust6" class="cluster">
<title>cluster_ScholarshipsModule_providers</title>
<polygon fill="none" stroke="black" points="214,-78 214,-130 408,-130 408,-78 214,-78"/>
</g>
<g id="clust4" class="cluster">
<title>cluster_ScholarshipsModule_exports</title>
<polygon fill="none" stroke="black" points="162,-208 162,-260 312,-260 312,-208 162,-208"/>
</g>
<g id="clust3" class="cluster">
<title>cluster_ScholarshipsModule_imports</title>
<polygon fill="none" stroke="black" points="88,-78 88,-130 206,-130 206,-78 88,-78"/>
</g>
<!-- StudentModule -->
<g id="node1" class="node">
<title>StudentModule</title>
<polygon fill="#8dd3c7" stroke="black" points="198.33,-122 195.33,-126 174.33,-126 171.33,-122 95.67,-122 95.67,-86 198.33,-86 198.33,-122"/>
<text text-anchor="middle" x="147" y="-99.8" font-family="Times,serif" font-size="14.00">StudentModule</text>
</g>
<!-- ScholarshipsModule -->
<g id="node2" class="node">
<title>ScholarshipsModule</title>
<polygon fill="#8dd3c7" stroke="black" points="302.59,-187 299.59,-191 278.59,-191 275.59,-187 171.41,-187 171.41,-151 302.59,-151 302.59,-187"/>
<text text-anchor="middle" x="237" y="-164.8" font-family="Times,serif" font-size="14.00">ScholarshipsModule</text>
</g>
<!-- StudentModule&#45;&gt;ScholarshipsModule -->
<g id="edge1" class="edge">
<title>StudentModule&#45;&gt;ScholarshipsModule</title>
<path fill="none" stroke="black" d="M184.81,-122.11C184.81,-122.11 184.81,-140.99 184.81,-140.99"/>
<polygon fill="black" stroke="black" points="181.31,-140.99 184.81,-150.99 188.31,-140.99 181.31,-140.99"/>
</g>
<!-- ScholarshipsService  -->
<g id="node3" class="node">
<title>ScholarshipsService </title>
<polygon fill="#fb8072" stroke="black" points="303.52,-252 170.48,-252 170.48,-216 303.52,-216 303.52,-252"/>
<text text-anchor="middle" x="237" y="-229.8" font-family="Times,serif" font-size="14.00">ScholarshipsService </text>
</g>
<!-- ScholarshipsModule&#45;&gt;ScholarshipsService  -->
<g id="edge2" class="edge">
<title>ScholarshipsModule&#45;&gt;ScholarshipsService </title>
<path fill="none" stroke="black" stroke-dasharray="5,2" d="M237,-187.11C237,-187.11 237,-205.99 237,-205.99"/>
<polygon fill="black" stroke="black" points="233.5,-205.99 237,-215.99 240.5,-205.99 233.5,-205.99"/>
</g>
<!-- ScholarshipsService -->
<g id="node4" class="node">
<title>ScholarshipsService</title>
<ellipse fill="#fdb462" stroke="black" cx="311" cy="-104" rx="89.18" ry="18"/>
<text text-anchor="middle" x="311" y="-99.8" font-family="Times,serif" font-size="14.00">ScholarshipsService</text>
</g>
<!-- ScholarshipsService&#45;&gt;ScholarshipsModule -->
<g id="edge3" class="edge">
<title>ScholarshipsService&#45;&gt;ScholarshipsModule</title>
<path fill="none" stroke="black" d="M262.1,-119.08C262.1,-119.08 262.1,-140.76 262.1,-140.76"/>
<polygon fill="black" stroke="black" points="258.6,-140.76 262.1,-150.76 265.6,-140.76 258.6,-140.76"/>
</g>
</g>
</svg>
