<?xml version="1.0" encoding="UTF-8" standalone="no"?>
<!DOCTYPE svg PUBLIC "-//W3C//DTD SVG 1.1//EN"
 "http://www.w3.org/Graphics/SVG/1.1/DTD/svg11.dtd">
<!-- Generated by graphviz version 2.47.0 (20210316.0004)
 -->
<!-- Title: dependencies Pages: 1 -->
<svg width="504pt" height="211pt"
 viewBox="0.00 0.00 504.00 211.00" xmlns="http://www.w3.org/2000/svg" xmlns:xlink="http://www.w3.org/1999/xlink">
<g id="graph0" class="graph" transform="scale(1 1) rotate(0) translate(4 207)">
<title>dependencies</title>
<polygon fill="white" stroke="transparent" points="-4,4 -4,-207 500,-207 500,4 -4,4"/>
<text text-anchor="start" x="227.01" y="-42.4" font-family="Times-12" font-weight="bold" font-size="14.00">Legend</text>
<polygon fill="#ffffb3" stroke="transparent" points="14,-10 14,-30 34,-30 34,-10 14,-10"/>
<text text-anchor="start" x="37.63" y="-15.4" font-family="Times-12" font-size="14.00"> &#160;Declarations</text>
<polygon fill="#8dd3c7" stroke="transparent" points="127,-10 127,-30 147,-30 147,-10 127,-10"/>
<text text-anchor="start" x="150.73" y="-15.4" font-family="Times-12" font-size="14.00"> &#160;Module</text>
<polygon fill="#80b1d3" stroke="transparent" points="213,-10 213,-30 233,-30 233,-10 213,-10"/>
<text text-anchor="start" x="236.78" y="-15.4" font-family="Times-12" font-size="14.00"> &#160;Bootstrap</text>
<polygon fill="#fdb462" stroke="transparent" points="310,-10 310,-30 330,-30 330,-10 310,-10"/>
<text text-anchor="start" x="333.67" y="-15.4" font-family="Times-12" font-size="14.00"> &#160;Providers</text>
<polygon fill="#fb8072" stroke="transparent" points="406,-10 406,-30 426,-30 426,-10 406,-10"/>
<text text-anchor="start" x="429.73" y="-15.4" font-family="Times-12" font-size="14.00"> &#160;Exports</text>
<g id="clust1" class="cluster">
<title>cluster_SuperAdminModule</title>
<polygon fill="none" stroke="black" stroke-dasharray="1,5" points="67,-70 67,-195 429,-195 429,-70 67,-70"/>
</g>
<g id="clust3" class="cluster">
<title>cluster_SuperAdminModule_imports</title>
<polygon fill="none" stroke="black" points="317,-78 317,-130 421,-130 421,-78 317,-78"/>
</g>
<g id="clust6" class="cluster">
<title>cluster_SuperAdminModule_providers</title>
<polygon fill="none" stroke="black" points="75,-78 75,-130 309,-130 309,-78 75,-78"/>
</g>
<!-- AuthModule -->
<g id="node1" class="node">
<title>AuthModule</title>
<polygon fill="#8dd3c7" stroke="black" points="412.55,-122 409.55,-126 388.55,-126 385.55,-122 325.45,-122 325.45,-86 412.55,-86 412.55,-122"/>
<text text-anchor="middle" x="369" y="-99.8" font-family="Times,serif" font-size="14.00">AuthModule</text>
</g>
<!-- SuperAdminModule -->
<g id="node2" class="node">
<title>SuperAdminModule</title>
<polygon fill="#8dd3c7" stroke="black" points="338.6,-187 335.6,-191 314.6,-191 311.6,-187 207.4,-187 207.4,-151 338.6,-151 338.6,-187"/>
<text text-anchor="middle" x="273" y="-164.8" font-family="Times,serif" font-size="14.00">SuperAdminModule</text>
</g>
<!-- AuthModule&#45;&gt;SuperAdminModule -->
<g id="edge1" class="edge">
<title>AuthModule&#45;&gt;SuperAdminModule</title>
<path fill="none" stroke="black" d="M331.89,-122.11C331.89,-122.11 331.89,-140.99 331.89,-140.99"/>
<polygon fill="black" stroke="black" points="328.39,-140.99 331.89,-150.99 335.39,-140.99 328.39,-140.99"/>
</g>
<!-- SuperAdminAuthService -->
<g id="node3" class="node">
<title>SuperAdminAuthService</title>
<ellipse fill="#fdb462" stroke="black" cx="192" cy="-104" rx="108.81" ry="18"/>
<text text-anchor="middle" x="192" y="-99.8" font-family="Times,serif" font-size="14.00">SuperAdminAuthService</text>
</g>
<!-- SuperAdminAuthService&#45;&gt;SuperAdminModule -->
<g id="edge2" class="edge">
<title>SuperAdminAuthService&#45;&gt;SuperAdminModule</title>
<path fill="none" stroke="black" d="M254.05,-119.08C254.05,-119.08 254.05,-140.76 254.05,-140.76"/>
<polygon fill="black" stroke="black" points="250.55,-140.76 254.05,-150.76 257.55,-140.76 250.55,-140.76"/>
</g>
</g>
</svg>
