<?xml version="1.0" encoding="UTF-8" standalone="no"?>
<!DOCTYPE svg PUBLIC "-//W3C//DTD SVG 1.1//EN"
 "http://www.w3.org/Graphics/SVG/1.1/DTD/svg11.dtd">
<!-- Generated by graphviz version 2.47.0 (20210316.0004)
 -->
<!-- Title: dependencies Pages: 1 -->
<svg width="626pt" height="284pt"
 viewBox="0.00 0.00 626.00 284.00" xmlns="http://www.w3.org/2000/svg" xmlns:xlink="http://www.w3.org/1999/xlink">
<g id="graph0" class="graph" transform="scale(1 1) rotate(0) translate(4 280)">
<title>dependencies</title>
<polygon fill="white" stroke="transparent" points="-4,4 -4,-280 622,-280 622,4 -4,4"/>
<text text-anchor="start" x="288.01" y="-42.4" font-family="Times-12" font-weight="bold" font-size="14.00">Legend</text>
<polygon fill="#ffffb3" stroke="transparent" points="75,-10 75,-30 95,-30 95,-10 75,-10"/>
<text text-anchor="start" x="98.63" y="-15.4" font-family="Times-12" font-size="14.00"> &#160;Declarations</text>
<polygon fill="#8dd3c7" stroke="transparent" points="188,-10 188,-30 208,-30 208,-10 188,-10"/>
<text text-anchor="start" x="211.73" y="-15.4" font-family="Times-12" font-size="14.00"> &#160;Module</text>
<polygon fill="#80b1d3" stroke="transparent" points="274,-10 274,-30 294,-30 294,-10 274,-10"/>
<text text-anchor="start" x="297.78" y="-15.4" font-family="Times-12" font-size="14.00"> &#160;Bootstrap</text>
<polygon fill="#fdb462" stroke="transparent" points="371,-10 371,-30 391,-30 391,-10 371,-10"/>
<text text-anchor="start" x="394.67" y="-15.4" font-family="Times-12" font-size="14.00"> &#160;Providers</text>
<polygon fill="#fb8072" stroke="transparent" points="467,-10 467,-30 487,-30 487,-10 467,-10"/>
<text text-anchor="start" x="490.73" y="-15.4" font-family="Times-12" font-size="14.00"> &#160;Exports</text>
<g id="clust1" class="cluster">
<title>cluster_TeacherStudentsModule</title>
<polygon fill="none" stroke="black" stroke-dasharray="1,5" points="8,-70 8,-268 610,-268 610,-70 8,-70"/>
</g>
<g id="clust3" class="cluster">
<title>cluster_TeacherStudentsModule_imports</title>
<polygon fill="none" stroke="black" points="484,-78 484,-130 602,-130 602,-78 484,-78"/>
</g>
<g id="clust4" class="cluster">
<title>cluster_TeacherStudentsModule_exports</title>
<polygon fill="none" stroke="black" points="274,-208 274,-260 444,-260 444,-208 274,-208"/>
</g>
<g id="clust6" class="cluster">
<title>cluster_TeacherStudentsModule_providers</title>
<polygon fill="none" stroke="black" points="16,-78 16,-130 476,-130 476,-78 16,-78"/>
</g>
<!-- StudentModule -->
<g id="node1" class="node">
<title>StudentModule</title>
<polygon fill="#8dd3c7" stroke="black" points="594.33,-122 591.33,-126 570.33,-126 567.33,-122 491.67,-122 491.67,-86 594.33,-86 594.33,-122"/>
<text text-anchor="middle" x="543" y="-99.8" font-family="Times,serif" font-size="14.00">StudentModule</text>
</g>
<!-- TeacherStudentsModule -->
<g id="node2" class="node">
<title>TeacherStudentsModule</title>
<polygon fill="#8dd3c7" stroke="black" points="435.34,-187 432.34,-191 411.34,-191 408.34,-187 282.66,-187 282.66,-151 435.34,-151 435.34,-187"/>
<text text-anchor="middle" x="359" y="-164.8" font-family="Times,serif" font-size="14.00">TeacherStudentsModule</text>
</g>
<!-- StudentModule&#45;&gt;TeacherStudentsModule -->
<g id="edge1" class="edge">
<title>StudentModule&#45;&gt;TeacherStudentsModule</title>
<path fill="none" stroke="black" d="M543,-122.11C543,-141.34 543,-169 543,-169 543,-169 445.43,-169 445.43,-169"/>
<polygon fill="black" stroke="black" points="445.43,-165.5 435.43,-169 445.43,-172.5 445.43,-165.5"/>
</g>
<!-- TeacherStudentsService  -->
<g id="node3" class="node">
<title>TeacherStudentsService </title>
<polygon fill="#fb8072" stroke="black" points="436.27,-252 281.73,-252 281.73,-216 436.27,-216 436.27,-252"/>
<text text-anchor="middle" x="359" y="-229.8" font-family="Times,serif" font-size="14.00">TeacherStudentsService </text>
</g>
<!-- TeacherStudentsModule&#45;&gt;TeacherStudentsService  -->
<g id="edge2" class="edge">
<title>TeacherStudentsModule&#45;&gt;TeacherStudentsService </title>
<path fill="none" stroke="black" stroke-dasharray="5,2" d="M359,-187.11C359,-187.11 359,-205.99 359,-205.99"/>
<polygon fill="black" stroke="black" points="355.5,-205.99 359,-215.99 362.5,-205.99 355.5,-205.99"/>
</g>
<!-- TeacherStudentsProvider -->
<g id="node4" class="node">
<title>TeacherStudentsProvider</title>
<ellipse fill="#fdb462" stroke="black" cx="359" cy="-104" rx="108.79" ry="18"/>
<text text-anchor="middle" x="359" y="-99.8" font-family="Times,serif" font-size="14.00">TeacherStudentsProvider</text>
</g>
<!-- TeacherStudentsProvider&#45;&gt;TeacherStudentsModule -->
<g id="edge3" class="edge">
<title>TeacherStudentsProvider&#45;&gt;TeacherStudentsModule</title>
<path fill="none" stroke="black" d="M359,-122.11C359,-122.11 359,-140.99 359,-140.99"/>
<polygon fill="black" stroke="black" points="355.5,-140.99 359,-150.99 362.5,-140.99 355.5,-140.99"/>
</g>
<!-- TeacherStudentsService -->
<g id="node5" class="node">
<title>TeacherStudentsService</title>
<ellipse fill="#fdb462" stroke="black" cx="128" cy="-104" rx="104.19" ry="18"/>
<text text-anchor="middle" x="128" y="-99.8" font-family="Times,serif" font-size="14.00">TeacherStudentsService</text>
</g>
<!-- TeacherStudentsService&#45;&gt;TeacherStudentsModule -->
<g id="edge4" class="edge">
<title>TeacherStudentsService&#45;&gt;TeacherStudentsModule</title>
<path fill="none" stroke="black" d="M128,-122.11C128,-141.34 128,-169 128,-169 128,-169 272.4,-169 272.4,-169"/>
<polygon fill="black" stroke="black" points="272.4,-172.5 282.4,-169 272.4,-165.5 272.4,-172.5"/>
</g>
</g>
</svg>
