<?xml version="1.0" encoding="UTF-8" standalone="no"?>
<!DOCTYPE svg PUBLIC "-//W3C//DTD SVG 1.1//EN"
 "http://www.w3.org/Graphics/SVG/1.1/DTD/svg11.dtd">
<!-- Generated by graphviz version 2.47.0 (20210316.0004)
 -->
<!-- Title: dependencies Pages: 1 -->
<svg width="1106pt" height="211pt"
 viewBox="0.00 0.00 1106.00 211.00" xmlns="http://www.w3.org/2000/svg" xmlns:xlink="http://www.w3.org/1999/xlink">
<g id="graph0" class="graph" transform="scale(1 1) rotate(0) translate(4 207)">
<title>dependencies</title>
<polygon fill="white" stroke="transparent" points="-4,4 -4,-207 1102,-207 1102,4 -4,4"/>
<text text-anchor="start" x="528.01" y="-42.4" font-family="Times-12" font-weight="bold" font-size="14.00">Legend</text>
<polygon fill="#ffffb3" stroke="transparent" points="315,-10 315,-30 335,-30 335,-10 315,-10"/>
<text text-anchor="start" x="338.63" y="-15.4" font-family="Times-12" font-size="14.00"> &#160;Declarations</text>
<polygon fill="#8dd3c7" stroke="transparent" points="428,-10 428,-30 448,-30 448,-10 428,-10"/>
<text text-anchor="start" x="451.73" y="-15.4" font-family="Times-12" font-size="14.00"> &#160;Module</text>
<polygon fill="#80b1d3" stroke="transparent" points="514,-10 514,-30 534,-30 534,-10 514,-10"/>
<text text-anchor="start" x="537.78" y="-15.4" font-family="Times-12" font-size="14.00"> &#160;Bootstrap</text>
<polygon fill="#fdb462" stroke="transparent" points="611,-10 611,-30 631,-30 631,-10 611,-10"/>
<text text-anchor="start" x="634.67" y="-15.4" font-family="Times-12" font-size="14.00"> &#160;Providers</text>
<polygon fill="#fb8072" stroke="transparent" points="707,-10 707,-30 727,-30 727,-10 707,-10"/>
<text text-anchor="start" x="730.73" y="-15.4" font-family="Times-12" font-size="14.00"> &#160;Exports</text>
<g id="clust1" class="cluster">
<title>cluster_TestModule</title>
<polygon fill="none" stroke="black" stroke-dasharray="1,5" points="8,-70 8,-195 1090,-195 1090,-70 8,-70"/>
</g>
<g id="clust3" class="cluster">
<title>cluster_TestModule_imports</title>
<polygon fill="none" stroke="black" points="974,-78 974,-130 1082,-130 1082,-78 974,-78"/>
</g>
<g id="clust6" class="cluster">
<title>cluster_TestModule_providers</title>
<polygon fill="none" stroke="black" points="16,-78 16,-130 966,-130 966,-78 16,-78"/>
</g>
<!-- LevelModule -->
<g id="node1" class="node">
<title>LevelModule</title>
<polygon fill="#8dd3c7" stroke="black" points="1073.92,-122 1070.92,-126 1049.92,-126 1046.92,-122 982.08,-122 982.08,-86 1073.92,-86 1073.92,-122"/>
<text text-anchor="middle" x="1028" y="-99.8" font-family="Times,serif" font-size="14.00">LevelModule</text>
</g>
<!-- TestModule -->
<g id="node2" class="node">
<title>TestModule</title>
<polygon fill="#8dd3c7" stroke="black" points="618.65,-187 615.65,-191 594.65,-191 591.65,-187 535.35,-187 535.35,-151 618.65,-151 618.65,-187"/>
<text text-anchor="middle" x="577" y="-164.8" font-family="Times,serif" font-size="14.00">TestModule</text>
</g>
<!-- LevelModule&#45;&gt;TestModule -->
<g id="edge1" class="edge">
<title>LevelModule&#45;&gt;TestModule</title>
<path fill="none" stroke="black" d="M1028,-122.28C1028,-143.32 1028,-175 1028,-175 1028,-175 629.02,-175 629.02,-175"/>
<polygon fill="black" stroke="black" points="629.02,-171.5 619.02,-175 629.02,-178.5 629.02,-171.5"/>
</g>
<!-- CreateTestProvider -->
<g id="node3" class="node">
<title>CreateTestProvider</title>
<ellipse fill="#fdb462" stroke="black" cx="872" cy="-104" rx="86.23" ry="18"/>
<text text-anchor="middle" x="872" y="-99.8" font-family="Times,serif" font-size="14.00">CreateTestProvider</text>
</g>
<!-- CreateTestProvider&#45;&gt;TestModule -->
<g id="edge2" class="edge">
<title>CreateTestProvider&#45;&gt;TestModule</title>
<path fill="none" stroke="black" d="M872,-122.02C872,-139.37 872,-163 872,-163 872,-163 628.95,-163 628.95,-163"/>
<polygon fill="black" stroke="black" points="628.95,-159.5 618.95,-163 628.95,-166.5 628.95,-159.5"/>
</g>
<!-- FindTestsProvider -->
<g id="node4" class="node">
<title>FindTestsProvider</title>
<ellipse fill="#fdb462" stroke="black" cx="686" cy="-104" rx="82.26" ry="18"/>
<text text-anchor="middle" x="686" y="-99.8" font-family="Times,serif" font-size="14.00">FindTestsProvider</text>
</g>
<!-- FindTestsProvider&#45;&gt;TestModule -->
<g id="edge3" class="edge">
<title>FindTestsProvider&#45;&gt;TestModule</title>
<path fill="none" stroke="black" d="M611.22,-111.71C611.22,-111.71 611.22,-140.99 611.22,-140.99"/>
<polygon fill="black" stroke="black" points="607.72,-140.99 611.22,-150.99 614.72,-140.99 607.72,-140.99"/>
</g>
<!-- GenerateQuestionsProvider -->
<g id="node5" class="node">
<title>GenerateQuestionsProvider</title>
<ellipse fill="#fdb462" stroke="black" cx="468" cy="-104" rx="117.52" ry="18"/>
<text text-anchor="middle" x="468" y="-99.8" font-family="Times,serif" font-size="14.00">GenerateQuestionsProvider</text>
</g>
<!-- GenerateQuestionsProvider&#45;&gt;TestModule -->
<g id="edge4" class="edge">
<title>GenerateQuestionsProvider&#45;&gt;TestModule</title>
<path fill="none" stroke="black" d="M560.47,-115.32C560.47,-115.32 560.47,-140.94 560.47,-140.94"/>
<polygon fill="black" stroke="black" points="556.97,-140.94 560.47,-150.94 563.97,-140.94 556.97,-140.94"/>
</g>
<!-- TestService -->
<g id="node6" class="node">
<title>TestService</title>
<ellipse fill="#fdb462" stroke="black" cx="276" cy="-104" rx="56.73" ry="18"/>
<text text-anchor="middle" x="276" y="-99.8" font-family="Times,serif" font-size="14.00">TestService</text>
</g>
<!-- TestService&#45;&gt;TestModule -->
<g id="edge5" class="edge">
<title>TestService&#45;&gt;TestModule</title>
<path fill="none" stroke="black" d="M276,-122.02C276,-139.37 276,-163 276,-163 276,-163 525.15,-163 525.15,-163"/>
<polygon fill="black" stroke="black" points="525.15,-166.5 535.15,-163 525.15,-159.5 525.15,-166.5"/>
</g>
<!-- UpdateTestProvider -->
<g id="node7" class="node">
<title>UpdateTestProvider</title>
<ellipse fill="#fdb462" stroke="black" cx="113" cy="-104" rx="88.6" ry="18"/>
<text text-anchor="middle" x="113" y="-99.8" font-family="Times,serif" font-size="14.00">UpdateTestProvider</text>
</g>
<!-- UpdateTestProvider&#45;&gt;TestModule -->
<g id="edge6" class="edge">
<title>UpdateTestProvider&#45;&gt;TestModule</title>
<path fill="none" stroke="black" d="M113,-122.28C113,-143.32 113,-175 113,-175 113,-175 525,-175 525,-175"/>
<polygon fill="black" stroke="black" points="525,-178.5 535,-175 525,-171.5 525,-178.5"/>
</g>
</g>
</svg>
