<?xml version="1.0" encoding="UTF-8" standalone="no"?>
<!DOCTYPE svg PUBLIC "-//W3C//DTD SVG 1.1//EN"
 "http://www.w3.org/Graphics/SVG/1.1/DTD/svg11.dtd">
<!-- Generated by graphviz version 2.47.0 (20210316.0004)
 -->
<!-- Title: dependencies Pages: 1 -->
<svg width="504pt" height="284pt"
 viewBox="0.00 0.00 504.00 284.00" xmlns="http://www.w3.org/2000/svg" xmlns:xlink="http://www.w3.org/1999/xlink">
<g id="graph0" class="graph" transform="scale(1 1) rotate(0) translate(4 280)">
<title>dependencies</title>
<polygon fill="white" stroke="transparent" points="-4,4 -4,-280 500,-280 500,4 -4,4"/>
<text text-anchor="start" x="227.01" y="-42.4" font-family="Times-12" font-weight="bold" font-size="14.00">Legend</text>
<polygon fill="#ffffb3" stroke="transparent" points="14,-10 14,-30 34,-30 34,-10 14,-10"/>
<text text-anchor="start" x="37.63" y="-15.4" font-family="Times-12" font-size="14.00"> &#160;Declarations</text>
<polygon fill="#8dd3c7" stroke="transparent" points="127,-10 127,-30 147,-30 147,-10 127,-10"/>
<text text-anchor="start" x="150.73" y="-15.4" font-family="Times-12" font-size="14.00"> &#160;Module</text>
<polygon fill="#80b1d3" stroke="transparent" points="213,-10 213,-30 233,-30 233,-10 213,-10"/>
<text text-anchor="start" x="236.78" y="-15.4" font-family="Times-12" font-size="14.00"> &#160;Bootstrap</text>
<polygon fill="#fdb462" stroke="transparent" points="310,-10 310,-30 330,-30 330,-10 310,-10"/>
<text text-anchor="start" x="333.67" y="-15.4" font-family="Times-12" font-size="14.00"> &#160;Providers</text>
<polygon fill="#fb8072" stroke="transparent" points="406,-10 406,-30 426,-30 426,-10 406,-10"/>
<text text-anchor="start" x="429.73" y="-15.4" font-family="Times-12" font-size="14.00"> &#160;Exports</text>
<g id="clust1" class="cluster">
<title>cluster_EmailModule</title>
<polygon fill="none" stroke="black" stroke-dasharray="1,5" points="105,-70 105,-268 391,-268 391,-70 105,-70"/>
</g>
<g id="clust4" class="cluster">
<title>cluster_EmailModule_exports</title>
<polygon fill="none" stroke="black" points="198,-208 198,-260 308,-260 308,-208 198,-208"/>
</g>
<g id="clust3" class="cluster">
<title>cluster_EmailModule_imports</title>
<polygon fill="none" stroke="black" points="263,-78 263,-130 383,-130 383,-78 263,-78"/>
</g>
<g id="clust6" class="cluster">
<title>cluster_EmailModule_providers</title>
<polygon fill="none" stroke="black" points="113,-78 113,-130 255,-130 255,-78 113,-78"/>
</g>
<!-- TenantsModule -->
<g id="node1" class="node">
<title>TenantsModule</title>
<polygon fill="#8dd3c7" stroke="black" points="374.87,-122 371.87,-126 350.87,-126 347.87,-122 271.13,-122 271.13,-86 374.87,-86 374.87,-122"/>
<text text-anchor="middle" x="323" y="-99.8" font-family="Times,serif" font-size="14.00">TenantsModule</text>
</g>
<!-- EmailModule -->
<g id="node2" class="node">
<title>EmailModule</title>
<polygon fill="#8dd3c7" stroke="black" points="299.49,-187 296.49,-191 275.49,-191 272.49,-187 206.51,-187 206.51,-151 299.49,-151 299.49,-187"/>
<text text-anchor="middle" x="253" y="-164.8" font-family="Times,serif" font-size="14.00">EmailModule</text>
</g>
<!-- TenantsModule&#45;&gt;EmailModule -->
<g id="edge1" class="edge">
<title>TenantsModule&#45;&gt;EmailModule</title>
<path fill="none" stroke="black" d="M285.28,-122.11C285.28,-122.11 285.28,-140.99 285.28,-140.99"/>
<polygon fill="black" stroke="black" points="281.78,-140.99 285.28,-150.99 288.78,-140.99 281.78,-140.99"/>
</g>
<!-- EmailService  -->
<g id="node3" class="node">
<title>EmailService </title>
<polygon fill="#fb8072" stroke="black" points="300.42,-252 205.58,-252 205.58,-216 300.42,-216 300.42,-252"/>
<text text-anchor="middle" x="253" y="-229.8" font-family="Times,serif" font-size="14.00">EmailService </text>
</g>
<!-- EmailModule&#45;&gt;EmailService  -->
<g id="edge2" class="edge">
<title>EmailModule&#45;&gt;EmailService </title>
<path fill="none" stroke="black" stroke-dasharray="5,2" d="M253,-187.11C253,-187.11 253,-205.99 253,-205.99"/>
<polygon fill="black" stroke="black" points="249.5,-205.99 253,-215.99 256.5,-205.99 249.5,-205.99"/>
</g>
<!-- EmailService -->
<g id="node4" class="node">
<title>EmailService</title>
<ellipse fill="#fdb462" stroke="black" cx="184" cy="-104" rx="63.12" ry="18"/>
<text text-anchor="middle" x="184" y="-99.8" font-family="Times,serif" font-size="14.00">EmailService</text>
</g>
<!-- EmailService&#45;&gt;EmailModule -->
<g id="edge3" class="edge">
<title>EmailService&#45;&gt;EmailModule</title>
<path fill="none" stroke="black" d="M226.78,-117.47C226.78,-117.47 226.78,-140.86 226.78,-140.86"/>
<polygon fill="black" stroke="black" points="223.28,-140.86 226.78,-150.86 230.28,-140.86 223.28,-140.86"/>
</g>
</g>
</svg>
