<?xml version="1.0" encoding="UTF-8" standalone="no"?>
<!DOCTYPE svg PUBLIC "-//W3C//DTD SVG 1.1//EN"
 "http://www.w3.org/Graphics/SVG/1.1/DTD/svg11.dtd">
<!-- Generated by graphviz version 2.47.0 (20210316.0004)
 -->
<!-- Title: dependencies Pages: 1 -->
<svg width="1455pt" height="211pt"
 viewBox="0.00 0.00 1455.00 211.00" xmlns="http://www.w3.org/2000/svg" xmlns:xlink="http://www.w3.org/1999/xlink">
<g id="graph0" class="graph" transform="scale(1 1) rotate(0) translate(4 207)">
<title>dependencies</title>
<polygon fill="white" stroke="transparent" points="-4,4 -4,-207 1451,-207 1451,4 -4,4"/>
<text text-anchor="start" x="702.51" y="-42.4" font-family="Times-12" font-weight="bold" font-size="14.00">Legend</text>
<polygon fill="#ffffb3" stroke="transparent" points="489.5,-10 489.5,-30 509.5,-30 509.5,-10 489.5,-10"/>
<text text-anchor="start" x="513.13" y="-15.4" font-family="Times-12" font-size="14.00"> &#160;Declarations</text>
<polygon fill="#8dd3c7" stroke="transparent" points="602.5,-10 602.5,-30 622.5,-30 622.5,-10 602.5,-10"/>
<text text-anchor="start" x="626.23" y="-15.4" font-family="Times-12" font-size="14.00"> &#160;Module</text>
<polygon fill="#80b1d3" stroke="transparent" points="688.5,-10 688.5,-30 708.5,-30 708.5,-10 688.5,-10"/>
<text text-anchor="start" x="712.28" y="-15.4" font-family="Times-12" font-size="14.00"> &#160;Bootstrap</text>
<polygon fill="#fdb462" stroke="transparent" points="785.5,-10 785.5,-30 805.5,-30 805.5,-10 785.5,-10"/>
<text text-anchor="start" x="809.17" y="-15.4" font-family="Times-12" font-size="14.00"> &#160;Providers</text>
<polygon fill="#fb8072" stroke="transparent" points="881.5,-10 881.5,-30 901.5,-30 901.5,-10 881.5,-10"/>
<text text-anchor="start" x="905.23" y="-15.4" font-family="Times-12" font-size="14.00"> &#160;Exports</text>
<g id="clust1" class="cluster">
<title>cluster_StudentPortalModule</title>
<polygon fill="none" stroke="black" stroke-dasharray="1,5" points="8,-70 8,-195 1439,-195 1439,-70 8,-70"/>
</g>
<g id="clust3" class="cluster">
<title>cluster_StudentPortalModule_imports</title>
<polygon fill="none" stroke="black" points="216,-78 216,-130 1431,-130 1431,-78 216,-78"/>
</g>
<g id="clust6" class="cluster">
<title>cluster_StudentPortalModule_providers</title>
<polygon fill="none" stroke="black" points="16,-78 16,-130 208,-130 208,-78 16,-78"/>
</g>
<!-- AssignmentModule -->
<g id="node1" class="node">
<title>AssignmentModule</title>
<polygon fill="#8dd3c7" stroke="black" points="1423.43,-122 1420.43,-126 1399.43,-126 1396.43,-122 1296.57,-122 1296.57,-86 1423.43,-86 1423.43,-122"/>
<text text-anchor="middle" x="1360" y="-99.8" font-family="Times,serif" font-size="14.00">AssignmentModule</text>
</g>
<!-- StudentPortalModule -->
<g id="node9" class="node">
<title>StudentPortalModule</title>
<polygon fill="#8dd3c7" stroke="black" points="793.77,-187 790.77,-191 769.77,-191 766.77,-187 658.23,-187 658.23,-151 793.77,-151 793.77,-187"/>
<text text-anchor="middle" x="726" y="-164.8" font-family="Times,serif" font-size="14.00">StudentPortalModule</text>
</g>
<!-- AssignmentModule&#45;&gt;StudentPortalModule -->
<g id="edge1" class="edge">
<title>AssignmentModule&#45;&gt;StudentPortalModule</title>
<path fill="none" stroke="black" d="M1360,-122.29C1360,-144.21 1360,-178 1360,-178 1360,-178 803.85,-178 803.85,-178"/>
<polygon fill="black" stroke="black" points="803.85,-174.5 793.85,-178 803.85,-181.5 803.85,-174.5"/>
</g>
<!-- MessagingModule -->
<g id="node2" class="node">
<title>MessagingModule</title>
<polygon fill="#8dd3c7" stroke="black" points="1279.2,-122 1276.2,-126 1255.2,-126 1252.2,-122 1158.8,-122 1158.8,-86 1279.2,-86 1279.2,-122"/>
<text text-anchor="middle" x="1219" y="-99.8" font-family="Times,serif" font-size="14.00">MessagingModule</text>
</g>
<!-- MessagingModule&#45;&gt;StudentPortalModule -->
<g id="edge2" class="edge">
<title>MessagingModule&#45;&gt;StudentPortalModule</title>
<path fill="none" stroke="black" d="M1219,-122.11C1219,-141.34 1219,-169 1219,-169 1219,-169 803.77,-169 803.77,-169"/>
<polygon fill="black" stroke="black" points="803.77,-165.5 793.77,-169 803.77,-172.5 803.77,-165.5"/>
</g>
<!-- StudentAttendanceModule -->
<g id="node3" class="node">
<title>StudentAttendanceModule</title>
<polygon fill="#8dd3c7" stroke="black" points="1141.07,-122 1138.07,-126 1117.07,-126 1114.07,-122 974.93,-122 974.93,-86 1141.07,-86 1141.07,-122"/>
<text text-anchor="middle" x="1058" y="-99.8" font-family="Times,serif" font-size="14.00">StudentAttendanceModule</text>
</g>
<!-- StudentAttendanceModule&#45;&gt;StudentPortalModule -->
<g id="edge3" class="edge">
<title>StudentAttendanceModule&#45;&gt;StudentPortalModule</title>
<path fill="none" stroke="black" d="M1058,-122.03C1058,-138.4 1058,-160 1058,-160 1058,-160 803.99,-160 803.99,-160"/>
<polygon fill="black" stroke="black" points="803.99,-156.5 793.99,-160 803.99,-163.5 803.99,-156.5"/>
</g>
<!-- StudentMarksheetModule -->
<g id="node4" class="node">
<title>StudentMarksheetModule</title>
<polygon fill="#8dd3c7" stroke="black" points="956.91,-122 953.91,-126 932.91,-126 929.91,-122 795.09,-122 795.09,-86 956.91,-86 956.91,-122"/>
<text text-anchor="middle" x="876" y="-99.8" font-family="Times,serif" font-size="14.00">StudentMarksheetModule</text>
</g>
<!-- StudentMarksheetModule&#45;&gt;StudentPortalModule -->
<g id="edge4" class="edge">
<title>StudentMarksheetModule&#45;&gt;StudentPortalModule</title>
<path fill="none" stroke="black" d="M795.21,-104C789.26,-104 785.52,-104 785.52,-104 785.52,-104 785.52,-140.89 785.52,-140.89"/>
<polygon fill="black" stroke="black" points="782.02,-140.89 785.52,-150.89 789.02,-140.89 782.02,-140.89"/>
</g>
<!-- StudentModule -->
<g id="node5" class="node">
<title>StudentModule</title>
<polygon fill="#8dd3c7" stroke="black" points="777.33,-122 774.33,-126 753.33,-126 750.33,-122 674.67,-122 674.67,-86 777.33,-86 777.33,-122"/>
<text text-anchor="middle" x="726" y="-99.8" font-family="Times,serif" font-size="14.00">StudentModule</text>
</g>
<!-- StudentModule&#45;&gt;StudentPortalModule -->
<g id="edge5" class="edge">
<title>StudentModule&#45;&gt;StudentPortalModule</title>
<path fill="none" stroke="black" d="M726,-122.11C726,-122.11 726,-140.99 726,-140.99"/>
<polygon fill="black" stroke="black" points="722.5,-140.99 726,-150.99 729.5,-140.99 722.5,-140.99"/>
</g>
<!-- StudentNotesModule -->
<g id="node6" class="node">
<title>StudentNotesModule</title>
<polygon fill="#8dd3c7" stroke="black" points="656.48,-122 653.48,-126 632.48,-126 629.48,-122 521.52,-122 521.52,-86 656.48,-86 656.48,-122"/>
<text text-anchor="middle" x="589" y="-99.8" font-family="Times,serif" font-size="14.00">StudentNotesModule</text>
</g>
<!-- StudentNotesModule&#45;&gt;StudentPortalModule -->
<g id="edge6" class="edge">
<title>StudentNotesModule&#45;&gt;StudentPortalModule</title>
<path fill="none" stroke="black" d="M656.66,-104C662.64,-104 666.48,-104 666.48,-104 666.48,-104 666.48,-140.89 666.48,-140.89"/>
<polygon fill="black" stroke="black" points="662.98,-140.89 666.48,-150.89 669.98,-140.89 662.98,-140.89"/>
</g>
<!-- StudentSummaryModule -->
<g id="node7" class="node">
<title>StudentSummaryModule</title>
<polygon fill="#8dd3c7" stroke="black" points="503.27,-122 500.27,-126 479.27,-126 476.27,-122 346.73,-122 346.73,-86 503.27,-86 503.27,-122"/>
<text text-anchor="middle" x="425" y="-99.8" font-family="Times,serif" font-size="14.00">StudentSummaryModule</text>
</g>
<!-- StudentSummaryModule&#45;&gt;StudentPortalModule -->
<g id="edge7" class="edge">
<title>StudentSummaryModule&#45;&gt;StudentPortalModule</title>
<path fill="none" stroke="black" d="M425,-122.03C425,-138.4 425,-160 425,-160 425,-160 648.07,-160 648.07,-160"/>
<polygon fill="black" stroke="black" points="648.07,-163.5 658.07,-160 648.07,-156.5 648.07,-163.5"/>
</g>
<!-- TeacherModule -->
<g id="node8" class="node">
<title>TeacherModule</title>
<polygon fill="#8dd3c7" stroke="black" points="328.12,-122 325.12,-126 304.12,-126 301.12,-122 223.88,-122 223.88,-86 328.12,-86 328.12,-122"/>
<text text-anchor="middle" x="276" y="-99.8" font-family="Times,serif" font-size="14.00">TeacherModule</text>
</g>
<!-- TeacherModule&#45;&gt;StudentPortalModule -->
<g id="edge8" class="edge">
<title>TeacherModule&#45;&gt;StudentPortalModule</title>
<path fill="none" stroke="black" d="M276,-122.11C276,-141.34 276,-169 276,-169 276,-169 648.14,-169 648.14,-169"/>
<polygon fill="black" stroke="black" points="648.14,-172.5 658.14,-169 648.14,-165.5 648.14,-172.5"/>
</g>
<!-- StudentChatService -->
<g id="node10" class="node">
<title>StudentChatService</title>
<ellipse fill="#fdb462" stroke="black" cx="112" cy="-104" rx="87.98" ry="18"/>
<text text-anchor="middle" x="112" y="-99.8" font-family="Times,serif" font-size="14.00">StudentChatService</text>
</g>
<!-- StudentChatService&#45;&gt;StudentPortalModule -->
<g id="edge9" class="edge">
<title>StudentChatService&#45;&gt;StudentPortalModule</title>
<path fill="none" stroke="black" d="M112,-122.29C112,-144.21 112,-178 112,-178 112,-178 647.95,-178 647.95,-178"/>
<polygon fill="black" stroke="black" points="647.95,-181.5 657.95,-178 647.95,-174.5 647.95,-181.5"/>
</g>
</g>
</svg>
